<?xml version="1.0" encoding="utf-8"?>
<!-- Generator: Adobe Illustrator 23.0.0, SVG Export Plug-In . SVG Version: 6.00 Build 0)  -->
<svg version="1.1" id="Layer_1" xmlns="http://www.w3.org/2000/svg" xmlns:xlink="http://www.w3.org/1999/xlink" x="0px" y="0px"
	 viewBox="0 0 750 500" style="enable-background:new 0 0 750 500;" xml:space="preserve">
<style type="text/css">
	.st0{fill:#EBEBEB;}
	.st1{fill:#FFFFFF;}
	.st2{fill:#DBDBDB;}
	.st3{fill:#C7C7C7;}
	.st4{fill:#FFC727;}
	.st5{fill:#263238;}
	.st6{fill:#455A64;}
	.st7{fill:#A6A6A6;}
	.st8{fill:#407BFF;}
	.st9{fill:#FF725E;}
	.st10{fill:#37474F;}
	.st11{fill-rule:evenodd;clip-rule:evenodd;fill:#FFFFFF;}
	.st12{fill:#E0E0E0;}
	.st13{fill:#FFBE9D;}
	.st14{fill:#EB996E;}
	.st15{opacity:0.6;}
	.st16{opacity:0.3;}
</style>
<g id="freepik--background-complete--inject-71">
	<path class="st0" d="M122.9,261.9c0.5-12.8,0.3-25.6-0.5-38.3c-1.9-26.3-5.9-52.4-12-78.1c-3.3-14.4-7.5-28.7-11.8-42.8
		c-0.1-0.4-0.8-0.3-0.7,0.1c13.3,50,24.2,101.6,23.4,153.6c-0.2,14.5-1.9,28.8-3.3,43.3c0,0.4,0.6,0.5,0.7,0.1
		C121.5,287.5,122.4,274.5,122.9,261.9z"/>
	<path class="st0" d="M97.9,102.8c0,0-20.1,51.1-15.6,63.1s13.8,14.6,13.8,14.6s-12.3,17.5-3.7,34.1s27.7,15.7,29,34.4
		C121.3,248.9,122.4,170.8,97.9,102.8z"/>
	<path class="st1" d="M119.2,216.6c0-0.1,0-0.2,0-0.3c-2.8-34.7-9-69.3-19.5-102.7c0-0.1-0.2-0.1-0.2,0c4,14.9,7.5,30,10.6,45
		c-2.7-2.6-6-4.4-9.6-5.4c0,0-0.1,0-0.1,0.1s0,0.1,0.1,0.1c3.7,1.6,7.3,3.5,9.9,6.6c0.6,3,1.2,5.9,1.7,8.9c-4.5-5-10.7-7.5-17-9.9
		c-0.1,0-0.1,0.1,0,0.1c6.5,2.6,13,6.1,17.4,11.6c1.5,8.5,2.9,17,4,25.5c-3.3-3.4-7.4-5.8-12-6.9c-0.1,0-0.2,0.2-0.1,0.2
		c4.7,1.4,8.9,4.1,12.2,7.8c0,0,0,0,0.1,0.1c0.4,3,0.8,6,1.1,9c-2.5-2.1-5.3-3.8-8.4-5.1c0,0-0.1,0.1,0,0.1l0,0
		c3.1,1.3,6,3.2,8.4,5.6c0,0,0.1,0,0.1,0.1c0.3,2.9,0.7,5.7,1,8.6c-4.5-5.5-10.4-9.7-17.1-12.2c-0.1,0-0.1,0-0.1,0.1v0.1
		c6.6,2.9,12.3,7.3,16.8,12.9c0.1,0.1,0.3,0.2,0.4,0.1c0.4,4.4,0.8,8.8,1.2,13.2c0,0.1,0.1,0.1,0.1,0
		C119.9,225.7,119.5,221.2,119.2,216.6z"/>
	<path class="st1" d="M103,148.3c-3.5-2.4-7.9-3.4-12.1-3.8c-0.1,0-0.1,0.1,0,0.1c4.3,0.6,8,2.2,11.9,3.9
		C103,148.7,103.2,148.4,103,148.3z"/>
	<path class="st1" d="M105.4,202.4c-2.8-1.6-5.9-2.7-9.1-3.1c-0.1,0-0.1,0.2,0,0.2c3.1,0.6,6.2,1.7,9,3.1
		C105.4,202.6,105.5,202.5,105.4,202.4C105.5,202.4,105.5,202.4,105.4,202.4z"/>
	<path class="st0" d="M175.8,166.7c-8.5,5.9-16.3,12.7-23.3,20.4c-7.2,8.1-12.7,17.5-16.3,27.7c-7.6,21.3-11.7,43.6-12.2,66.2
		c-0.3,12.5,0.9,25,3.6,37.3c0,0.2,0.2,0.3,0.4,0.3c0.2,0,0.3-0.2,0.3-0.4l0,0c-3.3-21.6-3.2-43.6,0.4-65.1
		c3.5-21.1,8.9-44.1,22.3-61.3c7.3-9.4,16.4-16.7,25.4-24.3C176.9,167.1,176.3,166.4,175.8,166.7z"/>
	<path class="st0" d="M127,265.8c4.9-7.8,10.6-15.1,17-21.7c10.1-10.1,18.5-17.2,19.9-23.9s-10.1-11.6-10.1-11.6s13.9,2.5,17.7-3.4
		s5.6-39.7,5.6-39.7s-25.3,18.1-37.1,43.4S127,265.8,127,265.8z"/>
	<path class="st1" d="M168.3,174.3c-10.7,10.5-21.4,21.6-27.7,35.4c-2.1,4.8-4,9.6-5.6,14.6l0,0c-0.3,1-0.6,2-1,3c0,0,0,0.1-0.1,0.2
		c-3,10.3-5.4,20.7-7.2,31.3c0,0.1,0.1,0.1,0.1,0c1.1-5.3,2.3-10.6,3.6-15.9h0.1c2.1-0.9,4.4-1.5,6.6-1.7c0.1,0,0.1-0.3,0-0.3
		c-2.2,0.1-4.5,0.5-6.6,1.2c1.2-4.8,2.6-9.6,4.1-14.3c4.9-1.2,9.9-1.9,15-2 M149.8,225.7c-4.9-0.2-9.9,0.2-14.7,1.3
		c0.3-0.8,0.5-1.6,0.8-2.4c3.3-0.8,6.6-1.3,10-1.7c0.1,0,0.1-0.1,0-0.1c-3.3,0.1-6.6,0.5-9.8,1.2c1.4-4.1,2.9-8.1,4.5-12
		c1.4-3.2,3-6.3,4.8-9.3c2.7-0.7,5.4-1.1,8.1-1.4c0.1,0,0.1-0.1,0-0.1c-2.6-0.2-5.1,0.1-7.6,0.8c1.3-2.1,2.7-4.3,4.2-6.3l0,0
		c5.7-1.3,11.4-2.4,17.3-1.3c0.1,0,0.1-0.1,0-0.2c-5.5-1.5-11-0.6-16.5,0.5c0.6-0.8,1.2-1.6,1.8-2.4c3.4-1.1,7-1.6,10.6-1.7
		c0,0,0.1,0,0.1-0.1c0,0,0-0.1-0.1-0.1c-3.3-0.3-6.7,0-9.9,0.9c4.7-5.8,9.9-11.3,15-16.7c0.3-0.3,0.1-0.4-0.2-0.2L149.8,225.7z"/>
	<path class="st1" d="M168,197.4c-1.7-0.2-3.3-0.3-5-0.2c-0.2,0-0.2,0.4,0,0.4c1.7,0,3.3-0.1,5,0C168,197.6,168.1,197.5,168,197.4
		L168,197.4z"/>
	<path class="st1" d="M149.8,230.3c-2.7,0.1-5.3,0.6-7.8,1.6c-0.1,0,0,0.1,0,0.1c2.6-0.6,5.2-0.9,7.8-1.3c0.1,0,0.2-0.1,0.2-0.2
		C150,230.3,149.9,230.3,149.8,230.3z"/>
	<path class="st1" d="M144.3,218.9c-1.1,0-2.2,0.1-3.3,0.3c-0.1,0-0.1,0.2,0,0.2c1.1,0.1,2.2,0,3.3-0.1
		C144.5,219.2,144.5,218.9,144.3,218.9z"/>
	<path class="st0" d="M52.7,202.7c8.2,2.8,16.1,6.5,23.5,11.1c7.7,4.9,14.3,11.2,19.6,18.6c11.1,15.4,19.6,32.6,25.2,50.8
		c3.1,10.1,5,20.5,5.7,31c0,0.2-0.2,0.3-0.3,0.2c-0.1,0-0.2-0.1-0.2-0.2c-2.3-18.2-7.5-36-15.3-52.6c-7.7-16.3-17.4-33.6-32.2-44.4
		c-8.1-5.9-17.2-9.7-26.2-13.8C51.9,203.2,52.2,202.5,52.7,202.7z"/>
	<path class="st0" d="M115.1,271.6c-5.7-5.2-12-9.8-18.8-13.6c-10.5-5.8-19-9.6-21.6-14.7s5.5-11.7,5.5-11.7s-10.7,5.2-15.1,1.4
		s-13.8-30.8-13.8-30.8S76,211,91.4,228.8S115.1,271.6,115.1,271.6z"/>
	<path class="st1" d="M113.8,266c-12.4-23.2-28.8-44.1-51.4-58l0,0c5.9,3.8,11.4,8.2,16.5,13c-4.6-0.3-9.2,0.7-13.3,2.8v0.1
		c0,0,0,0,0.1,0c4.4-1.6,9-2.4,13.7-2.3c0.1,0,0.1,0,0.2-0.1c0.8,0.8,1.6,1.5,2.4,2.3c-2.4,0.1-4.8,0.4-7.1,0.9c0,0-0.1,0-0.1,0.1
		s0,0.1,0.1,0.1c2.5-0.5,5-0.7,7.5-0.6c4.1,4.2,8,8.6,11.7,13.2c-1.7-0.2-3.4-0.1-5,0.4c-0.1,0-0.1,0.1-0.1,0.1s0,0.1,0.1,0.1
		c1.8-0.2,3.5-0.2,5.3-0.1c0.7,0.9,1.4,1.7,2,2.6c-5-0.3-10.1,0.2-15,1.5c-0.1,0-0.1,0.1,0,0.1c5.1-1,10.2-1.3,15.4-1
		c0.6,0.8,1.2,1.7,1.8,2.5c-3-0.1-6,0.2-8.9,1c0,0-0.1,0-0.1,0.1c0,0,0,0.1,0.1,0.1c0,0,0,0,0.1,0c3-0.7,6.1-0.9,9.2-0.7
		c2.7,3.6,5.2,7.4,7.7,11.2c-1.3-0.2-2.7-0.2-3.9,0.2c0,0-0.1,0-0.1,0.1s0,0.1,0.1,0.1l0,0c1.4-0.1,2.8,0,4.2,0.2
		c2.2,3.4,4.3,6.9,6.4,10.4C113.5,266.5,114,266.3,113.8,266z"/>
	<path class="st1" d="M94.6,246.8c-2.4-0.2-4.9,0.1-7.2,0.9c-0.1,0,0,0.1,0,0.1c2.4-0.4,4.7-0.6,7.1-0.7
		C94.7,247,94.8,246.8,94.6,246.8z"/>
	<path class="st1" d="M73.1,218.5c-1.1-0.1-2.2,0-3.3,0.2c-0.1,0-0.1,0.1-0.1,0.1s0,0.1,0.1,0.1c1.1-0.1,2.2-0.1,3.3-0.1
		c0.1,0,0.2,0,0.2-0.1C73.2,218.6,73.1,218.5,73.1,218.5z"/>
	<polygon class="st2" points="146.9,348.2 91.2,348.2 99.2,290 101.2,275.1 136.9,275.1 139,290 	"/>
	<polygon class="st3" points="139,290 99.2,290 101.2,275.1 136.9,275.1 	"/>
	<rect x="96.1" y="269.9" class="st2" width="46" height="12.6"/>
	<g id="freepik--aiZGp2--inject-71">
		<path class="st0" d="M570.9,82.7c-2.6,6.7-4.2,13.8-4.6,21.1h-18.4h-0.2v-0.5l0.2-1.4c0.2-2.5,0.6-4.9,1.2-7.4
			c1-4,2.4-7.8,4.2-11.5c0.1-0.2,0.3-0.3,0.5-0.3L570.9,82.7L570.9,82.7z"/>
		<path class="st0" d="M570.3,129.7h-17.1c-0.2,0-0.4-0.1-0.4-0.3c-2-4.1-3.4-8.5-4.3-13c-0.4-2.2-0.7-4.4-0.8-6.6
			c0-0.1,0-0.2,0-0.2v-0.5h0.3h18c0.3,0,0.3,0,0.3,0.3c0.1,1.5,0.2,3,0.4,4.5c0.2,2.4,0.6,4.7,1.2,7.1c0.6,2.8,1.4,5.7,2.4,8.4
			C570.3,129.5,570.3,129.6,570.3,129.7z"/>
		<path class="st0" d="M642.4,135.1c0,0.1-0.1,0.2-0.1,0.3c-1.5,2.2-3.1,4.3-4.9,6.3c-2.1,2.4-4.5,4.6-7.1,6.6
			c-2.5,1.9-5.3,3.6-8.1,5c-2.7,1.4-5.6,2.5-8.6,3.3c-2.3,0.7-4.7,1.2-7.1,1.5l-0.7,0.1h-0.4L605,158l0.5-0.3
			c5.2-3.6,9.8-8,13.5-13.1c2.1-2.9,4-6,5.5-9.2c0.1-0.2,0.2-0.3,0.4-0.3L642.4,135.1L642.4,135.1z"/>
		<path class="st0" d="M625.3,103.7h-24.1v-21h0.3H620c0.2,0,0.3,0.1,0.4,0.3c1.7,4,3,8.1,3.8,12.3c0.4,2.2,0.7,4.4,0.9,6.7
			C625.2,102.5,625.2,103.1,625.3,103.7z"/>
		<path class="st0" d="M625.1,109.3c0,0.5,0,1-0.1,1.5c-0.1,1.2-0.2,2.3-0.3,3.5c-0.2,1.6-0.5,3.2-0.8,4.8
			c-0.7,3.5-1.8,6.9-3.1,10.3c0,0.2-0.2,0.3-0.4,0.3h-19.3v-20.4C601.1,109.3,625.1,109.3,625.1,109.3z"/>
		<path class="st0" d="M595.8,82.8v21.1h-23.5c0-0.5,0-1.1,0.1-1.6c0.1-1.2,0.2-2.4,0.4-3.5c0.3-1.8,0.6-3.6,1-5.3
			c0.8-3.6,1.9-7.1,3.4-10.4c0.1-0.2,0.2-0.3,0.4-0.3L595.8,82.8L595.8,82.8z"/>
		<path class="st0" d="M595.8,109.6c0,6.6,0,13.2,0,19.8v0.3H577c-0.2,0-0.4-0.1-0.4-0.3c-1.4-3.4-2.5-7-3.2-10.6
			c-0.3-1.9-0.6-3.8-0.8-5.7c-0.2-1.2-0.2-2.5-0.3-3.7v-0.1h23.2C595.8,109.3,595.8,109.4,595.8,109.6z"/>
		<path class="st0" d="M650.8,103.8h-19.7c-0.4-7.3-2-14.4-4.6-21.2h18.4c0.2,0,0.4,0.1,0.4,0.3c2.1,4.2,3.6,8.6,4.5,13.2
			c0.5,2.4,0.8,4.9,1,7.4L650.8,103.8z"/>
		<path class="st0" d="M650.8,109.2c0,0.5,0,0.9-0.1,1.4c-0.1,1.8-0.3,3.6-0.7,5.3c-0.7,4.1-1.9,8.1-3.6,11.8
			c-0.3,0.6-0.6,1.2-0.8,1.8c0,0.1-0.2,0.2-0.3,0.2H627c0.2-0.6,0.4-1.2,0.7-1.9c1.1-3.1,1.9-6.3,2.4-9.6c0.4-2.4,0.7-4.8,0.8-7.2
			c0-0.6,0.1-1.1,0.1-1.7c0-0.2,0-0.2,0.2-0.2c0.1,0,0.1,0,0.2,0L650.8,109.2z"/>
		<path class="st0" d="M641.9,77.3L641.9,77.3l-0.3,0.1c-5.8,0-11.5,0-17.3,0c-0.2,0-0.4-0.1-0.4-0.3c-2.3-4.6-5.2-8.8-8.6-12.7
			c-2-2.2-4.2-4.2-6.6-6.1c-1.2-0.9-2.4-1.8-3.6-2.6l-0.2-0.2l0.2-0.2c0-0.1-0.1-0.2-0.1-0.4c6.1,0.7,12,2.5,17.5,5.2
			C630.4,64.2,637,70,641.9,77.3z"/>
		<path class="st0" d="M592.4,158c-0.2,0.1-0.3,0.1-0.5,0.1c-1.9-0.2-3.8-0.6-5.6-1.1c-3.5-0.9-6.8-2.1-10-3.7
			c-3.7-1.8-7.1-4.1-10.2-6.7c-2.2-1.9-4.3-3.9-6.1-6.1c-1.4-1.7-2.7-3.5-3.8-5.3c0-0.1-0.1-0.1-0.1-0.2h0.3c5.4,0,10.7,0,16.1,0
			c0.2,0,0.3,0.1,0.4,0.3c1.7,3.4,3.7,6.6,5.9,9.6c2.1,2.7,4.4,5.3,6.9,7.7C587.8,154.6,590,156.3,592.4,158L592.4,158z"/>
		<path class="st0" d="M592.2,55.6c-0.7,0.5-1.6,1.2-2.4,1.8c-2.8,2.2-5.4,4.6-7.8,7.3c-3.2,3.5-6,7.4-8.2,11.7
			c-0.1,0.3-0.3,0.6-0.4,0.8c-0.1,0.1-0.1,0.1-0.3,0.2c-0.3,0-0.6,0-0.9,0h-15.7c8.8-12.3,20.5-19.8,35.5-22c0,0.1-0.1,0.1-0.1,0.2
			L592.2,55.6z"/>
		<path class="st0" d="M618.1,135.1c-2.2,3.9-4.9,7.5-8,10.8c-2.7,2.9-5.8,5.5-9.1,7.7v-18.5H618.1z"/>
		<path class="st0" d="M595.8,135.2v18.1c-6.8-4.7-12.4-10.9-16.3-18.1H595.8z"/>
		<path class="st0" d="M617.6,77.2h-16.4V60c3.4,2.2,6.4,4.8,9.2,7.7C613.1,70.6,615.5,73.8,617.6,77.2z"/>
		<path class="st0" d="M595.8,60.5v16.9h-15.7C583.9,70.6,589.3,64.8,595.8,60.5z"/>
	</g>
	<path class="st0" d="M284.2,147H146.8V57.5h137.4V147z M147.8,146h135.4V58.5H147.8V146z"/>
	<path class="st0" d="M284.2,70.3H146.8V57.5h137.4V70.3z M147.8,69.3h135.4V58.5H147.8V69.3z"/>
	<path class="st3" d="M158.4,64c0,1.7-1.3,3-3,3s-3-1.3-3-3s1.3-3,3-3S158.4,62.3,158.4,64z"/>
	<path class="st0" d="M170.4,64c0,1.7-1.3,3-3,3s-3-1.3-3-3c0-1.7,1.3-3,3-3l0,0C169.1,61,170.4,62.3,170.4,64L170.4,64z"/>
	<path class="st4" d="M182.5,64c0,1.7-1.3,3-3,3s-3-1.3-3-3s1.3-3,3-3S182.5,62.3,182.5,64z"/>
</g>
<g id="freepik--Shadow--inject-71">
	<ellipse class="st0" cx="375" cy="402.5" rx="328.8" ry="41.3"/>
</g>
<g id="freepik--Computer--inject-71">
	<rect x="180.5" y="102.4" class="st2" width="388.2" height="259.7"/>
	<rect x="183.4" y="105.6" class="st5" width="382.6" height="253.3"/>
	<rect x="130" y="381.6" class="st3" width="489.3" height="17.8"/>
	<polygon class="st2" points="130,381.6 180.5,362.1 568.7,362.1 619.3,381.6 	"/>
	<polygon class="st5" points="185.1,374.7 217.7,362.1 531.6,362.1 564.2,374.7 	"/>
	<rect x="205" y="124.9" class="st1" width="339.3" height="214.8"/>
	<rect x="204.7" y="124.9" class="st6" width="339.6" height="8.3"/>
	<path class="st3" d="M211.3,129c0,1.1-0.9,2-2.1,2c-1.1,0-2-0.9-2-2.1c0-1.1,0.9-2,2.1-2l0,0C210.4,127,211.3,127.9,211.3,129z"/>
	<path class="st1" d="M219.6,129c0,1.1-0.9,2-2.1,2c-1.1,0-2-0.9-2-2.1c0-1.1,0.9-2,2.1-2l0,0C218.7,127,219.6,127.9,219.6,129z"/>
	<path class="st4" d="M228,129c0,1.1-0.9,2.1-2.1,2.1c-1.1,0-2.1-0.9-2.1-2.1c0-1.1,0.9-2.1,2.1-2.1S228,127.9,228,129L228,129z"/>
	<rect x="221.3" y="150.5" class="st0" width="131.9" height="92.4"/>
	<path class="st2" d="M236.7,176.8c0,6,4.9,10.9,10.9,10.9s10.9-4.9,10.9-10.9s-4.9-10.9-10.9-10.9S236.7,170.7,236.7,176.8
		L236.7,176.8z"/>
	<polygon class="st3" points="279.8,223 353.2,223 316.5,173.3 	"/>
	<polygon class="st2" points="251.1,223.1 311.7,223.1 281.4,190.7 	"/>
	<rect x="221.3" y="223" class="st2" width="131.9" height="19.9"/>
	<rect x="372" y="150.5" class="st7" width="118.3" height="6"/>
	<rect x="372" y="162.9" class="st2" width="144" height="6"/>
	<rect x="372" y="175.2" class="st2" width="144" height="6"/>
	<rect x="372" y="187.6" class="st2" width="144" height="6"/>
	<rect x="372" y="199.9" class="st2" width="144" height="6"/>
	<rect x="372" y="212.3" class="st2" width="95.6" height="6"/>
	<rect x="452.3" y="255.3" class="st7" width="52.3" height="5.9"/>
	<rect x="452.3" y="267.5" class="st2" width="63.7" height="5.9"/>
	<rect x="452.3" y="279.6" class="st2" width="63.7" height="5.9"/>
	<rect x="452.3" y="291.8" class="st2" width="63.7" height="5.9"/>
	<rect x="452.3" y="304" class="st2" width="63.7" height="5.9"/>
	<rect x="452.3" y="316.1" class="st2" width="43.2" height="5.9"/>
	<rect x="372" y="225.4" class="st8" width="144" height="17.5"/>
	<rect x="221.3" y="255.3" class="st7" width="131.9" height="17.5"/>
	<rect x="221.3" y="279.2" class="st2" width="131.9" height="5.9"/>
	<rect x="221.3" y="291.5" class="st2" width="131.9" height="5.9"/>
	<rect x="221.3" y="303.8" class="st2" width="131.9" height="5.9"/>
	<rect x="221.3" y="316.1" class="st2" width="90.4" height="5.9"/>
	<rect x="535.2" y="133.1" class="st2" width="9.1" height="206.6"/>
	<path class="st7" d="M539.7,241.2L539.7,241.2c-1.3,0-2.3-1-2.3-2.3l0,0V137.5c0-1.3,1-2.3,2.3-2.3l0,0l0,0c1.3,0,2.3,1,2.3,2.3
		l0,0v101.4C542.1,240.2,541,241.2,539.7,241.2L539.7,241.2z"/>
	<g id="freepik--aiZGp2--inject-71_2_">
		<path class="st0" d="M387.5,274.6c-1.6,4.2-2.6,8.6-2.8,13h-11.4h-0.1v-0.3l0.1-0.9c0.1-1.5,0.4-3.1,0.7-4.6
			c0.6-2.5,1.5-4.8,2.6-7.1c0-0.1,0.2-0.2,0.3-0.2h10.6V274.6z"/>
		<path class="st0" d="M387.1,303.7h-10.6c-0.1,0-0.2-0.1-0.3-0.2c-1.2-2.6-2.1-5.3-2.6-8c-0.3-1.3-0.4-2.7-0.5-4.1v-0.1V291h0.2
			h11.2c0.2,0,0.2,0,0.2,0.2c0.1,0.9,0.1,1.9,0.2,2.8c0.1,1.5,0.4,2.9,0.7,4.4c0.4,1.8,0.9,3.5,1.5,5.2
			C387.1,303.5,387.1,303.6,387.1,303.7z"/>
		<path class="st0" d="M431.7,307c0,0.1-0.1,0.1-0.1,0.2c-0.9,1.4-1.9,2.7-3,3.9c-1.3,1.5-2.8,2.9-4.4,4.1s-3.2,2.2-5,3.1
			c-1.7,0.8-3.5,1.5-5.3,2.1c-1.4,0.4-2.9,0.7-4.4,0.9l-0.4,0.1h-0.3l-0.2-0.1l0.3-0.2c3.2-2.2,6.1-4.9,8.4-8.1
			c1.3-1.8,2.4-3.7,3.4-5.7c0-0.1,0.1-0.2,0.3-0.2L431.7,307L431.7,307z"/>
		<path class="st0" d="M421.1,287.6h-14.9v-13h0.2h11.4c0.1,0,0.2,0.1,0.2,0.2c1.1,2.4,1.9,5,2.4,7.6c0.3,1.4,0.5,2.7,0.6,4.1
			C421,286.8,421,287.2,421.1,287.6z"/>
		<path class="st0" d="M421,291.1c0,0.3,0,0.6,0,0.9c-0.1,0.7-0.1,1.5-0.2,2.2c-0.1,1-0.3,2-0.5,3c-0.4,2.2-1.1,4.3-1.9,6.3
			c0,0.1-0.1,0.2-0.3,0.2h-11.9v-12.6H421z"/>
		<path class="st0" d="M402.8,274.7v13h-14.5c0-0.3,0-0.7,0.1-1c0.1-0.7,0.1-1.5,0.2-2.2c0.2-1.1,0.4-2.2,0.6-3.3
			c0.5-2.2,1.2-4.4,2.1-6.4c0-0.1,0.1-0.2,0.2-0.2L402.8,274.7L402.8,274.7z"/>
		<path class="st0" d="M402.8,291.2c0,4.1,0,8.2,0,12.2v0.2h-11.6c-0.1,0-0.2-0.1-0.3-0.2c-0.9-2.1-1.5-4.3-2-6.6
			c-0.2-1.2-0.4-2.3-0.5-3.5c-0.1-0.8-0.1-1.5-0.2-2.3v-0.1h14.4C402.8,291,402.8,291.1,402.8,291.2z"/>
		<path class="st0" d="M436.8,287.7h-12.2c-0.2-4.5-1.2-8.9-2.8-13.1h11.4c0.1,0,0.2,0.1,0.3,0.2c1.3,2.6,2.2,5.3,2.8,8.2
			C436.6,284.5,436.8,286,436.8,287.7L436.8,287.7z"/>
		<path class="st0" d="M436.8,291c0,0.3,0,0.6,0,0.9c-0.1,1.1-0.2,2.2-0.4,3.3c-0.5,2.5-1.2,5-2.2,7.3c-0.2,0.4-0.3,0.7-0.5,1.1
			c0,0.1-0.1,0.1-0.2,0.1h-11.4c0.1-0.4,0.3-0.8,0.4-1.1c0.7-1.9,1.2-3.9,1.5-5.9c0.3-1.5,0.4-2.9,0.5-4.4c0-0.4,0-0.7,0.1-1.1
			c0-0.1,0-0.1,0.1-0.1h0.1L436.8,291z"/>
		<path class="st0" d="M431.3,271.3L431.3,271.3l-0.2,0.1c-3.6,0-7.1,0-10.7,0c-0.1,0-0.2,0-0.3-0.2c-1.4-2.8-3.2-5.5-5.3-7.8
			c-1.2-1.4-2.6-2.6-4.1-3.7c-0.7-0.6-1.5-1.1-2.2-1.6l-0.1-0.1l0.1-0.1c0-0.1,0-0.1-0.1-0.2c3.8,0.4,7.4,1.5,10.8,3.2
			C424.2,263.2,428.3,266.8,431.3,271.3z"/>
		<path class="st0" d="M400.8,321.1c-0.1,0-0.2,0-0.3,0c-1.2-0.2-2.3-0.4-3.5-0.7c-2.1-0.5-4.2-1.3-6.2-2.3
			c-2.3-1.1-4.4-2.5-6.3-4.1c-1.4-1.1-2.6-2.4-3.8-3.8c-0.9-1-1.6-2.1-2.4-3.3v-0.1h0.2c3.3,0,6.6,0,9.9,0c0.1,0,0.2,0.1,0.2,0.2
			c1,2.1,2.3,4.1,3.7,5.9c1.3,1.7,2.7,3.3,4.3,4.7C397.8,319,399.2,320.1,400.8,321.1L400.8,321.1z"/>
		<path class="st0" d="M400.6,257.8c-0.5,0.3-1,0.7-1.5,1.1c-1.7,1.3-3.3,2.8-4.8,4.5c-2,2.2-3.7,4.6-5,7.2
			c-0.1,0.2-0.2,0.3-0.3,0.5c0,0.1-0.1,0.1-0.2,0.1c-0.2,0-0.4,0-0.5,0h-9.7c5.4-7.6,12.7-12.2,21.9-13.6c0,0,0,0.1-0.1,0.1
			L400.6,257.8z"/>
		<path class="st0" d="M416.6,307c-1.4,2.4-3,4.6-4.9,6.6c-1.7,1.8-3.6,3.4-5.6,4.8V307H416.6z"/>
		<path class="st0" d="M402.8,307v11.2c-4.2-2.9-7.7-6.7-10.1-11.2H402.8z"/>
		<path class="st0" d="M416.3,271.2h-10.1v-10.6c2.1,1.4,4,2.9,5.7,4.8C413.5,267.1,415,269.1,416.3,271.2z"/>
		<path class="st0" d="M402.8,260.9v10.4h-9.7C395.5,267.1,398.8,263.5,402.8,260.9z"/>
	</g>
</g>
<g>
	<path class="st6" d="M335.1,241v146.6c-0.1,6.6-5.4,11.9-12,11.8H92.7c-6.6,0-11.9-5.2-12-11.8V241c0.1-6.6,5.4-11.9,12-11.8H323
		C329.6,229.1,335,234.4,335.1,241L335.1,241z"/>
	<rect x="98.6" y="236.3" class="st1" width="219" height="155.7"/>
	<rect x="217.2" y="247.2" class="st9" width="87.4" height="16.6"/>
	<rect x="217.2" y="270.1" class="st2" width="87.4" height="2.3"/>
	<rect x="217.2" y="275.6" class="st2" width="87.4" height="2.3"/>
	<rect x="217.2" y="281.1" class="st2" width="87.4" height="2.3"/>
	<rect x="217.2" y="286.5" class="st2" width="87.4" height="2.3"/>
	<rect x="217.2" y="292" class="st2" width="87.4" height="2.3"/>
	<rect x="217.2" y="297.5" class="st2" width="87.4" height="2.3"/>
	<rect x="217.2" y="303" class="st2" width="50.3" height="2.3"/>
	<rect x="142.9" y="367.2" class="st2" width="87.4" height="2.3"/>
	<rect x="142.9" y="334.4" class="st2" width="87.4" height="2.3"/>
	<rect x="142.9" y="339.9" class="st2" width="87.4" height="2.3"/>
	<rect x="142.9" y="345.3" class="st2" width="87.4" height="2.3"/>
	<rect x="142.9" y="350.8" class="st2" width="59.6" height="2.3"/>
	<rect x="142.9" y="361.7" class="st2" width="87.4" height="2.3"/>
	<rect x="142.9" y="372.7" class="st2" width="59.6" height="2.3"/>
	<rect x="111.6" y="322.8" class="st6" width="192.9" height="5.5"/>
	<rect x="111.6" y="334.4" class="st8" width="25" height="45.5"/>
	<path class="st10" d="M91.1,295.8h0.2c0.7,0,1.3,0.6,1.3,1.3v34.5c0,0.7-0.6,1.3-1.3,1.3h-0.2c-0.7,0-1.3-0.6-1.3-1.3V297
		C89.8,296.3,90.4,295.8,91.1,295.8z"/>
	<path class="st10" d="M332,314.3c0,2.7-2.1,4.8-4.8,4.8s-4.8-2.1-4.8-4.8s2.1-4.8,4.8-4.8l0,0C329.9,309.5,332,311.6,332,314.3z"/>
	<g id="freepik--aiZGp2--inject-71_1_">
		<path class="st0" d="M136.3,262.7c-1.6,4.2-2.6,8.6-2.8,13h-11.4H122v-0.3l0.1-0.9c0.1-1.5,0.4-3.1,0.7-4.6
			c0.6-2.5,1.5-4.8,2.6-7.1c0-0.1,0.2-0.2,0.3-0.2L136.3,262.7L136.3,262.7z"/>
		<path class="st0" d="M136,291.8h-10.6c-0.1,0-0.2-0.1-0.3-0.2c-1.2-2.6-2.1-5.3-2.6-8c-0.3-1.3-0.4-2.7-0.5-4.1v-0.1v-0.3h0.2
			h11.2c0.2,0,0.2,0,0.2,0.2c0.1,0.9,0.1,1.9,0.2,2.8c0.1,1.5,0.4,2.9,0.7,4.4c0.4,1.8,0.9,3.5,1.5,5.2
			C136,291.7,136,291.7,136,291.8z"/>
		<path class="st0" d="M180.5,295.2c0,0.1-0.1,0.1-0.1,0.2c-0.9,1.4-1.9,2.7-3,3.9c-1.3,1.5-2.8,2.9-4.4,4.1c-1.6,1.2-3.2,2.2-5,3.1
			c-1.7,0.8-3.5,1.5-5.3,2.1c-1.4,0.4-2.9,0.7-4.4,0.9l-0.4,0.1h-0.3l-0.2-0.1l0.3-0.2c3.2-2.2,6.1-4.9,8.4-8.1
			c1.3-1.8,2.4-3.7,3.4-5.7c0-0.1,0.1-0.2,0.3-0.2L180.5,295.2L180.5,295.2z"/>
		<path class="st0" d="M170,275.7h-14.9v-13h0.2h11.4c0.1,0,0.2,0.1,0.2,0.2c1.1,2.4,1.9,5,2.4,7.6c0.3,1.4,0.5,2.7,0.6,4.1
			C169.9,275,169.9,275.3,170,275.7z"/>
		<path class="st0" d="M169.9,279.2c0,0.3,0,0.6,0,0.9c-0.1,0.7-0.1,1.5-0.2,2.2c-0.1,1-0.3,2-0.5,3c-0.4,2.2-1.1,4.3-1.9,6.3
			c0,0.1-0.1,0.2-0.3,0.2h-12v-12.6H169.9z"/>
		<path class="st0" d="M151.7,262.8v13h-14.5c0-0.3,0-0.7,0.1-1c0.1-0.7,0.1-1.5,0.2-2.2c0.2-1.1,0.4-2.2,0.6-3.3
			c0.5-2.2,1.2-4.4,2.1-6.4c0-0.1,0.1-0.2,0.2-0.2L151.7,262.8L151.7,262.8z"/>
		<path class="st0" d="M151.7,279.4c0,4.1,0,8.2,0,12.2v0.2h-11.6c-0.1,0-0.2-0.1-0.3-0.2c-0.9-2.1-1.5-4.3-2-6.6
			c-0.2-1.2-0.4-2.3-0.5-3.5c-0.1-0.8-0.1-1.5-0.2-2.3v-0.1h14.4C151.7,279.2,151.7,279.2,151.7,279.4z"/>
		<path class="st0" d="M185.7,275.8h-12.2c-0.2-4.5-1.2-8.9-2.8-13.1h11.4c0.1,0,0.2,0.1,0.3,0.2c1.3,2.6,2.2,5.3,2.8,8.2
			c0.3,1.5,0.5,3,0.6,4.6L185.7,275.8z"/>
		<path class="st0" d="M185.7,279.1c0,0.3,0,0.6,0,0.9c-0.1,1.1-0.2,2.2-0.4,3.3c-0.5,2.5-1.2,5-2.2,7.3c-0.2,0.4-0.3,0.7-0.5,1.1
			c0,0.1-0.1,0.1-0.2,0.1H171c0.1-0.4,0.3-0.8,0.4-1.1c0.7-1.9,1.2-3.9,1.5-5.9c0.3-1.5,0.4-2.9,0.5-4.4c0-0.4,0-0.7,0.1-1.1
			c0-0.1,0-0.1,0.1-0.1h0.1L185.7,279.1z"/>
		<path class="st0" d="M180.2,259.4L180.2,259.4l-0.2,0.1c-3.6,0-7.1,0-10.7,0c-0.1,0-0.2,0-0.3-0.2c-1.4-2.8-3.2-5.5-5.3-7.8
			c-1.2-1.4-2.6-2.6-4.1-3.7c-0.7-0.6-1.5-1.1-2.2-1.6l-0.1-0.1l0.1-0.1c0-0.1,0-0.1-0.1-0.2c3.8,0.4,7.4,1.5,10.8,3.2
			C173.1,251.3,177.2,254.9,180.2,259.4z"/>
		<path class="st0" d="M149.7,309.3c-0.1,0-0.2,0-0.3,0c-1.2-0.2-2.3-0.4-3.5-0.7c-2.1-0.5-4.2-1.3-6.2-2.3
			c-2.3-1.1-4.4-2.5-6.3-4.1c-1.4-1.1-2.6-2.4-3.8-3.8c-0.9-1-1.6-2.1-2.4-3.3V295h0.2c3.3,0,6.6,0,9.9,0c0.1,0,0.2,0.1,0.2,0.2
			c1,2.1,2.3,4.1,3.7,5.9c1.3,1.7,2.7,3.3,4.3,4.7C146.7,307.1,148.1,308.2,149.7,309.3L149.7,309.3z"/>
		<path class="st0" d="M149.5,246c-0.5,0.3-1,0.7-1.5,1.1c-1.7,1.3-3.3,2.8-4.8,4.5c-2,2.2-3.7,4.6-5,7.2c-0.1,0.2-0.2,0.3-0.3,0.5
			c0,0.1-0.1,0.1-0.2,0.1c-0.2,0-0.4,0-0.5,0h-9.7c5.4-7.6,12.7-12.2,21.9-13.6c0,0,0,0.1-0.1,0.1L149.5,246z"/>
		<path class="st0" d="M165.5,295.2c-1.4,2.4-3,4.6-4.9,6.6c-1.7,1.8-3.6,3.4-5.6,4.8v-11.4H165.5z"/>
		<path class="st0" d="M151.7,295.2v11.2c-4.2-2.9-7.7-6.7-10.1-11.2H151.7z"/>
		<path class="st0" d="M165.2,259.4h-10.1v-10.6c2.1,1.4,4,2.9,5.7,4.8C162.4,255.3,163.9,257.2,165.2,259.4z"/>
		<path class="st0" d="M151.7,249v10.4H142C144.4,255.3,147.7,251.7,151.7,249z"/>
	</g>
	<g>
		<rect x="235.5" y="336.9" class="st2" width="68.5" height="28.3"/>
		<polygon class="st2" points="292.3,365.2 303.9,377.1 303.9,365.2 		"/>
		<rect x="246" y="342.9" class="st1" width="36.9" height="1.2"/>
		<rect x="246" y="346.7" class="st1" width="46.9" height="1.2"/>
		<rect x="246" y="350.4" class="st1" width="34.1" height="1.2"/>
		<rect x="246" y="354.2" class="st1" width="42.9" height="1.2"/>
		<rect x="246" y="357.9" class="st1" width="28.1" height="1.2"/>
	</g>
</g>
<g id="freepik--Mobile--inject-71">
	<path class="st6" d="M654.1,197.8H565c-5,0.1-9,4.2-9,9.2v183.4c0,5,4,9.1,9,9.2h89.1c5-0.1,9-4.2,9-9.2V207
		C663.1,202,659.1,197.9,654.1,197.8z M657.5,384.7c0,4.8-3.6,8.7-8.1,8.7h-79.7c-4.5,0-8.1-3.9-8.1-8.7V213.9
		c0-9.8,3.6-10.3,8.1-10.3h16c0.9,0,1.7,1,1.7,2.4v0.6c0,3.1,1.7,3.1,3.7,3.1H628c2.1,0,3.7,0,3.7-3.1V206c0-1.3,0.8-2.4,1.7-2.4h16
		c4.5,0,8.1,1.3,8.1,10.3V384.7z"/>
	<path class="st1" d="M614.6,205.8h-10.1c-0.3,0-0.6-0.3-0.6-0.6l0,0c0-0.3,0.3-0.6,0.6-0.6h10.1c0.3,0,0.6,0.3,0.6,0.6l0,0
		C615.2,205.5,614.9,205.8,614.6,205.8z"/>
	<path class="st1" d="M657.5,213.9v170.8c0,4.8-3.6,8.7-8.1,8.7h-79.7c-4.5,0-8.1-3.9-8.1-8.7V213.9c0-9.8,3.6-10.3,8.1-10.3h16
		c0.9,0,1.7,1,1.7,2.4v0.6c0,3.1,1.7,3.1,3.7,3.1H628c2.1,0,3.7,0,3.7-3.1V206c0-1.3,0.8-2.4,1.7-2.4h16
		C653.9,203.6,657.5,204.9,657.5,213.9z"/>
	<path class="st9" d="M657.5,213.9v12.7h-95.9v-12.7c0-9.8,3.6-10.3,8.1-10.3h16c0.9,0,1.7,1,1.7,2.4v0.6c0,3.1,1.7,3.1,3.7,3.1H628
		c2.1,0,3.7,0,3.7-3.1V206c0-1.3,0.8-2.4,1.7-2.4h16C653.9,203.6,657.5,204.9,657.5,213.9z"/>
	<polygon class="st1" points="570.7,220.4 567.9,217.8 570.7,215.1 571.2,215.6 568.8,217.8 571.2,220 	"/>
	<path class="st1" d="M648.8,220.7h-2V220c0,0,0-0.1-0.1-0.1l-0.2-0.1h-0.1l-0.6,0.4l-1-1.7l0.6-0.4V218v-0.2v-0.1l-0.6-0.4l1-1.7
		l0.6,0.4h0.1l0.2-0.1l0.1-0.1v-0.7h2v0.7c0,0,0,0.1,0.1,0.1l0.2,0.1h0.1l0.6-0.4l1,1.7l-0.6,0.4v0.1v0.2v0.1l0.6,0.4l-1,1.7
		l-0.6-0.4h-0.1l-0.2,0.1l-0.1,0.1V220.7z M647.3,220.2h1V220c0-0.2,0.1-0.4,0.3-0.5c0.1,0,0.1-0.1,0.2-0.1c0.2-0.1,0.4-0.1,0.6,0
		l0.2,0.1l0.5-0.9l-0.2-0.1c-0.2-0.1-0.3-0.3-0.3-0.6v-0.2c0-0.2,0.1-0.4,0.3-0.6l0.2-0.1l-0.5-0.9l-0.2,0.1c-0.2,0.1-0.4,0.1-0.6,0
		l-0.2-0.1c-0.2-0.1-0.3-0.3-0.3-0.5v-0.2h-1v0.2c0,0.2-0.1,0.4-0.3,0.5c-0.1,0-0.1,0.1-0.2,0.1c-0.2,0.1-0.4,0.1-0.6,0l-0.2-0.1
		l-0.5,0.9l0.2,0.1c0.2,0.1,0.3,0.3,0.3,0.6v0.2c0,0.2-0.1,0.4-0.3,0.6l-0.2,0.1l0.5,0.9l0.2-0.1c0.2-0.1,0.4-0.1,0.6,0
		c0.1,0,0.1,0.1,0.2,0.1c0.2,0.1,0.3,0.3,0.3,0.5V220.2z M647.8,219.3c-0.8,0-1.5-0.7-1.5-1.5s0.7-1.5,1.5-1.5s1.5,0.7,1.5,1.5l0,0
		C649.3,218.6,648.7,219.3,647.8,219.3z M647.8,216.8c-0.6,0-1,0.4-1,1s0.4,1,1,1s1-0.4,1-1C648.8,217.3,648.4,216.8,647.8,216.8
		L647.8,216.8z"/>
	<g id="freepik--u5Zjqx--inject-71">
		<path class="st1" d="M582.9,207.4l-0.2,0.2l-0.1,0.1c-0.8-0.8-2.1-0.8-3,0l0,0l-0.1-0.1l-0.2-0.1l0,0c0.1-0.1,0.1-0.1,0.2-0.2
			c0.1-0.1,0.3-0.2,0.5-0.3s0.4-0.2,0.6-0.2h0.3h0.5c0.2,0,0.4,0.1,0.5,0.1s0.3,0.1,0.4,0.2c0.1,0.1,0.2,0.1,0.4,0.2L582.9,207.4
			L582.9,207.4z"/>
		<path class="st1" d="M580.2,208.2L580,208c0.7-0.7,1.8-0.7,2.5,0l0,0l-0.2,0.3C581.6,207.6,580.8,207.6,580.2,208.2L580.2,208.2z"
			/>
		<path class="st1" d="M582,208.4l-0.2,0.3c-0.3-0.3-0.7-0.3-1,0l0,0l-0.2-0.3C580.9,208,581.6,208,582,208.4z"/>
		<path class="st1" d="M581.4,208.9c0,0.1-0.1,0.2-0.2,0.2c-0.1,0-0.2-0.1-0.2-0.2s0.1-0.2,0.2-0.2l0,0
			C581.3,208.7,581.4,208.8,581.4,208.9L581.4,208.9z"/>
	</g>
	<path class="st1" d="M567.9,207.9c0-0.3,0.3-0.6,0.6-0.6l0,0c0.3,0,0.6,0.3,0.6,0.6c0,0.4-0.3,0.6-0.6,0.6l0,0
		C568.2,208.6,567.9,208.3,567.9,207.9z"/>
	<path class="st1" d="M569.9,207.9c0-0.3,0.3-0.6,0.6-0.6l0,0c0.3,0,0.6,0.3,0.6,0.6c0,0.4-0.3,0.6-0.6,0.6l0,0
		C570.2,208.6,569.9,208.3,569.9,207.9z"/>
	<path class="st1" d="M571.9,207.9c0-0.4,0.4-0.6,0.7-0.6s0.5,0.3,0.6,0.6c0,0.4-0.2,0.7-0.6,0.7
		C572.2,208.6,571.9,208.4,571.9,207.9C571.9,208,571.9,208,571.9,207.9z"/>
	<path class="st1" d="M573.9,207.9c0-0.4,0.3-0.6,0.6-0.6s0.6,0.3,0.6,0.6c0,0.4-0.3,0.6-0.6,0.6S573.9,208.3,573.9,207.9
		L573.9,207.9z"/>
	<path class="st1" d="M575.9,207.9c0-0.3,0.3-0.6,0.6-0.6s0.6,0.3,0.6,0.6l0,0c0,0.3-0.3,0.6-0.6,0.6
		C576.2,208.6,575.9,208.3,575.9,207.9L575.9,207.9z"/>
	<path class="st1" d="M650.3,209.3h-5.2v-2.4h5.2V209.3z M645.4,209.1h4.7v-1.9h-4.7V209.1z"/>
	<rect x="645.6" y="207.3" class="st1" width="3.3" height="1.6"/>
	<rect x="650.3" y="207.5" class="st1" width="0.5" height="1.3"/>
	<polygon class="st0" points="576.2,383 575.5,383 575.5,386.4 574.1,386.4 574.1,384.6 571.7,384.6 571.7,386.4 570.3,386.4 
		570.3,383 569.6,383 572.9,379.6 	"/>
	<rect x="641.6" y="379.6" class="st0" width="8" height="1.1"/>
	<rect x="641.6" y="382.4" class="st0" width="8" height="1.1"/>
	<rect x="641.6" y="385.2" class="st0" width="8" height="1.1"/>
	<path class="st2" d="M576,243.4c-1.7,1.1-3.9,1.1-5.6,0c-2.5-1.6-3.3-4.9-1.7-7.4s4.9-3.3,7.4-1.7s3.3,4.9,1.7,7.4
		C577.3,242.4,576.8,243,576,243.4z"/>
	<path class="st1" d="M574.9,238.3c0,0.9-0.7,1.6-1.6,1.6c-0.9,0-1.6-0.7-1.6-1.6s0.7-1.6,1.6-1.6l0,0
		C574.1,236.7,574.9,237.4,574.9,238.3z"/>
	<path class="st1" d="M576,242.8v0.7c-1.7,1.1-3.9,1.1-5.6,0v-0.7c0.1-1.6,1.4-2.7,3-2.6C574.8,240.2,576,241.3,576,242.8z"/>
	<rect x="585.3" y="233.9" class="st0" width="34" height="2.8"/>
	<rect x="585.3" y="238.5" class="st0" width="29.7" height="1.9"/>
	<rect x="585.3" y="242.1" class="st0" width="49.1" height="1.9"/>
	<rect x="561.6" y="248.7" class="st0" width="95.9" height="67.1"/>
	<path class="st2" d="M572.8,267.8c0,4.4,3.6,7.9,7.9,7.9s7.9-3.6,7.9-7.9s-3.6-7.9-7.9-7.9S572.8,263.4,572.8,267.8L572.8,267.8z"
		/>
	<polygon class="st3" points="604.2,301.3 657.5,301.3 630.8,265.2 	"/>
	<polygon class="st2" points="583.3,301.4 627.3,301.4 605.3,277.8 	"/>
	<rect x="561.6" y="301.3" class="st2" width="95.9" height="14.5"/>
	<path class="st2" d="M576,351.2c-1.7,1.1-3.9,1.1-5.6,0c-2.5-1.6-3.3-4.9-1.7-7.4s4.9-3.3,7.4-1.7s3.3,4.9,1.7,7.4
		C577.3,350.2,576.8,350.7,576,351.2z"/>
	<circle class="st1" cx="573.2" cy="346" r="1.6"/>
	<path class="st1" d="M576,350.5v0.7c-1.7,1.1-3.9,1.1-5.6,0v-0.7c0.1-1.6,1.4-2.7,3-2.6C574.8,347.9,576,349.1,576,350.5z"/>
	<rect x="585.3" y="341.6" class="st0" width="43.7" height="2.8"/>
	<rect x="585.3" y="346.3" class="st0" width="55.8" height="1.9"/>
	<rect x="585.3" y="349.8" class="st0" width="19" height="1.9"/>
	<rect x="561.6" y="356.4" class="st0" width="95.8" height="16.4"/>
	<path class="st2" d="M588.3,372.8h-14.9c1.5-4.1,6-6.3,10.1-4.8C585.7,368.8,587.5,370.6,588.3,372.8z"/>
	<path class="st0" d="M568.1,323.6c-0.4-1.7,0.6-3.4,2.3-3.8s3.4,0.6,3.8,2.3c0.4,1.7-0.6,3.4-2.3,3.8
		C570.2,326.4,568.5,325.4,568.1,323.6C568.1,323.7,568.1,323.7,568.1,323.6z"/>
	<g id="freepik--xsrjP0--inject-71">
		<path class="st11" d="M570.7,324.2c-0.1,0-0.2-0.1-0.3-0.1s0,0,0,0v-1.3c0,0,0,0,0-0.1c0.3-0.2,0.5-0.5,0.7-0.8s0.3-0.6,0.2-1
			c0-0.1,0-0.1,0.1-0.1s0.2,0,0.2,0.1c0.1,0.2,0.2,0.4,0.2,0.6s0,0.3,0,0.5c0,0.1,0,0.2-0.1,0.4s0.1,0,0.1,0h1.1
			c0.2,0,0.2,0,0.3,0.1c0,0.1,0,0.3-0.2,0.3h-0.1c0,0,0,0,0.1,0s0.1,0.3,0,0.4s-0.1,0-0.1,0.1s0.1,0,0.1,0.1c0.1,0.1,0.1,0.3,0,0.3
			c0,0,0,0-0.1,0h-0.1l0,0c0.1,0,0.1,0.2,0.1,0.3l-0.1,0.1l0,0c-0.1,0-0.1,0-0.2,0H571C571,324.2,570.9,324.2,570.7,324.2
			C570.8,324.2,570.8,324.2,570.7,324.2z"/>
		<path class="st11" d="M569.1,323.4c0-0.3,0-0.5,0-0.8c0,0,0-0.1,0.1-0.1c0.3,0,0.7,0,1,0c0.1,0,0.1,0,0.1,0.1v1.6
			c0,0.1,0,0.1-0.1,0.1h-1c-0.1,0-0.1,0-0.1-0.1C569.1,324,569.1,323.7,569.1,323.4z"/>
	</g>
	<path class="st4" d="M574.7,323.6c-0.4-1.7,0.6-3.4,2.3-3.8s3.4,0.6,3.8,2.3c0.4,1.7-0.6,3.4-2.3,3.8
		C576.9,326.4,575.2,325.4,574.7,323.6C574.7,323.7,574.7,323.7,574.7,323.6z"/>
	<path class="st1" d="M579.4,323.3c0,0.9-0.7,1.6-1.6,1.6c-0.9,0-1.6-0.7-1.6-1.6c-0.4-0.6-0.2-1.4,0.3-1.8c0,0,0.1-0.1,0.2-0.1
		c0.9-0.3,1.1,1.3,1.1,1.3s0.2-1.6,1.1-1.3C579.6,321.6,579.8,322.5,579.4,323.3z"/>
	<rect x="585.8" y="322.5" class="st0" width="45" height="1.8"/>
	<polygon class="st0" points="561.6,333.4 573.6,333.2 585.6,333.1 609.6,333 633.5,333.1 645.5,333.2 657.5,333.4 645.5,333.6 
		633.5,333.7 609.6,333.8 585.6,333.7 573.6,333.6 	"/>
</g>
<g>
	<g>
		<path class="st12" d="M495.1,274.7c0.2-0.5,0.5-0.9,0.8-1.4c0.5-0.8,1.3-1.9,2.2-3.1c0.9-1.2,1.7-2.2,2.3-3c0.3-0.4,0.7-0.8,1-1.2
			c-0.3,0.5-0.5,0.9-0.9,1.3l-2.2,3c-0.8,1.2-1.6,2.2-2.2,3C495.9,273.9,495.5,274.3,495.1,274.7z"/>
		<path class="st5" d="M470,277.7c0,0-1.6,2.1-1.6,6c0,2,1.4,6.2,5.1,6.4c-0.9,5.9,2.8,10.2,9.1,10.2s13.4-10.8,19.3-13.1l16.9-4.5
			c1.5-0.3,2.1-2.2,2-3.7c-0.1-1.5-0.4-3.1,0.1-4.5c0.7-2,3-3,3.8-5c0.9-2.2-0.5-4.7-2-6.4c-1.6-1.8-3.5-3.5-4-5.8
			c-0.5-2.1,0.3-4.5-0.7-6.4c-1.3-2.4-4.7-2.6-6.3-4.8c-0.7-1-1-2.4-1.8-3.5c-1.3-1.8-3.8-2.2-6-2s-4.3,1-6.5,1.2
			c-3.1,0.2-6.2-0.7-9.1,0.1c-3.2,0.9-5.2,3.8-7.3,6.6l-2.7,3.2c-0.5,0.5-1.2,1-1.8,1.5c-1.2,0.7-2.4,1.3-3.5,2.2
			c-2,2.2-2,5.6,0.2,7.6c0.1,0.1,0.1,0.1,0.1,0.1c-2.4,0.8-3.9,3.1-3.9,5.6c0,0-0.3,2.8,1.5,4.1C469.7,274,469.2,276.1,470,277.7z"
			/>
		<path class="st13" d="M493.6,317c-7-0.1-12.1-11.6-12.1-11.6l-0.5-39.2c-0.3-11.3,5.9-20.9,17.2-21l1,0.1
			c10.5,0.5,18.8,9.1,19.1,19.6c0.3,9.8,0.4,20.6,0.1,25.8c-0.7,10.8-11.6,11.9-11.6,11.9s-0.1,2.5-0.1,5.7
			C506.7,315.5,496.3,317.2,493.6,317L493.6,317z"/>
		<path class="st14" d="M506.7,302.6c-5-0.3-9.8-2-13.8-5c0,0,3,8.1,13.8,7.7V302.6z"/>
		<path class="st5" d="M512.7,274.2c-0.1,0.8-0.7,1.5-1.6,1.5c-0.8,0-1.5-0.6-1.5-1.4c0,0,0,0,0-0.1c0-0.8,0.7-1.5,1.6-1.5
			C512,272.7,512.7,273.3,512.7,274.2C512.7,274.2,512.7,274.2,512.7,274.2z"/>
		<path class="st5" d="M515.7,269.3c-0.2,0.2-1.4-0.7-3-0.8c-1.6-0.1-2.9,0.7-3.1,0.5c-0.1-0.1,0.1-0.5,0.7-0.8
			c0.7-0.5,1.6-0.7,2.5-0.6c0.9,0.1,1.7,0.3,2.4,0.9C515.6,268.9,515.7,269.2,515.7,269.3z"/>
		<path class="st5" d="M497.8,273.8c-0.1,0.8-0.7,1.5-1.6,1.5s-1.5-0.6-1.5-1.4c0,0,0,0,0-0.1c0-0.8,0.7-1.5,1.6-1.5
			C497.2,272.3,497.8,272.9,497.8,273.8L497.8,273.8z"/>
		<path class="st5" d="M499.3,269.1c-0.2,0.2-1.4-0.7-3-0.8c-1.6-0.1-2.9,0.7-3.1,0.5c-0.1-0.1,0.1-0.5,0.7-0.8
			c0.7-0.5,1.6-0.7,2.5-0.6s1.7,0.3,2.4,0.9C499.3,268.7,499.5,269,499.3,269.1z"/>
		<path class="st5" d="M504.6,282.2c0-0.1,1-0.2,2.7-0.3c0.4,0,0.8-0.1,0.9-0.3c0.1-0.4,0-0.9-0.2-1.3c-0.3-1-0.7-2.2-1.1-3.3
			c-1.5-4.7-2.6-8.5-2.4-8.6c0.2-0.1,1.6,3.7,3.1,8.4l1,3.3c0.2,0.5,0.3,1.2,0.1,1.7c-0.1,0.3-0.4,0.5-0.7,0.6
			c-0.3,0.1-0.5,0.1-0.7,0.1C505.7,282.4,504.6,282.3,504.6,282.2z"/>
		<path class="st5" d="M499.7,283.1c0.3,0,0.2,1.8,1.6,3.2c1.4,1.4,3.4,1.3,3.4,1.5c0,0.1-0.5,0.3-1.3,0.3c-1.1-0.1-2-0.5-2.8-1.2
			c-0.7-0.7-1.2-1.6-1.3-2.6C499.3,283.5,499.5,283.1,499.7,283.1z"/>
		<path class="st5" d="M499.6,262.4c-0.2,0.4-1.8,0.1-3.8,0.3s-3.6,0.6-3.8,0.1c-0.1-0.2,0.2-0.6,0.9-1c1.8-1,3.9-1.1,5.8-0.3
			C499.4,261.8,499.7,262.2,499.6,262.4z"/>
		<path class="st5" d="M515.3,263.8c-0.3,0.3-1.4-0.1-2.8-0.2c-1.4-0.1-2.6,0.1-2.8-0.3c-0.1-0.2,0.1-0.5,0.6-0.9
			c1.4-0.8,3.3-0.7,4.5,0.4C515.3,263.2,515.4,263.6,515.3,263.8z"/>
		<path class="st5" d="M513.6,252.7c1.2-0.7-2.4-4.6-5.3-6c-4.4-2.1-11.2-3.4-15.3-2.3c-5,1.4-9.1,3.7-11.7,8.2
			c-2.4,4.5-3.7,9.7-3.5,14.9c-0.1,1.6,0.3,3.1,1,4.5c1,1.6,3,2.7,2.8,5c-0.1,0.8,0.2,1.6,0.7,2.3c1.4,1.4,3,0.1,3.8-1.2
			c1.7-2.8,1.9-6.4,2.1-9.6c0.1-2.4,0.3-4.7-0.4-7.1c-0.3-1.2-0.9-2.4-1.2-3.7c-0.3-1.3-0.1-2.6,0.6-3.7c0.2-0.2,0.4-0.4,0.6-0.6
			c2.1-1.8,5.1-2.3,7.7-1.4c4.1,1.6,11.3,3.8,13.2,2.4c2.7-2,3.4-3.3,3.4-3.3L513.6,252.7z"/>
		<path class="st5" d="M493.4,243.4c4.1-1.4,8.6-1.1,12.5,0.9c2,1.1,3.8,2.8,4.4,5c0.6,2.2-0.4,4.9-2.5,5.7l-0.1,0.1
			c-3.2,1-5.2,0.6-8.3-0.5c-2.6-0.9-5-2.6-7.6-3.5c-2.8-1-5.9-1.2-8.8-0.4C485.7,247.2,489.3,244.8,493.4,243.4z"/>
		<path class="st6" d="M479.3,250.7c0.1,0.1,0.7-0.7,1.9-1.5c0.7-0.5,1.4-0.9,2.2-1.2c0.9-0.4,2-0.5,3-0.5c1.9,0.2,3.7,0.9,5.2,2.1
			c1.2,0.9,1.7,1.7,1.8,1.6c0.1-0.1-0.1-0.2-0.3-0.5c-0.3-0.5-0.7-0.9-1.2-1.3c-1.5-1.4-3.4-2.2-5.4-2.4c-1.1-0.1-2.2,0.1-3.3,0.6
			c-0.8,0.3-1.6,0.8-2.3,1.4C480.3,249.4,479.7,250,479.3,250.7z"/>
		<path class="st6" d="M501.8,242.7c0.6,0.3,1.3,0.5,2,0.7c3.1,1.2,5.8,3.5,7.6,6.2c0.3,0.6,0.7,1.2,1.1,1.8c-0.1-0.7-0.4-1.4-0.8-2
			c-0.8-1.5-2-2.8-3.3-3.9c-1.4-1.1-2.8-2-4.5-2.5C503.3,242.8,502.6,242.7,501.8,242.7z"/>
		<path class="st6" d="M471.1,269.5c0,0,0.3,0.1,0.7,0.3c0.7,0.2,1.4,0.2,2,0.1c1-0.1,2-0.5,2.8-0.9c1-0.5,2.1-1.3,3.3-2
			c1.1-0.7,2.3-1.2,3.6-1.4c1-0.1,2.1,0.1,3.1,0.5c0.6,0.3,1.2,0.9,1.4,1.6c0.1,0.2,0.1,0.3,0.2,0.5c0,0.1,0,0.1,0,0.2
			c0,0-0.1-0.3-0.3-0.7c-0.3-0.6-0.9-1.1-1.5-1.4c-0.9-0.5-1.9-0.7-2.9-0.5c-1.2,0.2-2.4,0.7-3.5,1.4c-1.2,0.7-2.2,1.4-3.3,1.9
			c-0.9,0.5-1.9,0.8-3,0.9c-0.7,0.1-1.4,0-2.1-0.2c-0.1-0.1-0.3-0.1-0.5-0.2C471.3,269.5,471.2,269.5,471.1,269.5z"/>
		<path class="st6" d="M471.6,272.8c0.8,0.2,1.6,0.2,2.4,0.1c0.9-0.1,1.8-0.3,2.6-0.6c0.9-0.3,2-0.7,3.1-1.2c1-0.4,2.2-0.6,3.3-0.7
			c0.9-0.1,1.8,0.1,2.7,0.5c0.5,0.3,1.1,0.6,1.5,1.1c0.1,0.1,0.2,0.3,0.3,0.4c0.1,0.1,0.1,0.1,0.1,0.1s-0.1-0.2-0.4-0.5
			c-0.4-0.4-0.9-0.7-1.5-1c-0.8-0.3-1.7-0.5-2.6-0.4c-1.1,0.1-2.2,0.3-3.2,0.7c-1.1,0.4-2.1,0.8-3.1,1.2c-0.9,0.3-1.8,0.5-2.6,0.6
			c-0.6,0.1-1.2,0-1.8-0.1c-0.2-0.1-0.3-0.1-0.5-0.1C471.7,272.8,471.6,272.8,471.6,272.8z"/>
		<path class="st6" d="M521.9,266.1c0,0.2-0.1,0.5-0.3,0.7c-0.3,0.5-0.7,0.9-1.2,1.2s-1,0.5-1.6,0.6c-0.2,0.1-0.5,0.1-0.7,0
			c0.7-0.1,1.4-0.4,2.1-0.7C521,267.2,521.5,266.7,521.9,266.1z"/>
		<path class="st6" d="M523.7,270c-0.1,0.3-0.1,0.7-0.3,0.9c-0.9,1.5-2.4,2.4-4.1,2.6c-0.3,0.1-0.7,0-1-0.1c0-0.1,0.4,0,1-0.1
			c1.6-0.3,3.1-1.2,3.9-2.5C523.5,270.4,523.6,270,523.7,270z"/>
	</g>
	<path class="st5" d="M527.4,407.1l-62.7,0.9c0,0-17.5-7.3-22.3-7.5c-4.8-0.2-14.4,0.4-18.8,7.5c-4.6,7.4-5.2,20.3,8.9,29.8
		c13.7,9.2,76.4,17.7,85,16.9l15.8-21.3c0,0,0.2-17.4,0-18.3c-0.2-0.8-2.8-8.3-2.8-8.3L527.4,407.1z"/>
	<path class="st9" d="M489.9,436.6l-32.5,12.1l14.8,40.5c3.8-1.7,3.9-25.4,3.9-25.4l21.1-6.9L489.9,436.6z"/>
	<g class="st15">
		<path class="st1" d="M473.3,450.5c-0.5-0.7-1.5-0.9-2.3-0.5c-0.7,0.5-0.9,1.5-0.5,2.3c0.6,0.8,1.6,1,2.4,0.5
			c0.7-0.6,0.8-1.7,0.2-2.4"/>
	</g>
	<path class="st5" d="M457.4,448.6l3.3-1.2l13,39.3c0,0-0.1,2.1-1.5,2.4L457.4,448.6z"/>
	<path class="st5" d="M476.5,464.3c-0.2,0.1-0.6-0.9-1.6-1.6c-1-0.7-2-1-2-1.2s1.3-0.3,2.4,0.6S476.7,464.2,476.5,464.3z"/>
	<path class="st5" d="M476.3,469.1c-0.2,0.1-0.8-0.6-1.9-1s-2-0.2-2.1-0.4s1-0.7,2.4-0.3S476.5,469.1,476.3,469.1z"/>
	<path class="st5" d="M472.1,473.4c-0.1-0.2,0.8-0.8,2-0.7c1.3,0.1,2,0.9,1.9,1s-0.9-0.2-2-0.3C473,473.4,472.2,473.6,472.1,473.4z"
		/>
	<path class="st5" d="M481.2,462.1c-0.2,0-0.3-1-0.8-2.1c-0.5-1.1-1.2-1.8-1-2s1.1,0.4,1.7,1.7C481.7,461,481.4,462.2,481.2,462.1z"
		/>
	<path class="st5" d="M485.6,459.4c-0.4-0.6-0.7-1.3-0.7-2c-0.1-0.8-0.2-1.6-0.1-2.4c0-0.5,0.1-0.9,0.2-1.4c0-0.3,0.1-0.5,0.3-0.8
		c0.2-0.4,0.6-0.6,1-0.5c0.4,0.1,0.6,0.4,0.8,0.7c0.1,0.3,0.2,0.5,0.2,0.8c0.1,1.3,0,2.5-0.5,3.7c-0.5,1.3-1.1,1.9-1.2,1.8
		c-0.1-0.1,0.4-0.8,0.7-2c0.2-0.7,0.3-1.4,0.4-2.2c0-0.4,0-0.9-0.1-1.3c0-0.5-0.2-0.8-0.4-0.9s-0.1,0-0.2,0.1
		c-0.1,0.2-0.1,0.4-0.2,0.6c-0.1,0.4-0.1,0.9-0.2,1.3c-0.1,0.7-0.1,1.5,0,2.2C485.6,458,485.6,458.7,485.6,459.4z"/>
	<path class="st5" d="M485.2,459.3c0-0.1,0.5-0.7,1.8-1.3c0.7-0.3,1.5-0.5,2.3-0.5c0.5,0,1,0,1.4,0.1c0.6,0,1.2,0.4,1.5,0.9
		c0.1,0.4,0,0.8-0.3,1c-0.2,0.2-0.4,0.4-0.7,0.5c-0.4,0.2-0.9,0.4-1.4,0.5c-0.8,0.2-1.6,0.1-2.4-0.1c-1.3-0.4-1.9-1.1-1.8-1.2
		c0.6,0.3,1.3,0.5,1.9,0.7c0.7,0.1,1.4,0.1,2.1-0.1c0.4-0.1,0.8-0.3,1.1-0.5c0.4-0.2,0.7-0.5,0.6-0.7c-0.1-0.1-0.5-0.4-0.9-0.5
		c-0.4-0.1-0.9-0.1-1.3-0.1c-0.7,0-1.5,0.1-2.2,0.3C486,458.9,485.3,459.4,485.2,459.3z"/>
	<path class="st9" d="M516.7,431.6l31.4,14.5l-17.9,39.2c-3.6-1.9-1.9-25.6-1.9-25.6l-20.5-8.5L516.7,431.6z"/>
	<g class="st15">
		<path class="st1" d="M532.1,446.8c0.6-0.7,1.6-0.8,2.3-0.3c0.7,0.6,0.8,1.6,0.3,2.3c-0.6,0.7-1.7,0.8-2.5,0.3
			c-0.7-0.7-0.7-1.8,0-2.4"/>
	</g>
	<path class="st5" d="M548.1,446.1l-3.2-1.5l-16,38.2c0,0,0,2.1,1.3,2.5L548.1,446.1z"/>
	<path class="st5" d="M527.8,460.2c0.2,0.1,0.7-0.8,1.8-1.5s2.1-0.8,2.1-1s-1.2-0.4-2.5,0.4S527.6,460.2,527.8,460.2z"/>
	<path class="st5" d="M527.6,465.1c0.2,0.1,0.9-0.5,2-0.8s2-0.1,2.1-0.3s-1-0.8-2.3-0.4S527.5,465,527.6,465.1z"/>
	<path class="st5" d="M531.5,469.7c0.1-0.1-0.7-0.9-2-0.8s-2.1,0.7-2,0.9c0.1,0.2,0.9-0.1,2-0.1S531.3,469.9,531.5,469.7z"/>
	<path class="st5" d="M523.3,457.8c0.2,0,0.3-1,0.9-2s1.3-1.7,1.2-1.9s-1.2,0.3-1.8,1.6C522.9,456.7,523.1,457.8,523.3,457.8z"/>
	<path class="st5" d="M519.1,454.7c0.1,0,0.5-0.7,0.9-2c0.2-0.8,0.3-1.6,0.3-2.4c0-0.5,0-0.9-0.1-1.4c0-0.3-0.1-0.5-0.2-0.8
		c-0.2-0.4-0.6-0.6-1-0.5c-0.4,0.1-0.7,0.3-0.8,0.6c-0.1,0.3-0.2,0.5-0.2,0.8c-0.1,0.5-0.1,0.9-0.1,1.4c0,0.8,0.1,1.6,0.4,2.4
		c0.4,1.3,1,1.9,1.1,1.9s-0.3-0.8-0.6-2c-0.2-0.7-0.2-1.5-0.2-2.2c0-0.4,0.1-0.9,0.2-1.3c0.1-0.5,0.2-0.8,0.5-0.8s0.1,0,0.2,0.1
		c0.1,0.2,0.1,0.4,0.1,0.6c0.1,0.4,0.1,0.9,0.1,1.3c0,0.7,0,1.5-0.1,2.2C519.3,453.3,519.2,454,519.1,454.7z"/>
	<path class="st5" d="M519.5,454.6c0.1-0.1-0.5-0.8-1.7-1.4c-0.7-0.4-1.5-0.6-2.3-0.7c-0.5-0.1-0.9-0.1-1.4,0
		c-0.6,0-1.2,0.3-1.6,0.8c-0.2,0.4-0.1,0.8,0.2,1.1c0.2,0.2,0.4,0.4,0.6,0.5c0.4,0.3,0.9,0.5,1.3,0.6c0.8,0.2,1.6,0.3,2.4,0.1
		c1.4-0.3,2-1,1.9-1c-0.7,0.2-1.3,0.4-2,0.5c-0.7,0.1-1.4,0-2.1-0.2c-0.4-0.1-0.8-0.3-1.1-0.5c-0.4-0.3-0.7-0.6-0.5-0.7
		c0.3-0.3,0.6-0.4,1-0.4c0.4,0,0.9,0,1.3,0c0.7,0.1,1.5,0.2,2.1,0.5C518.8,454.1,519.4,454.7,519.5,454.6z"/>
	<path class="st5" d="M530.5,406.8c0,0,27.1-10.1,37-8.8c5.6,0.7,14.3,5,14.9,12.1c0.7,7.1-1.1,16.7-10.7,21.3
		c-9.6,4.6-48.1,21.9-57.2,24.5s-31.9,8.9-31.9,8.9l-8.6-24.6c0,0,47.2-16.3,49.7-18.1s8.8-4.3,8.8-4.3L530.5,406.8z"/>
	<path class="st6" d="M436.5,410.2l0.2,0l0.5-0.2c0.5-0.1,1.2-0.4,2.1-0.6c1.1-0.3,2.2-0.5,3.4-0.6c1.5-0.1,3-0.1,4.5,0
		c1.8,0.1,3.7,0.5,5.4,1c1,0.3,1.9,0.7,2.9,1.1l2.9,1.4c4.1,1.9,8.6,3.9,13.4,5.8c9.6,3.9,18.9,5.7,25.5,7.2c3.3,0.7,6,1.3,7.8,1.8
		l2.1,0.5l0.6,0.1c0.1,0,0.2,0,0.2,0l-0.2-0.1l-0.5-0.1c-0.5-0.1-1.2-0.3-2.1-0.6c-1.8-0.5-4.5-1.1-7.8-1.9
		c-6.6-1.5-15.8-3.4-25.4-7.3c-4.8-1.9-9.3-3.9-13.4-5.8l-3-1.4c-0.9-0.5-1.9-0.8-2.9-1.1c-1.8-0.5-3.6-0.9-5.5-1
		c-1.5-0.1-3.1-0.1-4.6,0c-1.1,0.1-2.3,0.3-3.4,0.6c-0.9,0.2-1.6,0.5-2.1,0.6l-0.5,0.2L436.5,410.2z"/>
	<path class="st6" d="M437.9,406.6c0,0,0.8-0.1,2.1-0.2c1.7-0.2,3.5-0.2,5.2-0.1c1.7,0.1,3.5,0.3,5.1,0.7c1.3,0.3,2.1,0.5,2.1,0.5
		c-0.2-0.1-0.4-0.2-0.5-0.2c-0.4-0.1-0.9-0.3-1.5-0.4c-1.7-0.4-3.4-0.7-5.2-0.8c-1.7-0.1-3.5,0-5.2,0.2c-0.7,0.1-1.2,0.2-1.6,0.3
		C438.2,406.5,438,406.5,437.9,406.6z"/>
	<path class="st6" d="M541.9,414c0,0,0.8-0.5,2.1-1.3c1.7-1,3.5-1.9,5.4-2.6c1.9-0.7,3.8-1.1,5.8-1.4c1.5-0.2,2.5-0.2,2.5-0.3
		c-0.2,0-0.4,0-0.7,0c-0.4,0-1,0-1.8,0.1c-2,0.2-4,0.6-5.9,1.3c-1.9,0.7-3.7,1.6-5.4,2.7c-0.5,0.3-1,0.7-1.5,1.1
		C542.2,413.7,542,413.8,541.9,414z"/>
	<path class="st6" d="M528.3,450.7l-0.2,0.1c-0.1,0.1-0.4,0.1-0.6,0.3c-0.6,0.2-1.3,0.6-2.4,1c-2.1,0.8-5.2,2-9.2,3.3
		c-8,2.6-19.5,5.9-33.2,9.4l0.1,0.1c-2.6-7.1-5.4-15-8.4-23.2l-0.1,0.2l10.4-4.3L542,414l0,0c2.3-2.5,4.5-4.6,6.5-6.4
		c1.7-1.5,3.5-2.9,5.4-4.1c1.2-0.8,2.5-1.5,3.7-2.1l1-0.5l0.3-0.2l-0.3,0.1l-1,0.4c-1.3,0.6-2.5,1.3-3.8,2c-1.9,1.2-3.8,2.6-5.5,4.1
		c-2,1.8-4.2,3.9-6.5,6.4l0,0l-57.4,23.5l-10.4,4.3l-0.1,0v0.1c3,8.3,5.8,16.1,8.4,23.2v0.1h0.1c13.8-3.5,25.2-6.9,33.2-9.5
		c4-1.3,7.1-2.5,9.2-3.4c1-0.4,1.8-0.8,2.4-1l0.6-0.3L528.3,450.7z"/>
	<path class="st9" d="M475.7,309.9l6.1-3.5c0,0,5.6,6.5,13.1,5.7c4.7-0.6,9-3,12.1-6.6l22.6,4.6l0,0c1.5,0.3,4.3,1.3,6.9,5
		l-3.6,35.5l0,0l-1.7,59.4l-59.3-1.7l-12.3-91.1C459.7,317.2,475.1,309.9,475.7,309.9z"/>
	<path class="st5" d="M533.2,325.8c-0.1,0-0.2,7.4-0.3,16.4s-0.1,16.4,0,16.4s0.2-7.4,0.3-16.4C533.3,333.1,533.3,325.8,533.2,325.8
		z"/>
	<path class="st9" d="M459.7,317.2c0,0-8.1,4.7-9.8,10.2c-1,3.3-8.6,46.1-9.8,54.5c-1.2,8.4,1.3,14.7,4.9,17.5s14.5,6.5,14.5,6.5
		l15.3,5l4.4-11.2l-14.6-21l1.4-14.1L459.7,317.2z"/>
	<path class="st5" d="M452.5,373.7c0,0,0.5,0.1,1.4,0.3c1.3,0.2,2.5,0.6,3.7,1.2c1.7,0.8,3.4,1.8,4.9,3c1.8,1.4,3.6,3,5.1,4.8
		c1.7,1.8,3.2,3.6,4.7,5.3c1.3,1.4,2.6,2.8,4,4.1c0.9,0.9,1.9,1.7,3,2.4c0.4,0.3,0.7,0.4,0.9,0.6c0.1,0.1,0.2,0.1,0.3,0.2
		c-0.1-0.1-0.2-0.2-0.3-0.2c-0.2-0.1-0.5-0.3-0.9-0.6c-1-0.8-2-1.6-3-2.5c-1.2-1.1-2.5-2.5-4-4.1s-3-3.4-4.7-5.3
		c-1.6-1.7-3.3-3.3-5.2-4.8c-1.5-1.2-3.2-2.2-5-2.9c-1.2-0.5-2.5-0.9-3.7-1.1c-0.3-0.1-0.7-0.1-1-0.1
		C452.6,373.8,452.5,373.8,452.5,373.7z"/>
	<path class="st5" d="M451.2,369.7c0,0,0.9,0.2,2.3,0.6c3.7,1,7.1,3,9.7,5.8c1,1,1.5,1.8,1.6,1.8c-0.1-0.2-0.2-0.4-0.3-0.5
		c-0.3-0.5-0.7-0.9-1.1-1.4c-2.6-2.9-6-4.9-9.8-5.9c-0.6-0.1-1.1-0.2-1.7-0.3C451.6,369.7,451.4,369.7,451.2,369.7z"/>
	<path class="st9" d="M533.8,311.8c0,0,8.1,4.7,9.8,10.2c1,3.3,8.6,46.1,9.8,54.5s-1.3,14.7-4.9,17.5c-3.6,2.8-14.5,6.5-14.5,6.5
		l-15.3,5l-4.4-11.2l14.6-21l-1.4-14.1L533.8,311.8z"/>
	<path class="st5" d="M542.3,364.3c0,0-0.9,0.2-2.3,0.6c-3.7,1-7,3-9.7,5.8c-1,1.1-1.6,1.8-1.6,1.8c0.1-0.2,0.2-0.4,0.3-0.5
		c0.3-0.5,0.7-0.9,1.1-1.4c2.6-2.9,6-4.9,9.8-5.9c0.6-0.1,1.1-0.2,1.7-0.3C541.9,364.3,542.1,364.3,542.3,364.3z"/>
	<path class="st5" d="M504.5,307.8c0.4,0.4,0.9,0.8,1.4,1.1c0.7,0.6,1.2,1.3,1.3,1.2c-0.2-0.6-0.6-1.1-1.1-1.5
		C505.7,308.2,505.1,307.9,504.5,307.8z"/>
	<path class="st5" d="M498.4,311.4c-0.1,0.1,0.5,0.7,1,1.6c0.5,0.9,0.7,1.8,0.8,1.8c0-0.7-0.1-1.3-0.5-1.9
		C499.4,312.2,498.9,311.7,498.4,311.4z"/>
	<path class="st5" d="M487.8,315.1c0.3-0.6,0.5-1.2,0.7-1.8c0.3-0.6,0.5-1.2,0.6-1.8C488.3,312.6,487.9,313.8,487.8,315.1z"/>
	<path class="st5" d="M481,311.9c0.1,0,0.3-1,1-2.1s1.5-1.8,1.4-1.9c-0.7,0.4-1.3,1-1.7,1.7C481.3,310.3,481,311.1,481,311.9z"/>
	<path class="st5" d="M461.5,331.1c-0.1,0,0.9,8.1,2.2,18.1s2.5,18.1,2.5,18.1s-0.9-8.1-2.2-18.1S461.5,331.1,461.5,331.1z"/>
	<path class="st5" d="M518.6,405.4c-0.1-0.2-0.2-0.5-0.3-0.8c-0.2-0.5-0.5-1.3-0.9-2.2c-0.8-2-1.9-4.8-3.3-8.2v-0.1l0.1-0.1l14-20
		l0,0.1c0.1-1,0.1-2,0.2-3c0.4-5.5,1.1-10.6,1.8-15.3s1.3-8.9,1.8-12.4c0.5-3.5,0.8-6.4,1-8.4c0.1-1,0.1-1.8,0.2-2.3
		c0-0.3,0-0.5,0.1-0.8c0,0.3,0,0.5,0,0.8c0,0.5,0,1.3-0.1,2.3c-0.1,2-0.4,4.9-0.8,8.4c-0.4,3.5-1,7.8-1.6,12.5
		c-0.7,4.7-1.4,9.8-1.8,15.2c-0.1,1-0.1,2.1-0.2,3v0.1v0.1c-5.5,7.8-10.4,14.7-14.1,20v-0.2c1.3,3.4,2.4,6.2,3.1,8.2l0.8,2.2
		C518.5,404.9,518.6,405.2,518.6,405.4z"/>
	<g class="st16">
		<path d="M462.8,402.9c-2.5-1.2-3.1-4.5-3.4-7.3l-2.3-24.5c-0.4-3.8-0.5-8.2,2.2-11c2.5-2.5,6.4-2.6,9.9-2.6
			c21.7,0.1,40.9,0.7,62.6,0.8l-1.1,38L462.8,402.9z"/>
	</g>
	<path class="st12" d="M541.2,364.2l-2.3,44c-0.1,1.7-1.5,3-3.2,3l-70.1,0.1c-1.7,0-3.1-1.3-3.2-3l-2.7-43.2c-0.1-1.8,1.2-4.2,3-4.2
		h75.3c1.8-0.1,3.2,1.3,3.3,3.1C541.2,364.1,541.2,364.2,541.2,364.2z"/>
	<path class="st5" d="M541.2,364.2c0-0.1,0-0.1,0-0.2c0-0.2,0-0.3,0-0.5c-0.1-0.6-0.4-1.2-0.8-1.7c-0.3-0.4-0.7-0.6-1.2-0.8
		c-0.5-0.2-1.1-0.3-1.7-0.2h-4.3l-27.2,0h-40.3h-2.9c-0.5,0-1,0.1-1.5,0.4c-0.4,0.3-0.8,0.6-1.1,1.1c-0.6,0.8-0.9,1.8-0.9,2.8
		c0.1,1,0.1,2,0.2,3c0.2,4,0.5,8,0.7,12.1c0.5,8.2,1,16.8,1.6,25.5l0.1,1.6c0,0.5,0,1.1,0.1,1.6c0.2,1.1,1,2.1,2.1,2.5
		c0.5,0.2,1.1,0.3,1.6,0.2h4.8h12.6l23.8-0.1l21.5,0h6.2c0.4,0,0.8,0,1.2,0c0.8-0.1,1.6-0.5,2.1-1.2c0.5-0.6,0.8-1.4,0.8-2.2
		c0-0.8,0.1-1.5,0.1-2.3c0.1-1.5,0.1-3,0.2-4.4c0.6-11.5,1-20.7,1.4-27.1c0.2-3.2,0.3-5.7,0.4-7.4c0-0.8,0.1-1.5,0.1-1.9
		c0-0.4,0-0.7,0-0.7s0,0.2,0,0.7s-0.1,1.1-0.1,1.9c-0.1,1.7-0.2,4.2-0.4,7.4c-0.3,6.4-0.8,15.7-1.5,27.1c-0.1,1.4-0.2,2.9-0.2,4.4
		c0,0.8-0.1,1.5-0.1,2.3c0,0.8-0.2,1.5-0.7,2.1c-0.5,0.6-1.2,1-2,1.1c-0.4,0-0.8,0-1.2,0h-6.2h-21.5h-23.8h-12.6h-4.8
		c-0.5,0-1,0-1.5-0.2c-1-0.4-1.7-1.2-1.9-2.3c-0.1-0.5-0.1-1.1-0.1-1.6l-0.1-1.6c-0.5-8.7-1.1-17.3-1.6-25.5
		c-0.3-4.1-0.5-8.2-0.8-12.1l-0.2-3c0-1,0.3-1.9,0.8-2.7c0.5-0.8,1.3-1.3,2.3-1.3h2.9H506l27.2,0h4.3c0.6,0,1.1,0,1.7,0.2
		c1.1,0.4,1.8,1.3,2,2.5C541.2,363.9,541.2,364,541.2,364.2z"/>
	<path class="st1" d="M495.7,385.7c0,2.3,1.8,4.1,4.1,4.1c2.3,0,4.1-1.8,4.1-4.1c0-2.3-1.8-4.1-4.1-4.1
		C497.6,381.6,495.7,383.4,495.7,385.7L495.7,385.7z"/>
	<path class="st5" d="M495.7,385.7c0,0,0-0.4,0.2-1c0.2-0.9,0.8-1.7,1.5-2.2c0.5-0.4,1.1-0.6,1.7-0.7c2.2-0.4,4.3,1,4.7,3.2
		s-1,4.3-3.2,4.7c-0.5,0.1-1,0.1-1.5,0c-0.6-0.1-1.2-0.4-1.7-0.7c-0.7-0.5-1.3-1.3-1.5-2.2C495.7,386.1,495.8,385.7,495.7,385.7
		c0,0.1,0,0.2,0,0.2c0,0.3,0,0.5,0.1,0.8c0.4,1.6,1.6,2.8,3.3,3.2c0.8,0.1,1.5,0.1,2.3-0.2c2.2-0.8,3.3-3.3,2.5-5.5
		c-0.4-1.2-1.4-2.1-2.5-2.5c-0.7-0.3-1.5-0.3-2.3-0.2c-1.6,0.3-2.9,1.6-3.3,3.2c-0.1,0.2-0.1,0.5-0.1,0.8
		C495.7,385.5,495.7,385.6,495.7,385.7z"/>
	<path class="st5" d="M538.8,369.1c-0.1,0-0.4,7.4-0.8,16.5c-0.3,9.1-0.6,16.5-0.5,16.5c0.1,0,0.4-7.4,0.8-16.5
		C538.7,376.5,538.9,369.1,538.8,369.1z"/>
</g>
</svg>
