<?xml version="1.0" encoding="utf-8"?>
<!-- Generator: Adobe Illustrator 23.0.0, SVG Export Plug-In . SVG Version: 6.00 Build 0)  -->
<svg version="1.1" id="Layer_1" xmlns="http://www.w3.org/2000/svg" xmlns:xlink="http://www.w3.org/1999/xlink" x="0px" y="0px"
	 viewBox="0 0 500 500" style="enable-background:new 0 0 500 500;" xml:space="preserve">
<style type="text/css">
	.st0{fill:#F5F5F5;}
	.st1{fill:#FFFFFF;}
	.st2{fill:#E0E0E0;}
	.st3{fill:#263238;}
	.st4{fill:#455A64;}
	.st5{opacity:0.3;}
	.st6{fill:#407BFF;}
	.st7{fill:#FF725E;}
	.st8{fill:#FFBE9D;}
	.st9{fill:#EB996E;}
</style>
<g id="freepik--Documents--inject-266">
	<path class="st0" d="M370.3,176.8h103c5.8,0,10.5,4.7,10.5,10.5V298c0,5.8-4.7,10.5-10.5,10.5h-103c-5.8,0-10.5-4.7-10.5-10.5
		V187.4C359.8,181.5,364.5,176.8,370.3,176.8z"/>
	<path class="st1" d="M478.3,307.6L478.3,307.6V188.7h5.6v110.5C483.9,303.5,479.4,308,478.3,307.6z"/>
	<path class="st2" d="M370.4,176.8h102.8c5.9,0,10.6,4.7,10.6,10.6v1.3l0,0h-124l0,0v-1.3C359.8,181.6,364.6,176.8,370.4,176.8z"/>
	<path class="st2" d="M481.1,201.6L481.1,201.6c1.5,0,2.8,1.3,2.8,2.8v15.7c0,1.5-1.3,2.8-2.8,2.8l0,0c-1.5,0-2.8-1.3-2.8-2.8v-15.7
		C478.3,202.8,479.5,201.6,481.1,201.6z"/>
	<path class="st3" d="M472.9,308.6c0.1,0,0.2,0,0.3,0c0.2,0,0.5,0,1-0.1c4.7-0.6,8.4-4.1,9.4-8.7c0.2-1.5,0.3-2.9,0.2-4.4
		c0-12.4,0-30.5-0.1-52.8c0-11.1,0-23.4,0-36.4v-10c0-1.7,0-3.4,0-5.1c0.1-1.7,0-3.4-0.2-5.2c-0.6-3.5-2.9-6.4-6.1-7.9
		c-1.6-0.7-3.4-1.1-5.2-1h-5.5h-95.9c-1,0-2.1,0.2-3.1,0.5c-2,0.6-3.8,1.8-5.1,3.4c-1.3,1.6-2.2,3.5-2.4,5.6c-0.1,1-0.1,2.1-0.1,3.1
		v30.7c0,16,0,31.5,0,46.3c0,7.4,0,14.5,0,21.5c0,3.5,0,6.9,0,10.3c0.2,3.3,2,6.4,4.7,8.2c1.3,0.9,2.9,1.5,4.4,1.7
		c1.6,0.1,3.2,0.2,4.8,0.1h9.3h17.5l52.8,0.1H468h3.7L472.9,308.6l-1.2-0.1H468h-14.4l-52.8,0.1h-17.5H374c-1.6,0-3.2,0-4.8-0.1
		c-1.6-0.2-3.2-0.9-4.6-1.8c-2.9-1.9-4.7-5.1-4.9-8.5c-0.1-3.4,0-6.8,0-10.3c0-7,0-14.2,0-21.5c0-14.7,0-30.2,0-46.3v-24.3
		c0-2.1,0-4.1,0-6.2c0-1.1,0-2.1,0.1-3.2c0.1-1.1,0.4-2.1,0.9-3.1c0.4-1,1-1.9,1.7-2.7s1.5-1.5,2.4-2.1s1.9-1,2.9-1.4
		c1-0.3,2.1-0.5,3.2-0.5h95.9h5.5c1.8-0.1,3.7,0.3,5.3,1c3.3,1.5,5.7,4.6,6.4,8.2c0.1,0.9,0.2,1.8,0.2,2.7v2.6c0,1.7,0,3.4,0,5.1v10
		c0,13.1,0,25.3,0,36.4c0,22.3-0.1,40.3-0.1,52.8c0.1,1.5,0,3-0.2,4.4c-0.3,1.3-0.8,2.5-1.5,3.6c-1.8,2.8-4.7,4.7-8.1,5.1
		C473.4,308.6,472.9,308.6,472.9,308.6z"/>
	<rect x="367.7" y="194.5" class="st4" width="104.8" height="101.4"/>
	<g class="st5">
		<path d="M438.6,224.9c0,4.2-3.4,7.5-7.5,7.6c-4.2,0-7.5-3.4-7.6-7.5c0-4.2,3.4-7.5,7.5-7.6l0,0
			C435.2,217.4,438.6,220.8,438.6,224.9z"/>
	</g>
	<g class="st5">
		<path d="M464.4,202.5l-88.5-0.1c0.1-0.1-1,1-0.5,0.5v11.5c0,3.8,0,7.6,0,11.3c0,7.5,0,14.7,0,21.8c0,14.2,0,27.6,0.1,40v0.4h0.4
			l64.3-0.2l17.9-0.1l4.7-0.1h1.2h0.4l-21.5-36.8l-14.4,17.6L404.8,235l-28.5,52c0-12.2,0-25.5,0-39.5c0-7.1,0-14.4,0-21.8
			c0-3.7,0-7.5,0-11.3v-11l87.6-0.1c0.1,25.1,0.2,46,0.2,60.8c0.1,7.4,0.1,13.2,0.1,17.2c0,2,0,3.5,0,4.6c0,0.5,0,0.9,0,1.2
			c0,0.1,0,0.3,0,0.4c0-0.1,0-0.2,0-0.4c0-0.3,0-0.7,0-1.1c0-1.1,0-2.5,0.1-4.4c0-4,0.1-9.8,0.1-17.1c0.1-14.9,0.1-36.1,0.2-61.5
			v-0.4L464.4,202.5L464.4,202.5z"/>
	</g>
	<ellipse class="st1" cx="371.1" cy="183.2" rx="2.2" ry="2.1"/>
	<ellipse class="st1" cx="377.7" cy="183.2" rx="2.2" ry="2.1"/>
	<ellipse class="st1" cx="384.4" cy="183.2" rx="2.2" ry="2.1"/>
	<path class="st0" d="M16.6,176.9h86.9c3.3,0,5.9,2.6,5.9,5.9v124.4c0,3.3-2.6,5.9-5.9,5.9H16.6c-3.3,0-5.9-2.6-5.9-5.9V182.8
		C10.7,179.5,13.4,176.9,16.6,176.9z"/>
	<path class="st2" d="M17.5,176.9h85c3.8,0,6.8,3,6.8,6.8l0,0v5.5l0,0H10.7l0,0v-5.5C10.7,179.9,13.8,176.9,17.5,176.9z"/>
	<circle class="st1" cx="17" cy="183" r="2"/>
	<path class="st1" d="M24.8,183c0,1.1-0.9,2-2,2s-2-0.9-2-2s0.9-2,2-2C23.9,181.1,24.8,181.9,24.8,183L24.8,183z"/>
	<circle class="st1" cx="28.8" cy="183" r="2"/>
	<rect x="15.2" y="189.2" class="st1" width="89.7" height="121.2"/>
	<path class="st2" d="M107.1,224.5L107.1,224.5c-1.2,0-2.2-1-2.2-2.2v-17.6c0-1.2,1-2.2,2.2-2.2l0,0l0,0c1.2,0,2.2,1,2.2,2.2v17.6
		C109.4,223.5,108.4,224.5,107.1,224.5L107.1,224.5z"/>
	<path class="st3" d="M98.4,313.1c1.5,0,3-0.4,4.4-1c1.7-0.8,3.2-2,4.3-3.5c0.7-1,1.3-2,1.6-3.2c0.4-1.3,0.6-2.6,0.5-4
		c0-11.5,0-28.2-0.1-48.7c0-10.3,0-21.6,0-33.7c0-6,0-12.3,0-18.7c0-3.2,0-6.5,0-9.8c0.1-1.7,0-3.3-0.2-4.9
		c-0.4-1.6-1.1-3.1-2.1-4.4c-2.2-2.7-5.5-4.2-8.9-4H19.8c-1,0-2,0-2.9,0c-2.9,0.1-5.4,2.3-5.8,5.2c-0.1,1-0.1,1.9-0.1,2.9v31.2
		c0,14.8,0,29.1,0,42.6c0,13.6,0,26.5,0,38.6v8.9c0.1,2.9,2,5.4,4.8,6.1c0.7,0.2,1.4,0.2,2,0.2h14l48.7,0.1h13.2h3.4h1.2h-1.2h-3.4
		H80.5l-48.7,0.1h-14c-0.7,0-1.4,0-2.1-0.2c-3-0.7-5-3.4-5.1-6.4c0-2.9,0-5.9,0-8.9c0-12.1,0-25,0-38.6s0-27.9,0-42.6
		c0-7.4,0-14.9,0-22.6v-8.6c0-1,0-2,0.1-2.9c0.3-2,1.5-3.8,3.3-4.8c0.9-0.5,1.9-0.8,2.9-0.8s2,0,2.9,0H98c3.6-0.1,7,1.4,9.2,4.2
		c1.1,1.4,1.8,2.9,2.2,4.6c0.1,0.4,0.1,0.8,0.2,1.3s0.1,0.9,0.1,1.3v12.3c0,6.4,0,12.7,0,18.7c0,12.1,0,23.4,0,33.7
		c0,20.6-0.1,37.2-0.1,48.7c0,1.4-0.1,2.7-0.5,4c-1,3-3.1,5.4-6,6.7c-1.1,0.5-2.2,0.8-3.3,0.9C98.8,313.1,98.4,313.1,98.4,313.1z"/>
	<path class="st3" d="M46.8,237.9c0,0.1-4.9,0.2-11,0.2s-11-0.1-11-0.2c0-0.1,4.9-0.2,11-0.2S46.8,237.8,46.8,237.9z"/>
	<path class="st3" d="M42,244.2c-2.9,0.2-5.7,0.3-8.6,0.2c-2.9,0.1-5.8,0-8.6-0.2c2.9-0.2,5.7-0.3,8.6-0.2
		C36.2,243.9,39.1,244,42,244.2z"/>
	<path class="st3" d="M43.9,251.5c0,0.1-4.3,0.2-9.6,0.2s-9.6-0.1-9.6-0.2c0-0.1,4.3-0.2,9.6-0.2S43.9,251.4,43.9,251.5z"/>
	<path class="st3" d="M46.8,257.9c0,0.1-4.9,0.2-11,0.2s-11-0.1-11-0.2s4.9-0.2,11-0.2S46.8,257.7,46.8,257.9z"/>
	<path class="st3" d="M42,265.1c-2.9,0.2-5.7,0.3-8.6,0.2c-2.9,0.1-5.8,0-8.6-0.2c2.9-0.2,5.7-0.3,8.6-0.2
		C36.2,264.8,39.1,264.8,42,265.1z"/>
	<path class="st3" d="M39.4,271.5c-2.4,0.2-4.9,0.3-7.3,0.2c-2.5,0.1-4.9,0-7.3-0.2c2.4-0.2,4.9-0.3,7.3-0.2
		C34.5,271.1,36.9,271.2,39.4,271.5z"/>
	<path class="st3" d="M90.9,229.6c0,0.1-15.4,0.2-34.3,0.2s-34.3-0.1-34.3-0.2c0-0.1,15.4-0.2,34.3-0.2S90.9,229.5,90.9,229.6z"/>
	<path class="st3" d="M61.1,284.1c-0.1,0-0.2-15-0.2-33.5S61,217,61.1,217s0.2,15,0.2,33.5S61.2,284.1,61.1,284.1z"/>
	<path class="st3" d="M76,284.1c-0.1,0-0.2-15-0.2-33.5S75.9,217,76,217s0.2,15,0.2,33.5S76.1,284.1,76,284.1z"/>
	<path class="st3" d="M90.9,284.1c-0.1,0-0.2-15-0.2-33.5s0.1-33.5,0.2-33.5s0.2,15,0.2,33.5S91,284.1,90.9,284.1z"/>
	<path class="st3" d="M51.2,222.8c0,0.1-5.8,0.2-13.1,0.2S25,222.9,25,222.8c0-0.1,5.8-0.2,13.1-0.2S51.2,222.7,51.2,222.8z"/>
	<path class="st3" d="M72.3,222.8c-1.2,0.2-2.5,0.3-3.7,0.2c-1.2,0.1-2.5,0-3.7-0.2c1.2-0.2,2.4-0.3,3.7-0.2
		C69.8,222.5,71,222.6,72.3,222.8z"/>
	<path class="st3" d="M87.7,222.8c-1.2,0.2-2.4,0.3-3.7,0.2c-1.2,0.1-2.5,0-3.7-0.2C82.8,222.5,85.2,222.5,87.7,222.8z"/>
	<path class="st3" d="M90.4,278.6c0,0.1-14.4,0.2-32.2,0.2S26,278.7,26,278.6s14.4-0.2,32.2-0.2S90.4,278.5,90.4,278.6z"/>
	<path class="st3" d="M85.6,281.4c-1.9,0.3-3.9,0.3-5.8,0C81.7,281.1,83.7,281.1,85.6,281.4z"/>
	<path class="st3" d="M91.7,286.3c0,0.1-8.9,0.2-19.9,0.2s-19.9-0.1-19.9-0.2s8.9-0.2,19.9-0.2S91.7,286.2,91.7,286.3z"/>
	<path class="st3" d="M96.9,296.9l-0.5,0.1l-1.5,0.1l-5.8,0.4l-20.8,1.2h-0.7l0.6-0.4c2.5-1.5,5.3-2.4,8.2-2.5
		c1.5-0.1,3.1,0.1,4.6,0.4c0.8,0.2,1.6,0.4,2.3,0.8c0.8,0.4,1.4,1.1,1.6,1.9c0.3,1.8-0.7,3.5-2.3,4.2c-1.6,0.7-3.3,1-5.1,0.8
		c-1.8,0-3.5-0.6-5-1.6c-1.5-1.1-2.5-2.8-2.6-4.7c0-1.7,0.9-3.3,2.3-4.3c1.4-0.9,2.9-1.4,4.6-1.4c3.1-0.1,6.2,0.5,9,1.6
		c1.4,0.5,2.7,1.2,4,2c0.7,0.3,1.3,0.8,1.7,1.4c0.3,0.3,0.4,0.8,0.2,1.2c-0.2,0.4-0.5,0.7-1,0.7c-0.7,0-1.4-0.2-2.1-0.6
		c-0.6-0.3-1.2-0.6-1.8-1c-1.1-0.7-2.1-1.6-3.1-2.5l0.3-0.2c0.2,0.5,0.1,1-0.1,1.4s-0.5,0.7-0.9,1c-0.8,0.5-1.7,0.6-2.5,0.3
		c-0.8-0.3-1.5-0.8-2-1.4s-1-1.2-1.4-1.9l0.3-0.1c0.2,0.9-0.2,1.9-1,2.4c-0.7,0.5-1.6,0.7-2.5,0.4c-0.8-0.3-1.4-0.7-1.9-1.3
		c-0.5-0.6-0.8-1.2-1.1-1.9h0.2c-0.8,2-1.6,3.8-2.2,5.2l-0.1,0.2l-0.1-0.2c-0.8-2-1.4-3.6-1.8-4.7l-0.4-1.2
		c-0.1-0.1-0.1-0.3-0.1-0.4c0.1,0.1,0.1,0.3,0.2,0.4c0.1,0.3,0.3,0.7,0.5,1.2l1.9,4.6h-0.2c0.6-1.5,1.3-3.2,2.1-5.3l0.1-0.3l0.1,0.3
		c0.5,1.4,1.6,2.5,2.9,3c0.8,0.2,1.6,0.1,2.2-0.4c0.7-0.4,1.1-1.3,0.9-2.1l-0.4-1.1l0.7,1c0.8,1.2,1.8,2.6,3.3,3.1
		c0.7,0.2,1.6,0.1,2.2-0.3c0.7-0.4,1.1-1.2,0.9-2l-0.3-0.8l0.6,0.6c0.9,0.9,1.9,1.7,3,2.4c0.6,0.4,1.2,0.7,1.8,1
		c0.6,0.3,1.2,0.5,1.8,0.5c0.3,0,0.5-0.2,0.6-0.5s0-0.6-0.2-0.8c-0.4-0.5-1-1-1.6-1.3c-1.2-0.8-2.5-1.4-3.9-1.9
		c-2.8-1.1-5.8-1.6-8.9-1.6c-1.5,0-3.1,0.5-4.3,1.4c-1.3,0.9-2.1,2.3-2.1,3.9c0.1,1.7,1,3.3,2.4,4.3s3.1,1.5,4.8,1.5
		c1.7,0.1,3.3-0.1,4.8-0.8c0.7-0.3,1.3-0.9,1.7-1.5c0.4-0.7,0.5-1.4,0.4-2.2c-0.2-0.7-0.7-1.3-1.4-1.7c-0.7-0.3-1.4-0.6-2.2-0.7
		c-1.5-0.3-2.9-0.5-4.4-0.4c-2.8,0.1-5.6,0.9-8,2.4l-0.1-0.3l20.8-1l5.8-0.3l1.5-0.1C96.5,296.8,96.7,296.8,96.9,296.9z"/>
	<path class="st3" d="M93.4,204.8c0,0.1-15.4,0.2-34.3,0.2s-34.3-0.1-34.3-0.2c0-0.1,15.4-0.2,34.3-0.2S93.4,204.6,93.4,204.8z"/>
	<path class="st3" d="M81.4,200c0.3,0,0.7-0.1,1-0.1v0.1c-2.9,0.1-12.6,0.2-24.2,0.2l-17.8-0.1L35,200h-1.5c-0.2,0-0.3,0-0.5,0
		c0.2,0,0.3,0,0.5,0H35l5.4-0.1l17.8-0.1c11.5,0,21.3,0.1,24.2,0.2v0.1C82,200.1,81.7,200,81.4,200z"/>
	<path class="st0" d="M106.6,126.3h129.7c5.8,0,10.5,4.7,10.5,10.5V324c0,5.8-4.7,10.5-10.5,10.5H106.6c-5.8,0-10.5-4.7-10.5-10.5
		V136.8C96.1,131,100.8,126.3,106.6,126.3z"/>
	<path class="st2" d="M106.7,126.3h129.6c5.9,0,10.6,4.7,10.6,10.6v8.2l0,0H96.1l0,0v-8.2C96.1,131,100.8,126.3,106.7,126.3
		L106.7,126.3z"/>
	<circle class="st1" cx="105.6" cy="135.7" r="3"/>
	<circle class="st1" cx="114.6" cy="135.7" r="3"/>
	<circle class="st1" cx="123.7" cy="135.7" r="3"/>
	<rect x="102.9" y="145" class="st1" width="137.2" height="185.3"/>
	<path class="st2" d="M243.5,199L243.5,199c-1.9,0-3.4-1.5-3.4-3.4l0,0v-26.9c0-1.9,1.5-3.4,3.4-3.4l0,0c1.9,0,3.4,1.5,3.4,3.4v26.8
		C246.9,197.4,245.4,199,243.5,199L243.5,199z"/>
	<path class="st3" d="M235.9,334.5h0.5c0.5,0,0.9-0.1,1.3-0.2c1.7-0.3,3.4-1,4.8-2.1c2.3-1.8,3.8-4.4,4.2-7.2
		c0.1-0.9,0.1-1.8,0.1-2.7v-2.9c0-2,0-4,0-6.2c0-17.7,0-43.3-0.1-74.9c0-15.8,0-33.1,0-51.7c0-9.3,0-18.9,0-28.8c0-4.9,0-10,0-15.1
		v-3.8c0.1-1.3,0-2.5-0.2-3.8c-0.8-3.8-3.7-6.9-7.4-8.1c-1.2-0.4-2.5-0.5-3.8-0.5H107c-4.5,0-8.6,2.9-10.1,7.2
		c-0.5,1.4-0.7,2.9-0.6,4.3v17.8c0,11.8,0,23.3,0,34.7c0,22.8,0,44.7,0,65.6s0,40.8,0,59.4v6.9c0,1.1,0,2.3,0.2,3.4s0.6,2.1,1.2,3.1
		c0.5,1,1.2,1.8,2,2.6c1.6,1.5,3.6,2.4,5.8,2.8c1.1,0.1,2.1,0.2,3.2,0.1h24.8l74.9,0.1h20.4h5.3L235.9,334.5h-1.7h-5.3h-20.4
		l-74.9,0.1h-24.8c-1.1,0-2.2,0-3.3-0.1c-1.1-0.1-2.2-0.5-3.2-1s-2-1.1-2.8-1.9s-1.6-1.7-2.1-2.7c-0.6-1-1-2.1-1.2-3.2
		s-0.3-2.3-0.2-3.4c0-2.3,0-4.6,0-6.9c0-18.6,0-38.5,0-59.4s0-42.9,0-65.6V138c-0.1-1.5,0.1-3,0.6-4.5c1.6-4.4,5.8-7.4,10.5-7.4
		h128.2c1.3-0.1,2.7,0.1,4,0.5c3.9,1.2,6.8,4.4,7.7,8.4c0.2,1.3,0.3,2.6,0.2,3.9v3.8c0,5.1,0,10.1,0,15.1c0,9.9,0,19.5,0,28.8
		c0,18.6,0,35.9,0,51.7c0,31.6-0.1,57.2-0.1,74.9c0,2.2,0,4.3,0,6.2c0,1,0,1.9,0,2.9c0,0.9,0,1.8-0.1,2.7c-0.4,2.9-1.9,5.5-4.3,7.3
		c-1.4,1.1-3.1,1.8-4.8,2.1c-0.4,0.1-0.9,0.1-1.3,0.1L235.9,334.5z"/>
	<path class="st3" d="M204.9,158.4c0.1,0,0.2,0,0.4,0h1.1v0.1c-4.1,0.1-18.1,0.2-34.8,0.2l-25.6-0.1l-7.8-0.1h-2.1
		c-0.2,0-0.5,0-0.7,0c0.2,0,0.5,0,0.7,0h2.1l7.8-0.1l25.6-0.1c16.7,0,30.7,0.1,34.8,0.2v0.1h-1.1C205.2,158.5,205,158.4,204.9,158.4
		z"/>
	<path class="st3" d="M228.4,174.1c0,0.1-25.5,0.2-56.9,0.2s-56.9-0.1-56.9-0.2s25.5-0.2,56.9-0.2S228.4,173.9,228.4,174.1z"/>
	<path class="st3" d="M228.4,182.2c0,0.1-25.5,0.2-56.9,0.2s-56.9-0.1-56.9-0.2c0-0.1,25.5-0.2,56.9-0.2S228.4,182.1,228.4,182.2z"
		/>
	<path class="st3" d="M228.4,190.3c0,0.1-25.5,0.2-56.9,0.2s-56.9-0.1-56.9-0.2c0-0.1,25.5-0.2,56.9-0.2S228.4,190.2,228.4,190.3z"
		/>
	<path class="st3" d="M228.4,198.5c0,0.1-25.5,0.2-56.9,0.2s-56.9-0.1-56.9-0.2c0-0.1,25.5-0.2,56.9-0.2S228.4,198.4,228.4,198.5z"
		/>
	<path class="st3" d="M228.4,206.7c0,0.1-25.5,0.2-56.9,0.2s-56.9-0.1-56.9-0.2c0-0.1,25.5-0.2,56.9-0.2S228.4,206.5,228.4,206.7z"
		/>
	<path class="st3" d="M228.4,214.8c0,0.1-25.5,0.2-56.9,0.2s-56.9-0.1-56.9-0.2s25.5-0.2,56.9-0.2S228.4,214.7,228.4,214.8z"/>
	<path class="st3" d="M228.4,293.8c0,0.1-25.5,0.2-56.9,0.2s-56.9-0.1-56.9-0.2s25.5-0.2,56.9-0.2S228.4,293.7,228.4,293.8z"/>
	<path class="st3" d="M228.4,302c0,0.1-25.5,0.2-56.9,0.2s-56.9-0.1-56.9-0.2s25.5-0.2,56.9-0.2S228.4,301.9,228.4,302z"/>
	<path class="st3" d="M228.4,310.2c0,0.1-25.5,0.2-56.9,0.2s-56.9-0.1-56.9-0.2s25.5-0.2,56.9-0.2S228.4,310,228.4,310.2z"/>
	<path class="st3" d="M228.4,318.3c0,0.1-25.5,0.2-56.9,0.2s-56.9-0.1-56.9-0.2s25.5-0.2,56.9-0.2S228.4,318.2,228.4,318.3z"/>
	<rect x="120.3" y="228.7" class="st6" width="4" height="44.9"/>
	<rect x="128" y="244" class="st6" width="4" height="29.7"/>
	<rect x="135.8" y="234.3" class="st6" width="4" height="39.6"/>
	<rect x="143.6" y="230.4" class="st6" width="4" height="43.2"/>
	<rect x="151.3" y="244.9" class="st6" width="4" height="28.8"/>
	<rect x="159.1" y="250.5" class="st6" width="4" height="23.1"/>
	<rect x="166.9" y="233.3" class="st6" width="4" height="40.3"/>
	<rect x="174.6" y="240.6" class="st6" width="4" height="33"/>
	<rect x="182.4" y="234.8" class="st6" width="4" height="38.9"/>
	<rect x="190.2" y="247.2" class="st6" width="4" height="26.5"/>
	<rect x="205.6" y="233.3" class="st7" width="4" height="40.3"/>
	<rect x="222.1" y="259.3" class="st7" width="4" height="13.8"/>
	<rect x="214.1" y="247.2" class="st7" width="4" height="26.5"/>
	<rect x="197.9" y="242.1" class="st6" width="4" height="31.5"/>
	<path class="st3" d="M227.3,234.5l-0.4-0.1l-1-0.2c-0.6-0.1-1.1-0.2-1.7-0.3c-0.8-0.1-1.5-0.2-2.3-0.2c-2.1-0.1-4.2,0.1-6.3,0.5
		c-2.7,0.6-5.4,1.6-7.8,3c-3,1.7-5.6,3.8-7.9,6.3c-2.5,3-4.8,6.2-6.7,9.6c-2.2,3.5-4.3,7.3-7.5,10.6c-1.6,1.7-3.4,3.1-5.5,4.1
		c-1.1,0.5-2.2,0.9-3.4,1c-1.2,0.2-2.4,0.1-3.6-0.1c-2.3-0.6-4.5-1.7-6.3-3.3c-1.7-1.5-3.3-3.2-4.6-5.1c-2.7-3.6-4.6-7.6-6.7-11.1
		c-1.8-3.4-4-6.7-6.7-9.5c-1.2-1.3-2.6-2.4-4.1-3.2c-0.7-0.4-1.5-0.8-2.2-1.1s-1.5-0.5-2.3-0.7c-2.7-0.6-5.6-0.5-8.3,0.2
		c-2,0.6-3.9,1.5-5.7,2.7c-1.1,0.8-2.1,1.7-3,2.7l-0.7,0.8c-0.2,0.2-0.2,0.3-0.2,0.3c0.1-0.1,0.1-0.2,0.2-0.3l0.7-0.8
		c0.9-1,1.9-1.9,2.9-2.7c1.7-1.3,3.7-2.2,5.7-2.8c2.7-0.8,5.6-0.9,8.4-0.3c3.4,0.8,6.5,2.5,8.8,5c2.7,2.9,4.9,6.1,6.8,9.6
		c2.1,3.6,4,7.5,6.7,11.1c1.3,1.8,2.9,3.5,4.6,5c1.7,1.5,3.8,2.6,6.1,3.2c1.1,0.2,2.3,0.3,3.5,0.1c1.1-0.2,2.2-0.5,3.3-1
		c2-1,3.8-2.4,5.4-4c3.1-3.2,5.3-7,7.5-10.5c1.9-3.4,4.2-6.6,6.7-9.6c2.3-2.5,5-4.6,8-6.3c2.5-1.4,5.1-2.4,7.9-2.9
		c2.1-0.4,4.2-0.6,6.4-0.5c0.8,0,1.6,0.1,2.3,0.2c0.6,0.1,1.1,0.2,1.7,0.3l1,0.2C227,234.4,227.2,234.4,227.3,234.5z"/>
	<path class="st3" d="M115.8,276.8c-0.1,0-0.2-12.8-0.2-28.6s0.1-28.6,0.2-28.6s0.2,12.8,0.2,28.6S115.9,276.8,115.8,276.8z"/>
	<path class="st3" d="M226.2,276.8c0,0.1-24.1,0.2-53.9,0.2s-53.9-0.1-53.9-0.2s24.1-0.2,53.9-0.2S226.2,276.7,226.2,276.8z"/>
	<path class="st3" d="M126,280.3c-2,0.2-4,0.2-6,0C122,280.1,124,280.1,126,280.3z"/>
	<path class="st3" d="M135.9,280.5c-2.4,0.2-4.7,0.2-7.1,0C131.2,280.3,133.5,280.3,135.9,280.5z"/>
	<path class="st3" d="M144.3,280.5c-2.4,0.2-4.7,0.2-7.1,0C139.6,280.3,142,280.3,144.3,280.5z"/>
	<path class="st3" d="M152.8,280.5c-2.4,0.2-4.7,0.2-7.1,0C148,280.3,150.4,280.3,152.8,280.5z"/>
	<path class="st3" d="M161.2,280.5c-2.4,0.2-4.7,0.2-7.1,0C156.5,280.3,158.9,280.3,161.2,280.5z"/>
	<path class="st3" d="M169.7,280.5c-2.4,0.2-4.7,0.2-7.1,0C164.9,280.3,167.3,280.3,169.7,280.5z"/>
	<path class="st3" d="M178.1,280.5c-2.4,0.2-4.7,0.2-7.1,0C173.4,280.3,175.8,280.3,178.1,280.5z"/>
	<path class="st3" d="M186.6,280.5c-2.4,0.2-4.7,0.2-7.1,0C181.8,280.3,184.2,280.3,186.6,280.5z"/>
	<path class="st3" d="M195,280.5c-2.4,0.2-4.7,0.2-7.1,0C190.3,280.3,192.7,280.3,195,280.5z"/>
	<path class="st3" d="M203.5,280.5c-2.4,0.2-4.7,0.2-7.1,0C198.7,280.3,201.1,280.3,203.5,280.5z"/>
	<path class="st3" d="M211.3,280.5c-2.4,0.2-4.7,0.2-7.1,0C206.6,280.3,209,280.3,211.3,280.5z"/>
	<path class="st3" d="M219.2,280.5c-2.4,0.2-4.7,0.2-7.1,0C214.4,280.3,216.8,280.3,219.2,280.5z"/>
	<path class="st3" d="M227,280.5c-2.4,0.2-4.7,0.2-7.1,0C222.3,280.3,224.7,280.3,227,280.5z"/>
	<path class="st3" d="M156.9,249.6c0-0.1,0.5,0.1,0.6,0.8c0.1,0.4,0.1,0.8-0.1,1.2c-0.1,0.2-0.3,0.4-0.6,0.5s-0.6,0-0.8-0.1
		c-0.5-0.3-0.7-0.8-0.7-1.3c0-0.4,0.2-0.8,0.6-1c0.2-0.2,0.5-0.2,0.8-0.2C156.8,249.5,156.9,249.6,156.9,249.6s-0.4-0.1-0.8,0.3
		c-0.2,0.2-0.3,0.5-0.3,0.8c0,0.4,0.2,0.7,0.5,0.9s0.6,0.1,0.8-0.2l0,0c0.1-0.3,0.2-0.6,0.2-0.9
		C157.2,250.2,157.1,249.9,156.9,249.6z"/>
	<path class="st3" d="M209.8,234.9c0,0,0.1-0.1,0.4,0c0.3,0.1,0.6,0.3,0.7,0.6c0.3,0.4,0.3,0.9,0.2,1.4c-0.2,0.6-0.7,1.1-1.4,1.1
		c-0.3,0-0.7-0.2-0.9-0.5c-0.2-0.2-0.3-0.5-0.4-0.8c-0.1-0.5,0-1,0.2-1.4C209.2,234.7,209.8,234.7,209.8,234.9
		c-0.1,0-0.6,0.1-0.9,0.7c-0.2,0.4-0.2,0.8-0.1,1.1c0.1,0.4,0.4,0.9,0.9,0.9s0.8-0.3,1-0.8c0.1-0.4,0.1-0.8-0.1-1.1
		C210.5,235.3,210.2,235,209.8,234.9z"/>
	<path class="st0" d="M211.3,103.1h175.1c5.8,0,10.5,4.7,10.5,10.5v249.8c0,5.8-4.7,10.5-10.5,10.5H211.3c-5.8,0-10.5-4.7-10.5-10.5
		V113.6C200.8,107.8,205.5,103.1,211.3,103.1z"/>
	<path class="st2" d="M211.4,103.1h174.9c5.9,0,10.6,4.7,10.6,10.6v13.8l0,0H200.8l0,0v-13.8C200.8,107.9,205.6,103.1,211.4,103.1z"
		/>
	<circle class="st1" cx="213.2" cy="115.3" r="3.9"/>
	<path class="st1" d="M228.8,115.3c0,2.2-1.7,3.9-3.9,3.9s-3.9-1.7-3.9-3.9c0-2.2,1.7-3.9,3.9-3.9l0,0
		C227.1,111.4,228.8,113.2,228.8,115.3L228.8,115.3z"/>
	<circle class="st1" cx="236.7" cy="115.3" r="3.9"/>
	<rect x="209.7" y="127.5" class="st1" width="178.4" height="241"/>
	<path class="st2" d="M392.4,154h0.2c2.4,0,4.3,1.9,4.3,4.3v35.1c0,2.4-1.9,4.3-4.3,4.3h-0.2c-2.4,0-4.3-1.9-4.3-4.3v-35.1
		C388.1,155.9,390,154,392.4,154z"/>
	<path class="st3" d="M386,374h0.6c0.6,0,1.2-0.1,1.8-0.2c2.3-0.5,4.3-1.7,5.8-3.5c1.1-1.3,1.9-2.8,2.3-4.4c0.5-1.8,0.3-3.9,0.3-6.1
		c0-4.4,0-9.6,0-15.4c0-23.2,0-56.7-0.1-98.1c0-20.7,0-43.4,0-67.7c0-12.2,0-24.7,0-37.7c0-6.5,0-13,0-19.7V116
		c0.1-1.7,0-3.3-0.4-4.9c-1-3.3-3.4-5.9-6.6-7c-0.8-0.3-1.6-0.5-2.4-0.6s-1.7-0.1-2.5-0.1h-173c-3.9,0-7.6,2.2-9.5,5.6
		c-0.9,1.7-1.3,3.6-1.3,5.6v29.1c0,15.4,0,30.5,0,45.4c0,29.8,0,58.5,0,85.9s0,53.4,0,77.7v9c-0.1,1.5,0.1,2.9,0.5,4.4
		c0.4,1.4,1.1,2.7,2.1,3.8c1.9,2.2,4.5,3.6,7.4,3.8c2.9,0.1,5.7,0,8.5,0H252l98.1,0.1h26.7h6.9L386,374l-2.3-0.1h-6.9h-26.7L252,374
		h-32.6c-2.8,0-5.7,0-8.6,0c-4.6-0.3-8.5-3.4-9.9-7.7c-0.4-1.4-0.6-2.9-0.5-4.4v-9.1c0-24.3,0-50.4,0-77.7s0-56.1,0-85.9v-74.6
		c-0.1-2,0.4-4,1.3-5.8c2-3.6,5.7-5.9,9.9-5.9h172.9c0.9,0,1.7,0,2.6,0.1c4.4,0.5,8.1,3.7,9.4,7.9c0.4,1.7,0.6,3.4,0.5,5.1v5
		c0,6.7,0,13.2,0,19.7c0,13,0,25.5,0,37.7c0,24.3,0,47,0,67.7c0,41.4-0.1,74.9-0.1,98.1c0,5.8,0,10.9,0,15.4c0,2.2,0.2,4.3-0.4,6.1
		c-0.4,1.6-1.2,3.2-2.4,4.4c-1.5,1.8-3.6,3-5.9,3.5c-0.6,0.1-1.2,0.2-1.8,0.2L386,374z"/>
	<path class="st3" d="M227.1,164h27.1l0.3,8.2h-1.1c-0.6-2.6-1.3-4.2-2.1-5s-2.7-1.2-5.5-1.2h-2.7v24.6c0,1.9,0.3,3,0.9,3.4
		s1.8,0.7,3.8,0.9v0.9h-14v-0.9c2-0.2,3.3-0.5,3.8-1s0.8-1.8,0.8-3.9v-24h-2.7c-2.7,0-4.5,0.4-5.4,1.1c-1,0.8-1.7,2.4-2.2,5h-1.2
		L227.1,164z"/>
	<path class="st3" d="M349.8,144.8c0.2,0,0.3,0,0.5,0h1.6v0.1c-5.8,0.1-25.5,0.2-49,0.2l-36.1-0.1l-10.9-0.1h-3h-0.8h-0.3h0.3h0.8h3
		l10.9-0.3l36.1-0.1c23.4,0,43.2,0.1,49,0.2v0.1h-1.6C350.1,144.9,350,144.9,349.8,144.8z"/>
	<path class="st3" d="M296,164.3c0,0.1-7.5,0.2-16.7,0.2s-16.7-0.1-16.7-0.2c0-0.1,7.5-0.2,16.7-0.2S296,164.1,296,164.3z"/>
	<path class="st3" d="M296,172.1c0,0.1-7.5,0.2-16.7,0.2s-16.7-0.1-16.7-0.2c0-0.1,7.5-0.2,16.7-0.2C288.5,171.9,296,172,296,172.1z
		"/>
	<path class="st3" d="M296,180c0,0.1-7.5,0.2-16.7,0.2s-16.7-0.1-16.7-0.2c0-0.1,7.5-0.2,16.7-0.2S296,179.9,296,180z"/>
	<path class="st3" d="M296,187.9c0,0.1-7.5,0.2-16.7,0.2s-16.7-0.1-16.7-0.2c0-0.1,7.5-0.2,16.7-0.2
		C288.5,187.6,296,187.7,296,187.9z"/>
	<path class="st3" d="M296,195.7c0,0.1-7.5,0.2-16.7,0.2s-16.7-0.1-16.7-0.2c0-0.1,7.5-0.2,16.7-0.2S296,195.6,296,195.7z"/>
	<path class="st3" d="M296,203.6c0,0.1-15.8,0.2-35.2,0.2s-35.2-0.1-35.2-0.2c0-0.1,15.8-0.2,35.2-0.2S296,203.5,296,203.6z"/>
	<path class="st3" d="M296,211.1c0,0.1-15.8,0.2-35.2,0.2s-35.2-0.1-35.2-0.2c0-0.1,15.8-0.2,35.2-0.2S296,210.9,296,211.1z"/>
	<path class="st3" d="M296,218.6c0,0.1-15.8,0.2-35.2,0.2s-35.2-0.1-35.2-0.2c0-0.1,15.8-0.2,35.2-0.2S296,218.5,296,218.6z"/>
	<path class="st3" d="M296,226.1c0,0.1-15.8,0.2-35.2,0.2s-35.2-0.1-35.2-0.2c0-0.1,15.8-0.2,35.2-0.2S296,225.9,296,226.1z"/>
	<path class="st3" d="M296,233.6c0,0.1-15.8,0.2-35.2,0.2s-35.2-0.1-35.2-0.2c0-0.1,15.8-0.2,35.2-0.2S296,233.4,296,233.6z"/>
	<path class="st3" d="M296,241c0,0.1-15.8,0.2-35.2,0.2s-35.2-0.1-35.2-0.2c0-0.1,15.8-0.2,35.2-0.2S296,240.9,296,241z"/>
	<path class="st3" d="M296,248.5c0,0.1-15.8,0.2-35.2,0.2s-35.2-0.1-35.2-0.2s15.8-0.2,35.2-0.2S296,248.4,296,248.5z"/>
	<path class="st3" d="M296,256c0,0.1-15.8,0.2-35.2,0.2s-35.2-0.1-35.2-0.2s15.8-0.2,35.2-0.2S296,255.9,296,256z"/>
	<path class="st3" d="M370.6,164.3c0,0.1-14.8,0.2-33,0.2s-33-0.1-33-0.2c0-0.1,14.8-0.2,33-0.2
		C355.8,164.1,370.6,164.1,370.6,164.3z"/>
	<path class="st3" d="M370.6,171.8c0,0.1-14.8,0.2-33,0.2s-33-0.1-33-0.2s14.8-0.2,33-0.2C355.8,171.5,370.6,171.6,370.6,171.8z"/>
	<path class="st3" d="M370.6,179.2c0,0.1-14.8,0.2-33,0.2s-33-0.1-33-0.2s14.8-0.2,33-0.2C355.8,179,370.6,179.1,370.6,179.2z"/>
	<path class="st3" d="M370.6,186.7c0,0.1-14.8,0.2-33,0.2s-33-0.1-33-0.2c0-0.1,14.8-0.2,33-0.2
		C355.8,186.5,370.6,186.6,370.6,186.7z"/>
	<path class="st3" d="M370.6,194.2c0,0.1-14.8,0.2-33,0.2s-33-0.1-33-0.2c0-0.1,14.8-0.2,33-0.2C355.8,194,370.6,194.1,370.6,194.2z
		"/>
	<path class="st3" d="M370.6,201.7c0,0.1-14.8,0.2-33,0.2s-33-0.1-33-0.2c0-0.1,14.8-0.2,33-0.2
		C355.8,201.5,370.6,201.6,370.6,201.7z"/>
	<path class="st3" d="M370.6,209.2c0,0.1-14.8,0.2-33,0.2s-33-0.1-33-0.2c0-0.1,14.8-0.2,33-0.2C355.8,209,370.6,209.1,370.6,209.2z
		"/>
	<path class="st3" d="M370.6,216.7c0,0.1-14.8,0.2-33,0.2s-33-0.1-33-0.2c0-0.1,14.8-0.2,33-0.2
		C355.8,216.5,370.6,216.6,370.6,216.7z"/>
	<path class="st3" d="M296,274.7c0,0.1-15.6,0.2-34.9,0.2s-34.9-0.1-34.9-0.2s15.6-0.2,34.9-0.2S296,274.5,296,274.7z"/>
	<path class="st3" d="M296,282.1c0,0.1-15.6,0.2-34.9,0.2s-34.9-0.1-34.9-0.2s15.6-0.2,34.9-0.2S296,282,296,282.1z"/>
	<path class="st3" d="M296,289.6c0,0.1-15.6,0.2-34.9,0.2s-34.9-0.1-34.9-0.2s15.6-0.2,34.9-0.2S296,289.6,296,289.6z"/>
	<path class="st3" d="M296,297.1c0,0.1-15.6,0.2-34.9,0.2s-34.9-0.1-34.9-0.2s15.6-0.2,34.9-0.2S296,297,296,297.1z"/>
	<path class="st3" d="M296,304.7c0,0.1-15.6,0.2-34.9,0.2s-34.9-0.1-34.9-0.2s15.6-0.2,34.9-0.2S296,304.5,296,304.7z"/>
	<path class="st3" d="M296,312.1c0,0.1-15.6,0.2-34.9,0.2s-34.9-0.1-34.9-0.2s15.6-0.2,34.9-0.2S296,312,296,312.1z"/>
	<path class="st3" d="M296,319.6c0,0.1-15.6,0.2-34.9,0.2s-34.9-0.1-34.9-0.2s15.6-0.2,34.9-0.2S296,319.5,296,319.6z"/>
	<path class="st3" d="M296,327.1c0,0.1-15.6,0.2-34.9,0.2s-34.9-0.1-34.9-0.2s15.6-0.2,34.9-0.2S296,327,296,327.1z"/>
	<path class="st3" d="M296,335c0,0.1-15.6,0.2-34.9,0.2s-34.9-0.1-34.9-0.2s15.6-0.2,34.9-0.2S296,334.9,296,335z"/>
	<path class="st3" d="M296,342.9c0,0.1-15.6,0.2-34.9,0.2s-34.9-0.1-34.9-0.2s15.6-0.2,34.9-0.2S296,342.8,296,342.9z"/>
	<path class="st3" d="M296,350.9c0,0.1-15.6,0.2-34.9,0.2s-34.9-0.1-34.9-0.2s15.6-0.2,34.9-0.2S296,350.7,296,350.9z"/>
	<rect x="304.6" y="224.4" class="st6" width="65.6" height="63.4"/>
	<g class="st5">
		<polygon points="309.7,282.4 327.8,249.7 342.6,270.6 351.7,259.5 365.1,282.4 		"/>
	</g>
	<g class="st5">
		<path d="M349,243.4c0,2.6-2.1,4.7-4.7,4.7s-4.7-2.1-4.7-4.7c0-2.6,2.1-4.7,4.7-4.7l0,0C346.9,238.6,349,240.8,349,243.4z"/>
	</g>
	<g class="st5">
		<path d="M365.1,282.5c0-0.1,0-0.2,0-0.3c0-0.2,0-0.4,0-0.7c0-0.7,0-1.6,0-2.9c0-2.5,0-6.1-0.1-10.8c0-9.3-0.1-22.5-0.1-38.3
			l0.3,0.3h-55.4c-0.1,0.1,0.6-0.6,0.3-0.3v7.2c0,2.4,0,4.7,0,7.1c0,4.7,0,9.2,0,13.7c0,8.9,0,17.3,0,25l-0.3-0.3l40.1,0.1l11.2,0.1
			h3h0.8L365.1,282.5l-0.3-0.1H364h-2.9l-11.2,0.1l-40.2,0.1h-0.3v-0.3c0-7.7,0-16.1,0-25c0-4.4,0-9,0-13.7c0-2.3,0-4.7,0-7.1v-7.2
			c-0.3,0.3,0.4-0.4,0.3-0.3h55.4h0.3v0.3c-0.1,15.9-0.1,29.2-0.1,38.5c0,4.6-0.1,8.2-0.1,10.7c0,1.2,0,2.1,0,2.8c0,0.3,0,0.5,0,0.7
			C365.1,282.3,365.1,282.4,365.1,282.5z"/>
	</g>
	<path class="st3" d="M372.5,296.6c0,0.1-15.6,0.2-34.9,0.2s-34.9-0.1-34.9-0.2s15.6-0.2,34.9-0.2S372.5,296.5,372.5,296.6z"/>
	<path class="st3" d="M372.5,304.1c0,0.1-15.6,0.2-34.9,0.2s-34.9-0.1-34.9-0.2s15.6-0.2,34.9-0.2S372.5,304,372.5,304.1z"/>
	<path class="st3" d="M372.5,311.6c0,0.1-15.6,0.2-34.9,0.2s-34.9-0.1-34.9-0.2s15.6-0.2,34.9-0.2S372.5,311.5,372.5,311.6z"/>
	<path class="st3" d="M372.5,319.1c0,0.1-15.6,0.2-34.9,0.2s-34.9-0.1-34.9-0.2s15.7-0.2,34.9-0.2S372.5,319,372.5,319.1z"/>
	<path class="st3" d="M372.5,327c0,0.1-15.6,0.2-34.9,0.2s-34.9-0.1-34.9-0.2s15.6-0.2,34.9-0.2S372.5,326.9,372.5,327z"/>
	<path class="st3" d="M372.5,334.9c0,0.1-15.6,0.2-34.9,0.2s-34.9-0.1-34.9-0.2s15.6-0.2,34.9-0.2S372.5,334.8,372.5,334.9z"/>
	<path class="st3" d="M372.5,342.8c0,0.1-15.6,0.2-34.9,0.2s-34.9-0.1-34.9-0.2s15.6-0.2,34.9-0.2S372.5,342.7,372.5,342.8z"/>
</g>
<g id="freepik--Table--inject-249">
	<path d="M467.3,431c0,0.1-98.1,0.3-219.2,0.3S28.9,431.1,28.9,431s98.1-0.3,219.2-0.3S467.3,430.8,467.3,431z"/>
</g>
<g id="freepik--speech-bubble--inject-249">
	
		<ellipse transform="matrix(0.9989 -4.641015e-02 4.641015e-02 0.9989 -5.3357 19.7794)" class="st1" cx="423.3" cy="124.8" rx="35.6" ry="35.6"/>
	<path class="st3" d="M403.5,166c0.3-0.1,0.7-0.2,1-0.2c1-0.1,1.9,0.1,2.8,0.5c0.6,0.3,1.1,0.7,1.5,1.3s0.7,1.3,0.8,2.1
		c0.3,2.3-1.4,4.5-3.8,4.7c-1.2,0.1-2.5-0.3-3.4-1.1c-0.6-0.5-1-1.1-1.2-1.9c-0.2-0.7-0.2-1.3-0.1-2c0.1-1,0.6-1.9,1.3-2.6
		c0.5-0.5,0.8-0.7,0.8-0.7c-0.1,0-0.2,0.1-0.3,0.1c-0.1,0.1-0.2,0.1-0.3,0.2c-0.1,0.1-0.2,0.2-0.4,0.3c-1.3,1.2-1.8,3-1.3,4.7
		c0.2,0.8,0.7,1.5,1.3,2c0.7,0.6,1.5,1,2.4,1.1c2,0.4,3.9-0.6,4.8-2.4c0.4-0.8,0.6-1.7,0.5-2.6c-0.1-0.8-0.3-1.6-0.8-2.2
		c-0.4-0.6-1-1-1.6-1.3c-0.9-0.5-1.9-0.6-2.9-0.4c-0.2,0-0.3,0.1-0.5,0.1c-0.1,0-0.2,0.1-0.3,0.1C403.5,165.9,403.5,166,403.5,166z"
		/>
	<path class="st3" d="M393.6,145.1l-0.3-0.5l-0.9-1.5c-0.2-0.3-0.4-0.7-0.6-1.1s-0.4-0.9-0.7-1.4s-0.5-1-0.8-1.6
		c-0.1-0.3-0.3-0.6-0.4-0.9c-0.1-0.3-0.2-0.6-0.4-1c-1.2-3.2-1.9-6.7-2.1-10.1c-0.3-4.6,0.3-9.2,1.8-13.5l0.6-1.8
		c0.3-0.6,0.5-1.2,0.8-1.8c0.1-0.3,0.3-0.6,0.4-0.9s0.3-0.6,0.5-0.9l1-1.8c0.2-0.3,0.3-0.6,0.5-0.9l0.6-0.9l1.3-1.7
		c0.4-0.6,0.9-1.1,1.4-1.7l0.7-0.8c0.1-0.1,0.2-0.3,0.4-0.4l0.4-0.4c1.1-1.1,2.2-2.1,3.4-3c0.6-0.4,1.2-1,1.9-1.4l2-1.2
		c0.3-0.2,0.7-0.4,1-0.6l1.1-0.5c0.7-0.3,1.5-0.7,2.2-1c1.5-0.6,3.1-1.1,4.7-1.5l1.2-0.3l0.6-0.2l0.6-0.1l2.5-0.4
		c0.9-0.1,1.7-0.1,2.6-0.2c0.4,0,0.9-0.1,1.3,0l1.3,0.1c1.8,0.1,3.5,0.2,5.3,0.6l2.6,0.6l0.7,0.2c0.2,0.1,0.4,0.1,0.6,0.2l1.3,0.4
		l1.3,0.4l1.3,0.6l1.3,0.6l0.6,0.3c0.2,0.1,0.4,0.2,0.6,0.3l2.4,1.4l2.3,1.6c6.2,4.6,10.7,11.1,12.8,18.6c0.2,0.9,0.5,1.8,0.7,2.7
		l0.4,2.8l0.1,0.7v0.7l0.1,1.4l0.1,1.4l-0.1,1.4l-0.1,1.4v0.7l-0.1,0.7c-0.1,0.9-0.3,1.8-0.4,2.7c-0.4,1.7-0.8,3.5-1.4,5.1l-0.4,1.2
		c-0.1,0.4-0.4,0.8-0.5,1.2c-0.4,0.8-0.7,1.6-1.1,2.4s-0.9,1.5-1.3,2.2l-0.3,0.6c-0.1,0.2-0.3,0.4-0.4,0.5l-0.7,1
		c-1,1.3-2,2.6-3.1,3.8c-0.6,0.6-1.2,1.1-1.8,1.7l-0.9,0.8c-0.3,0.3-0.6,0.5-0.9,0.7l-1.9,1.4c-0.6,0.4-1.3,0.8-2,1.2
		c-1.3,0.8-2.6,1.5-4,2.1l-0.5,0.2l-0.5,0.2l-1,0.4c-0.7,0.2-1.4,0.5-2.1,0.7l-2.1,0.5l-1,0.3l-1,0.2l-2,0.3c-0.3,0.1-0.7,0.1-1,0.1
		h-1c-0.7,0-1.3,0.1-2,0.1l-1.9-0.1c-4.6-0.2-9.1-1.3-13.2-3.3c-0.5-0.2-0.9-0.4-1.4-0.6l-1.2-0.7l-1.2-0.7
		c-0.2-0.1-0.4-0.2-0.6-0.3l-0.5-0.4l-2-1.4c-0.6-0.5-1.2-1-1.7-1.5l-0.8-0.7c-0.3-0.2-0.5-0.4-0.7-0.7l-1.4-1.2
		c-0.4-0.4-0.7-0.8-1-1.1l-0.8-1l-1-1.4C393.8,145.2,393.7,145.1,393.6,145.1l0.4,0.5c0.2,0.3,0.6,0.8,1,1.4l0.8,1
		c0.3,0.4,0.7,0.7,1,1.1l1.2,1.3c0.2,0.2,0.5,0.5,0.7,0.7l0.8,0.7c0.5,0.5,1.1,1,1.7,1.5l2,1.5l0.5,0.4c0.2,0.1,0.4,0.2,0.6,0.4
		l1.2,0.7l1.3,0.7l1.4,0.6c4.2,2,8.7,3.1,13.3,3.3l1.9,0.1c0.6,0,1.3-0.1,2-0.1l1-0.1c0.3,0,0.7,0,1-0.1l2-0.3l1-0.2l1-0.3l2.1-0.5
		c0.7-0.2,1.4-0.5,2.1-0.7l1-0.4c0.2-0.1,0.4-0.1,0.5-0.2l0.5-0.2c1.4-0.6,2.8-1.3,4.1-2.1c0.7-0.4,1.4-0.8,2-1.2l1.9-1.4
		c0.3-0.3,0.6-0.5,1-0.7l0.9-0.8c0.6-0.6,1.2-1.1,1.8-1.7c1.1-1.2,2.2-2.5,3.2-3.9c0.2-0.4,0.5-0.7,0.7-1c0.1-0.2,0.3-0.3,0.4-0.5
		l0.3-0.6l1.3-2.2c0.4-0.8,0.7-1.6,1.1-2.4c0.2-0.4,0.4-0.8,0.5-1.2l0.4-1.3c0.6-1.7,1.1-3.4,1.4-5.2c0.1-0.9,0.3-1.8,0.4-2.7
		l0.1-0.7v-0.7l0.1-1.4l0.1-1.4l-0.1-1.4l-0.1-1.4v-0.7l-0.1-0.7l-0.4-2.8c-0.2-0.9-0.5-1.8-0.7-2.8c-2.1-7.5-6.6-14.1-12.8-18.8
		l-2.3-1.7l-2.5-1.4c-0.2-0.1-0.4-0.2-0.6-0.3l-0.6-0.3l-1.3-0.6l-1.3-0.6l-1.3-0.4l-1.3-0.4l-0.6-0.2l-0.7-0.2
		c-0.9-0.2-1.8-0.4-2.6-0.6c-1.8-0.3-3.5-0.5-5.3-0.6l-1.3-0.1c-0.4,0-0.9,0-1.3,0c-0.9,0.1-1.8,0.1-2.6,0.2l-2.6,0.4l-0.6,0.1
		c-0.2,0-0.4,0.1-0.6,0.2l-1.2,0.3c-1.6,0.4-3.2,0.9-4.8,1.6c-0.8,0.3-1.5,0.7-2.2,1.1l-1.1,0.5c-0.4,0.2-0.7,0.4-1,0.6l-2,1.2
		c-0.7,0.4-1.3,0.9-1.9,1.4c-1.2,0.9-2.4,1.9-3.5,3l-0.4,0.4c-0.1,0.1-0.3,0.3-0.4,0.4s-0.5,0.6-0.7,0.8c-0.5,0.6-1,1.1-1.4,1.7
		l-1.3,1.8l-0.6,0.9c-0.2,0.3-0.4,0.6-0.5,0.9l-1,1.8c-0.2,0.3-0.3,0.6-0.5,0.9l-0.4,0.9c-0.3,0.6-0.6,1.2-0.8,1.8s-0.4,1.2-0.6,1.8
		c-1.5,4.4-2,9-1.7,13.6c0.2,3.5,0.9,6.9,2.2,10.2l0.4,1c0.1,0.3,0.2,0.6,0.4,0.9l0.8,1.6c0.3,0.5,0.5,0.9,0.7,1.4l0.7,1.1l0.9,1.4
		C393.5,144.9,393.6,145.1,393.6,145.1z"/>
</g>
<path class="st6" d="M407.3,114.5c0-2.1,0.7-4.1,2.1-6.2c1.3-2.1,3.3-3.8,5.8-5.2c2.5-1.3,5.5-2,8.8-2c3.1,0,5.9,0.6,8.3,1.8
	c2.2,1.1,4.1,2.7,5.5,4.8c1.2,1.9,1.9,4.2,1.9,6.5c0,1.7-0.4,3.3-1.2,4.8c-0.7,1.3-1.6,2.5-2.7,3.5c-1,1-2.9,2.7-5.6,5
	c-0.6,0.5-1.2,1.1-1.8,1.7c-0.4,0.4-0.7,0.9-1,1.4c-0.2,0.4-0.4,0.8-0.5,1.3c-0.1,0.4-0.3,1.2-0.6,2.2c-0.4,2.2-1.7,3.3-3.9,3.3
	c-1.1,0-2.1-0.4-2.8-1.1c-0.8-0.7-1.1-1.8-1.1-3.3c-0.1-3,1.1-6,3.2-8.2c1.2-1.2,2.5-2.4,3.8-3.5c1.4-1.2,2.4-2.1,3-2.7
	s1.1-1.3,1.6-2c0.4-0.7,0.7-1.6,0.7-2.4c0-1.7-0.6-3.3-1.9-4.4c-1.3-1.2-2.9-1.8-4.9-1.8c-2.4,0-4.1,0.5-5.3,1.7
	c-1.1,1.2-2.1,2.9-2.9,5.3s-2.2,3.6-4.2,3.6c-1.2,0-2.3-0.5-3-1.3C407.7,116.5,407.3,115.5,407.3,114.5z M422.6,150.1
	c-1.3,0-2.5-0.5-3.4-1.3c-1-0.9-1.4-2.1-1.4-3.6c0-1.3,0.5-2.5,1.5-3.4c0.9-0.9,2.2-1.4,3.5-1.3c2.6,0,4.7,2.1,4.8,4.7
	c0,0.1,0,0.1,0,0.2c0,1.5-0.5,2.7-1.5,3.5S423.9,150.1,422.6,150.1z"/>
<g>
	<path class="st2" d="M285.9,451.3l-70.2-22.5c-0.2-0.1-0.4-0.1-0.6-0.1l-54,4c-9.5-23-21.4-51.8-26.8-64.9c-1.8-4.4-5.9-7.5-10.6-8
		l-58.5-7.6c-2.2-0.3-4.2,1.3-4.5,3.5c-0.1,0.7,0,1.4,0.3,2l33,76.7c0.9,2.1,2.6,3.7,4.7,4.4l66.9,26.7c1.5,0.6,3.2,0.8,4.8,0.6
		l4.3-0.5l0,0c14.8-1.5,88-9,110.9-11.4c0.8,0,1.5-0.8,1.4-1.6C287,452,286.5,451.5,285.9,451.3z"/>
	<path class="st3" d="M285.9,451.3c0.5,0.2,0.8,0.5,1,1c0.2,0.6,0,1.3-0.5,1.7c-0.3,0.2-0.7,0.4-1.1,0.4l-1.3,0.1l-16.4,1.7
		l-60.4,6.3l-20,2.1l-10.6,1.1l-5.5,0.6c-1.9,0.3-3.8,0.1-5.6-0.6l-44.7-17.8l-11.9-4.8l-6.1-2.4l-3.1-1.2c-0.5-0.2-1-0.4-1.6-0.6
		c-0.5-0.2-1-0.5-1.5-0.9c-0.9-0.7-1.7-1.6-2.3-2.5c-0.6-1-0.9-2-1.4-3.1l-2.7-6.2c-1.8-4.2-3.6-8.4-5.4-12.6
		c-7.3-17-14.8-34.5-22.5-52.5l-1.1-2.5c-0.4-0.8-0.7-1.7-0.7-2.7c0.1-2,1.6-3.6,3.5-4c0.2,0,0.5,0,0.7-0.1h0.7l1.3,0.2l2.6,0.3
		l5.2,0.7l20.7,2.7l20.2,2.6l5,0.6c1.6,0.3,3.3,0.4,5,0.8c3.3,0.8,6.1,2.9,8,5.7c0.8,1.4,1.5,2.9,2.1,4.4s1.2,3,1.8,4.5l3.6,8.8
		l7.1,17.2c4.6,11.2,9.1,22,13.3,32.3l-0.2-0.1l52.6-3.9l1.5-0.1c0.3,0,0.5,0,0.8,0.1l0.7,0.2l2.6,0.9l5.3,1.7l10,3.3l17.7,5.7
		l24.8,8l6.5,2.1C285.1,451.1,285.9,451.3,285.9,451.3s-0.8-0.2-2.2-0.6l-6.5-2.1l-24.8-7.9l-17.7-5.7l-10.1-3.2l-5.3-1.7l-2.7-0.9
		c-0.4-0.2-0.9-0.3-1.3-0.4l-1.5,0.1l-52.6,4h-0.1l-0.1-0.1c-4.2-10.3-8.7-21-13.3-32.2l-7.1-17.2c-1.2-2.9-2.4-5.8-3.6-8.8
		c-0.6-1.5-1.2-3-1.8-4.5c-0.5-1.5-1.2-3-2.1-4.4c-1.8-2.7-4.5-4.7-7.7-5.5c-1.6-0.4-3.2-0.5-4.9-0.7l-5-0.6l-20.2-2.6l-20.7-2.7
		l-5.3-0.7l-2.6-0.4c-0.8-0.2-1.7-0.2-2.6-0.2c-1.7,0.3-3,1.7-3.1,3.5c0,0.9,0.2,1.7,0.6,2.5l1.1,2.5l22.5,52.5
		c1.8,4.2,3.6,8.4,5.4,12.6c0.9,2.1,1.8,4.1,2.7,6.2c0.4,1,0.8,2.1,1.4,3c0.5,0.9,1.3,1.8,2.1,2.4c0.4,0.3,0.9,0.6,1.4,0.8
		c0.5,0.2,1,0.4,1.5,0.6l3.1,1.2l6.1,2.4l12,4.8l44.7,17.9c1.7,0.7,3.6,0.9,5.4,0.6l5.5-0.6l10.6-1.1l20-2l60.5-6.1l16.4-1.6
		l1.3-0.1c0.4,0,0.8-0.1,1.1-0.4c0.5-0.4,0.7-1,0.5-1.6c-0.1-0.4-0.3-0.7-0.6-0.8C286,451.4,285.9,451.3,285.9,451.3z"/>
	<polygon class="st0" points="195.5,437.4 221.8,448.4 254.6,445 227,433.6 	"/>
	<polygon class="st0" points="175.6,458.2 227,453.6 178,434.1 162.2,435.3 170.5,455.4 	"/>
	<path d="M280.8,451.3l-0.4,0.1l-1,0.1l-4,0.4l-14.9,1.5l-49,4.6l-38.5,3.5h-0.2l-0.1-0.1l-8.5-20.8l-2.3-5.8
		c-0.3-0.7-0.5-1.2-0.6-1.5c-0.1-0.2-0.1-0.4-0.2-0.5c0,0,0.1,0.2,0.3,0.5l0.7,1.5l2.4,5.8c2.1,5,5.1,12.1,8.7,20.8l-0.2-0.1
		l38.5-3.6l49-4.4l14.8-1.3l4-0.3l1-0.1L280.8,451.3z"/>
	<path d="M62.7,354.9h0.4l1.3,0.1l5,0.6l18.3,2.5c7.7,1.1,17,2.4,27.2,3.9l7.8,1.2l2,0.3c0.3,0,0.7,0.1,1,0.2c0.2,0,0.4,0.1,0.5,0.1
		c0.8,0.3,1.6,0.8,2.3,1.5c0.3,0.3,0.5,0.6,0.6,1l0.4,1c2.1,5.2,4.3,10.6,6.5,16.2c8.8,22.1,16.8,42.2,22.6,56.8
		c2.9,7.3,5.2,13.1,6.8,17.2c0.8,2,1.4,3.6,1.8,4.7c0.2,0.5,0.4,0.9,0.5,1.2c0.1,0.1,0.1,0.3,0.1,0.4c-0.1-0.1-0.1-0.3-0.2-0.4
		l-0.5-1.2l-1.9-4.6c-1.6-4.1-4-9.9-7-17.2l-22.7-56.7c-2.2-5.5-4.4-10.9-6.5-16.2l-0.4-1c-0.1-0.3-0.3-0.6-0.5-0.8
		c-0.4-0.5-1-0.9-1.6-1.1c-0.1-0.1-0.3-0.1-0.5-0.2l-0.5-0.1c-0.3-0.1-0.6-0.1-1-0.2l-2-0.4l-7.8-1.2l-27.2-4l-18.3-2.7l-5-0.7
		l-1.3-0.2L62.7,354.9z"/>
	<path class="st1" d="M114.4,400.9c2.5,3.4,3,7.2,1.1,8.6s-5.4-0.2-7.9-3.5s-3-7.2-1.1-8.6S111.9,397.5,114.4,400.9z"/>
	<path class="st6" d="M430.8,343.8c-3.4-19-24.4-30.5-31.3-36.8l10.4,14c5.3,22,7.4,44.7,6,67.3c-0.1,2.5,0.1,5.8,1.9,6.1
		c0.6,0.1,1.3-0.1,1.8-0.5c6.2-4,10.2-13,11-22.3S432.3,352.6,430.8,343.8z"/>
	<path class="st4" d="M415.4,322.5c-1-1.9-0.6-8-6-1.6l-0.4-2.4l-33.4-25.7l-74.5,3.9c-7.1,0.5-17.9,12.8-20.6,18
		c-2.2,19.2-2.6,36.3-2.6,36.3s-2.6,21.4,0,31.5s5.6,13.8,9.5,21.6c2.9,5.4,6.5,10.3,10.7,14.7l3.5,27l77.8,7l35.6-2
		c0,0-3.2-53.3-3.2-54.2c0-0.4,4.5-10.7,9.2-21.6C429.3,356.3,424.8,340.5,415.4,322.5z"/>
	<path class="st4" d="M220,419.3c0.4,0,4.3-26.3,6.8-32.3c2.4-5.6,53.8-72.5,53.8-72.5l12.1,39l-5.2,20.9l-28,33.7l-7.9,24.4
		L220,419.3z"/>
	<path class="st4" d="M425.8,342.5c-3.7-23.4-21.9-22.4-21.9-22.4l-18.1,31.5v65.2l-87.4,7.6l-1.6,21.9c0,0,87,19.9,107.2,13.2
		c13.3-4.4,24.5-15.5,25.8-33.7S429.5,365.9,425.8,342.5z"/>
	<path d="M259.6,408.1c-0.3-1.5-0.6-3-1-4.4c-2.2-7.1-8-12.5-15.2-14.3c-1.5-0.3-3-0.6-4.5-0.8c0.4,0,0.8,0,1.2,0
		c1.1,0,2.2,0.2,3.3,0.4c7.4,1.6,13.4,7.2,15.5,14.6c0.3,1.1,0.5,2.2,0.6,3.3C259.6,407.3,259.6,407.7,259.6,408.1z"/>
	<path d="M301.4,423.4c0.1,0,0.3-0.1,0.4-0.1l1.1-0.2l4.3-0.6l15.8-2l52-6.3l11.6-1.4l-0.2,0.3c0.7-17.7,1-33.3,0.9-44.5
		c0-5.6-0.1-10.1-0.2-13.2c0-1.5-0.1-2.7-0.1-3.5V351c0-0.2,0-0.3,0-0.3c0,0.1,0,0.2,0,0.3c0,0.2,0,0.5,0.1,0.9c0,0.8,0.1,2,0.2,3.5
		c0.1,3.1,0.3,7.6,0.4,13.2c0.2,11.2-0.1,26.8-0.7,44.5v0.2h-0.2l-11.6,1.4l-52,6.2l-15.8,1.8l-4.3,0.5l-1.1,0.1L301.4,423.4z"/>
	<path d="M430.9,423.4c0,0.1,0,0.3,0,0.4c0,0.3,0,0.7-0.1,1.2c-0.1,1.5-0.3,3-0.5,4.5c-0.4,2.3-1,4.6-1.7,6.9c-1,3-2.4,5.8-4.1,8.5
		c-2.1,3.2-4.6,6.1-7.7,8.4c-3.5,2.7-7.5,4.6-11.8,5.6c-2.3,0.6-4.6,0.9-7,1.2c-2.5,0.2-4.9,0.3-7.4,0.3c-5.2-0.1-10.3-0.6-15.4-1.4
		l-29.5-4.9l-12.9-2.1l-11.2-2.1c-6.8-1.3-12.4-2.3-16.2-2.8l-4.4-0.6l-1.1-0.2c-0.1,0-0.3,0-0.4-0.1h0.4l1.2,0.1
		c1,0.1,2.5,0.3,4.5,0.5c3.9,0.5,9.4,1.4,16.3,2.7l11.2,2l12.9,2.1l29.5,4.8c5.1,0.9,10.2,1.4,15.4,1.5c2.5,0,4.9-0.1,7.3-0.3
		c2.3-0.2,4.6-0.6,6.9-1.1c4.2-1,8.2-2.9,11.6-5.5c3-2.3,5.6-5.1,7.6-8.3c1.7-2.6,3.1-5.4,4.1-8.4c0.8-2.2,1.4-4.5,1.8-6.8
		c0.3-1.9,0.5-3.4,0.6-4.4l0.1-1.2C430.9,423.7,430.9,423.6,430.9,423.4z"/>
	<path d="M299,425c0-0.1-0.1-0.3-0.1-0.4c0-0.3-0.1-0.7-0.2-1.2c-0.2-1.1-0.4-2.7-0.7-4.7v0.1l-6.6-7.3l0,0
		c-1.3-1.8-2.5-3.8-3.5-5.8c-1.2-2.3-2.2-4.6-3.1-7c-2-5.4-3.3-11-4-16.7c-0.7-6.2-0.8-12.4-0.4-18.6c0.3-5.7,0.9-10.8,1.5-15.1
		s1.1-7.7,1.5-10.1l0.5-2.7c0-0.3,0.1-0.5,0.1-0.7c0-0.1,0-0.2,0.1-0.2c0,0.1,0,0.2,0,0.2c0,0.2,0,0.4-0.1,0.7
		c-0.1,0.7-0.2,1.6-0.4,2.8c-0.3,2.4-0.8,5.9-1.3,10.1s-1,9.4-1.3,15.1c-0.4,6.2-0.2,12.4,0.5,18.5c0.7,5.7,2,11.2,3.9,16.6
		c0.9,2.4,1.9,4.7,3,6.9c1,2,2.2,3.9,3.4,5.7l0,0l6.5,7.4l0,0l0,0l0.5,4.7c0,0.5,0.1,0.9,0.1,1.2C299.1,424.7,299.1,424.9,299,425z"
		/>
	<path d="M399.1,427.5c-0.7-0.7-1.3-1.5-1.8-2.3c-1.1-1.5-2.6-3.5-4.4-5.6s-3.5-4-4.7-5.3c-0.7-0.7-1.4-1.4-2-2.2
		c0.8,0.6,1.6,1.2,2.2,1.9c1.7,1.7,3.3,3.4,4.9,5.3c1.5,1.8,3,3.7,4.3,5.7C398.2,425.7,398.7,426.6,399.1,427.5z"/>
	<path class="st8" d="M241.3,422.5c-0.7-4.3-4.6-7.6-4.6-7.6s-1.9-5.2-4.6-6.6s-5,1.4-7.4,0.6s-7.6-0.9-9.3,0s-3.7,6.1-3.7,6.1
		c-1.7,0.1-3.3,0.5-4.8,1.3c-1.3,0.7-2.4,1.6-3.2,2.7c-1.5-0.6-3.2-0.2-4.2,1s-1.8,2.6-2.2,4.1l-1.3,3.5c-0.3,0.5-0.4,1.1-0.3,1.7
		c0.2,1,1.1,1.7,2.1,1.8c1,0,2-0.4,2.7-1.2c0.7-0.7,1.3-1.4,1.8-2.2l0.3,2.3c0,0,0.6,3.7,3.5,3.9c2.1,0.2,4.3-2.2,4.3-2.2l5.2-0.6
		l0.7,5.2c0.7,2.1,2.7,3.4,4.8,3.3c1.9,0,4.3-3.1,4.3-3.1l4.8,1.9c0,0,5.6,3.9,8.2,2.6c1.5-0.8,2.3-2.5,1.9-4.1
		c1.1-1.3,2-2.7,2.6-4.3C243.4,430.5,242.1,426.8,241.3,422.5z"/>
	<path class="st9" d="M202.3,429.3c-0.2-1.8-0.1-3.7,0.2-5.5c0.2-1.8,0.6-3.6,1.3-5.3c0.1,0-0.4,2.4-0.8,5.4
		S202.5,429.3,202.3,429.3z"/>
	<path class="st9" d="M210.4,424.4c0.3,1.3,0.5,2.6,0.4,3.9c0.1,0.9,0,1.9-0.3,2.8c-0.3,0.7-0.7,1-0.7,0.9s0.2-0.4,0.4-1
		c0.2-0.9,0.2-1.8,0.1-2.6C210.2,427,210.2,425.7,210.4,424.4z"/>
	<path class="st9" d="M213.9,422.2c0.1,0.1-0.6,1-1.5,1.9s-1.8,1.7-1.9,1.6s0.6-1,1.5-1.9S213.8,422.1,213.9,422.2z"/>
	<path class="st9" d="M214.6,412.2c0.1,0.9,0.2,1.9,0.1,2.8c0,1.8,0.1,4.1,0.2,6.8s0.4,5,0.5,6.8c0.1,0.9,0.2,1.9,0.2,2.8
		c-0.3-0.9-0.5-1.8-0.5-2.8c-0.3-1.7-0.5-4.1-0.7-6.8s-0.1-5.1-0.1-6.8C214.3,414.1,214.4,413.1,214.6,412.2z"/>
	<path class="st9" d="M234.1,414.2c0,0-0.2,0.5-0.6,1.4c-0.5,1.3-0.9,2.6-1.2,3.9c-0.2,0.9-0.4,1.8-0.6,2.8
		c-0.2,1.1-0.5,2.1-0.9,3.2c-0.4,1.2-1.2,2.2-2.1,3c-1.1,0.9-2.5,1.3-3.8,1c-0.7-0.2-1.3-0.5-1.8-1.1c-0.4-0.5-0.7-1.2-0.8-1.9
		c-0.1-1.2-0.2-2.4-0.1-3.7c0.1-2,0.4-4.1,0.9-6.1c0.3-1.3,0.8-2.6,1.3-3.9c0.2-0.5,0.3-0.8,0.5-1c0.1-0.1,0.1-0.2,0.2-0.3
		c-0.1,0.5-0.3,1-0.5,1.4c-0.5,1.3-0.8,2.6-1.1,3.9c-0.5,2-0.7,4-0.8,6c-0.1,1.2,0,2.4,0.1,3.5c0.1,0.6,0.3,1.1,0.7,1.6
		c0.4,0.4,0.9,0.8,1.5,0.9c1.2,0.3,2.5,0,3.4-0.9c0.9-0.7,1.6-1.7,2-2.8c0.6-1.9,1.1-3.9,1.6-5.9c0.3-1.3,0.8-2.7,1.3-3.9
		c0.2-0.3,0.3-0.7,0.5-1C234,414.3,234,414.2,234.1,414.2z"/>
	<path class="st9" d="M236,416.4c-0.3,2.3-2,4.1-4.3,4.5c0.9-0.6,1.7-1.2,2.5-1.9C234.9,418.2,235.5,417.3,236,416.4z"/>
	<path class="st9" d="M225.3,429.4c0.3,1.4,0.4,2.8,0.3,4.2c-0.1,1.3-0.2,2.5-0.5,3.7v0.1l0,0c-0.1,0.1-0.3,0-0.4-0.1c0,0,0,0,0-0.1
		s0-0.1,0-0.1s0,0,0.1,0.1s0.1,0.1,0.2,0l-0.1,0.1c0-0.7,0.1-2.1,0.2-3.7C225,432.1,225.1,430.7,225.3,429.4z"/>
	<path class="st9" d="M237,425.2c-0.4,0.6-0.8,1.2-1.4,1.8c-1.1,1.3-2.2,2.8-3,4.3s-1.3,3.2-1.4,5c0,1.4,0.2,2.2,0.1,2.2
		c-0.4-0.7-0.5-1.4-0.5-2.2c0-1.8,0.4-3.6,1.3-5.3c0.9-1.6,2-3,3.2-4.3C235.9,426.2,236.5,425.7,237,425.2z"/>
	<path class="st8" d="M235,434.4c-0.6-2.3,0.3-4.8,2.3-6.1c3.5-2.5,13.9-9,14.2-9s12.3-4,17.3-4.5s27.3,10.5,27.3,10.5
		s5.1,7.4,4.3,14.5s-5.5,7.5-5.5,7.5l-6.4-1.6l-6.6-1.3c0,0-14.7,4.1-17,3.3s-3.1-3.3-0.6-4.6s9.7-3.5,9.7-3.5l5.5-2.3l-18,2.6
		c0,0-15.2,3-17,2.6s-2-1.8-2.2-3c0,0-6.1,3-7.9,1.4S231.6,435.8,235,434.4z"/>
	<path class="st9" d="M273.8,430.1c-0.4,0.1-0.9,0.1-1.4,0.1c-0.9,0-2.1,0-3.6,0.1c-1.8,0.1-3.6,0.3-5.3,0.8c-1,0.3-2,0.6-3,1.1
		s-2,1-3,1.6s-2.1,1.1-3.2,1.5c-1,0.4-2.1,0.6-3.2,0.7c-1.8,0-3.6,0.2-5.3,0.6c-1.1,0.4-2.2,1.1-2.9,2c-0.3,0.4-0.5,0.7-0.7,1.1
		c0,0,0-0.1,0.1-0.4s0.3-0.6,0.4-0.9c0.7-1,1.8-1.8,3-2.2c1.8-0.5,3.6-0.7,5.4-0.7c2.2-0.3,4.3-1,6.1-2.2c1-0.6,2-1.1,3.1-1.6
		c1-0.5,2-0.8,3.1-1.1c1.8-0.4,3.6-0.6,5.4-0.6c1.6,0,2.8,0,3.7,0.1C272.9,429.9,273.4,430,273.8,430.1z"/>
	<path class="st9" d="M268.4,422.5c-0.1,0.1-0.2,0.1-0.3,0.2c-0.2,0.1-0.5,0.2-1,0.4c-1.2,0.4-2.5,0.7-3.8,0.9
		c-1.6,0.3-3.5,0.5-5.5,1c-2.2,0.7-4.3,1.6-6.3,2.8c-3.7,2.1-7.5,3.8-11.5,5.2c-1.5,0.5-2.8,0.9-3.6,1.2c-0.4,0.2-0.9,0.3-1.4,0.4
		c0.4-0.2,0.8-0.4,1.3-0.5l3.6-1.4c3.9-1.5,7.7-3.3,11.4-5.3c2-1.2,4.2-2.1,6.4-2.8c1.9-0.4,3.7-0.7,5.6-0.9
		c1.3-0.2,2.5-0.4,3.7-0.7C267.5,422.7,267.9,422.6,268.4,422.5z"/>
	<path class="st9" d="M283,426.8c-0.1-0.4-0.2-0.8-0.3-1.2c-0.5-1.9-1.9-3.4-3.7-4.1c-0.4-0.1-0.8-0.2-1.2-0.4
		c0-0.1,0.5-0.1,1.3,0.1c1,0.3,1.9,0.8,2.6,1.6c0.7,0.8,1.2,1.8,1.3,2.8C283.2,425.9,283.2,426.4,283,426.8z"/>
	<path class="st9" d="M291.3,438c0-0.6-0.1-1.1-0.1-1.7c-0.3-1.3-1.1-2.4-2.2-3.3c-1.1-0.8-2.3-1.4-3.6-1.9
		c-0.6-0.1-1.1-0.4-1.6-0.7c0.6,0,1.2,0.1,1.7,0.3c1.4,0.4,2.7,1,3.8,1.8c1.2,0.9,2,2.2,2.2,3.6C291.7,436.8,291.6,437.5,291.3,438z
		"/>
	<path class="st9" d="M242.3,439.6c-0.3,0.2-0.5,0.4-0.9,0.5c-0.8,0.4-1.7,0.7-2.6,1c-0.6,0.2-1.2,0.4-1.9,0.5
		c-0.8,0.1-1.5,0-2.3-0.2c-0.8-0.3-1.5-0.9-1.8-1.8c-0.4-0.8-0.6-1.7-0.5-2.7c0.1-0.7,0.5-1.3,1-1.8c0.5-0.4,1-0.7,1.5-1l-0.1,0.3
		c-0.4-1.2-0.3-2.6,0.3-3.8c0.5-0.9,1.1-1.7,1.9-2.3c0.5-0.4,1-0.8,1.6-1.1c0.2-0.1,0.4-0.2,0.6-0.3c0,0.1-0.8,0.6-2,1.6
		c-0.7,0.6-1.3,1.4-1.7,2.3c-0.5,1.1-0.6,2.3-0.2,3.4l0.1,0.2l-0.2,0.1c-0.9,0.5-2.1,1.2-2.2,2.4c-0.1,0.8,0.1,1.6,0.4,2.4
		c0.3,0.7,0.8,1.3,1.5,1.5c0.6,0.2,1.3,0.3,2,0.3c0.6-0.1,1.2-0.3,1.8-0.4c1.1-0.3,2-0.6,2.6-0.8C241.6,439.8,242,439.7,242.3,439.6
		z"/>
	<path class="st6" d="M319.8,237.3c-2-19.8-4-25-5-40.5c-0.4-5.5-0.6-13.9,0.3-24.4c-5.8,3.3-11.6,6.6-17.5,9.9
		c-2.4,3-5.8,7.9-7.8,14.6c-0.7,2.1-1.9,6.8-1.7,17.6c0.1,3.5,0.4,10.8,3,25.7c3.7,21.3,7,26.5,9.4,29.6c1.9,2.4,6.9,8.8,11.1,7.7
		c4.5-1.1,5.9-9.8,7.1-17.3C320.5,249.7,320.2,241.4,319.8,237.3z"/>
	<path class="st8" d="M294.5,210.8c0-14.1,8.3-31.9,22.4-31.2l44.3,8.4c4.3,0.2,7.7,3.6,7.9,7.9l1.7,105.5h0.3
		c0,0-15.4,38.7-44.8,31.4c-5.8-1.4-1.5-16-3.1-22.3l-0.3,0.1c-0.1-0.8-0.1-1.5-0.2-2.2c-0.9-4.8-1.2-9.6-1.1-14.4l0,0
		c-0.6-8.5-0.8-12-0.8-11.9s-18.1-1.9-23.2-25C295,245.5,294.5,226.4,294.5,210.8z"/>
	<path class="st3" d="M297.8,194.7c8.5-3,15.9-3.8,20.8-4c8.8-0.3,15.8-0.5,23.1,2.9c1.6,0.8,3.9,2,4.6,1.3c1-1-1.8-6.1-5.6-9.2
		c-5.8-4.8-13.1-4.6-18.8-4.5c-4.1,0.1-10.6,0.8-18.2,4.1c-1.1,1.1-2.3,2.5-3.5,4.3C299.2,191.5,298.4,193.3,297.8,194.7z"/>
	<path class="st3" d="M302.3,229.2c0.1,1.6,1.4,2.9,3.1,2.9c1.6,0,2.9-1.2,2.9-2.8v-0.1c-0.1-1.6-1.4-2.9-3.1-2.9
		C303.7,226.3,302.4,227.5,302.3,229.2C302.3,229.1,302.3,229.2,302.3,229.2z"/>
	<path class="st3" d="M331.4,227.6c0.1,1.6,1.4,2.9,3.1,2.9c1.6,0,2.9-1.2,2.9-2.8v-0.1c-0.1-1.6-1.5-2.9-3.1-2.9
		C332.8,224.7,331.5,225.9,331.4,227.6C331.4,227.5,331.4,227.5,331.4,227.6z"/>
	<path class="st3" d="M320.7,243.8c0-0.2-2-0.4-5.3-0.6c-0.8,0-1.6-0.2-1.8-0.7c-0.1-0.8,0-1.7,0.4-2.5c0.7-2,1.3-4.2,2.1-6.4
		c2.9-9.1,4.9-16.6,4.5-16.7s-3,7.2-5.8,16.3l-2,6.5c-0.5,1-0.5,2.2-0.2,3.3c0.3,0.6,0.8,1,1.4,1.1c0.5,0.1,0.9,0.1,1.4,0.1
		C318.7,244.1,320.7,243.9,320.7,243.8z"/>
	<path class="st9" d="M320.8,282.1c11-0.5,21.7-4,30.8-10.2c0,0-6.9,16.8-30.4,16L320.8,282.1z"/>
	<path class="st9" d="M322.6,251.5c1.2-1.6,3.1-2.6,5.1-2.5c1.4,0,2.8,0.7,3.8,1.7s1.1,2.6,0.5,3.8c-1,1.2-2.6,1.8-4.2,1.3
		c-1.6-0.4-3-1.2-4.3-2.2c-0.4-0.2-0.7-0.5-1-0.9c-0.3-0.3-0.3-0.8-0.1-1.2"/>
	<path class="st3" d="M330.3,245.4c-0.5,0-0.3,3.5-3.2,6.2s-6.6,2.5-6.6,3c0,0.2,0.9,0.6,2.5,0.6c2.1-0.1,4-0.9,5.5-2.3
		c1.5-1.3,2.3-3.2,2.4-5.2C331,246.2,330.6,245.4,330.3,245.4z"/>
	<path class="st3" d="M329.4,208.9c0.4,0.9,3.6,0.3,7.4,0.5s6.9,1.1,7.4,0.3c0.2-0.4-0.4-1.2-1.7-2c-3.5-1.9-7.6-2.1-11.3-0.6
		C329.9,207.8,329.3,208.5,329.4,208.9z"/>
	<path class="st3" d="M299.9,211c0.6,0.7,2.8-0.2,5.5-0.4s5,0.2,5.4-0.6c0.2-0.4-0.2-1.1-1.2-1.7c-2.8-1.5-6.3-1.2-8.8,0.8
		C299.9,209.9,299.6,210.7,299.9,211z"/>
	<path class="st6" d="M386.4,187.5c-6.1-8.6-11.9-15.6-22.1-20.5c-20.7-10-48.7-4.1-63.5,11.6c-1.5,1.6-2.6,3-3.4,4.1
		c-1.1,2-0.8,2.8-0.5,3.1c0.9,1.3,4.7,0.5,7.2-0.6c0.9-0.4,2.2-0.9,3.8-1.4c3.5-1.1,13.1-3.9,23.3,0.2c8.8,3.6,13.6,10.5,15.3,13
		c0.5,0.7,0.8,1.2,1,1.6c4,6.4,6.4,14.7,7.1,17.1c0.5,1.8,0.9,3.4,0.9,3.7c0.1,0.4,1.3,5.7,1.6,11.7c0.3,5.3,0.8,14.3-2.4,25.2
		c-2.1,7.3-3.5,12-8,16.4c-7.1,6.9-16.2,7.4-19.1,7.6c-11.6,0.7-19.9-5-22.5-7c7.1,7.4,14.2,14.7,21.4,22.1l32.3,0.1l37.6,0.1
		c0,0,4.4-3.9,8.3-13.8C414.4,257,402.7,210.2,386.4,187.5z"/>
	<path class="st6" d="M413.3,320.2c0,0-8.1-16.6-18.7-25.8s-17.1-9-32.1-7.8s-36.2,3.7-41.2,2.4l-0.5-7c-2.5-0.3-12.6-5.2-14.6-8.2
		c-3.8,3.9-5.4,8-4.6,12.4l-2.5,0.9c-7.5,2.8-11.8,10.7-9.9,18.5c0.9,3.6,3.2,5.8,7.8,6.6c18.1,3.1,66.5-10,81.1-10
		S413.3,320.2,413.3,320.2z"/>
	<path class="st3" d="M295.3,312.2c0.4,0,0.8,0,1.3,0.1c0.8,0.1,2,0.2,3.6,0.3c4.4,0.3,8.8,0.4,13.3,0.2c6.5-0.3,13.1-1.2,19.5-2.6
		c3.6-0.8,7.4-1.8,11.3-2.9l11.9-3.7c8.2-2.5,16.4-4.2,23.9-3.5c6.6,0.6,13,2.7,18.8,6c3.9,2.3,7.3,5.1,10.3,8.4
		c0.8,0.9,1.6,1.8,2.3,2.8c0.3,0.3,0.5,0.6,0.7,1c-0.3-0.3-0.6-0.6-0.8-0.9c-0.5-0.6-1.3-1.6-2.4-2.7c-7.6-8-17.9-12.9-28.9-13.9
		c-7.4-0.7-15.4,1-23.6,3.5c-4.1,1.2-8.1,2.5-12,3.7s-7.7,2.1-11.3,2.8c-6.4,1.4-13,2.2-19.6,2.5c-4.4,0.1-8.9,0-13.3-0.5
		c-1.6-0.2-2.8-0.3-3.6-0.5C296.2,312.3,295.8,312.3,295.3,312.2z"/>
	<path class="st6" d="M414.1,314.8c-18.3-23.7-53.3-32.8-80.8-20.9l-29,6.1c-7.6,1.3-19.9,3.8-20.5,10.9c-0.5,7.5,1.1,15,4.7,21.6
		c6.7,11.7,3.1,27.5,9.8,39.2c3.2,5.5,6.4,11.2,11.1,15.6s10.9,7.5,17.3,6.8c7.1-0.8,12.9-5.9,17.4-11.5
		c9.7-11.9,15.7-26.3,24.8-38.7s19.8-21.5,38.8-22.6c3.5-0.2,13.3,4.4,13.3,4.4C421.4,324.3,415,315.9,414.1,314.8z"/>
	<g class="st5">
		<path d="M375.1,300.6c-12.6,0-25,6.1-37.2,8.8c-49.2,10.8-49.2-7.7-49.2-7.7l0,0c-1.5,8.7,6.6,12.7,15.3,14.7
			c16.4,3.8,34,5.8,45.9,2c9.6-3,19.5-5.2,29.2-8s23.5-1.7,30.9,5.1C403.3,304.8,387.7,300.6,375.1,300.6z"/>
	</g>
	<g class="st5">
		<path d="M311.2,299.3c1.2,2.6,3.5,4.6,6.2,5.4s5.6,1,8.4,0.7c10.3-0.7,20.2-4.1,29.9-7.5c-7.8-0.3-15.3,2.4-22.9,4
			s-16.2,1.7-22.4-3"/>
	</g>
	<path d="M416.6,322.4c0,0-0.1-0.1-0.2-0.2l-0.6-0.7c-0.5-0.6-1.3-1.5-2.4-2.6c-3-3.2-6.7-5.7-10.7-7.4c-2.8-1.1-5.8-1.7-8.8-1.9
		c-3.4-0.3-6.9-0.2-10.3,0.3c-7.3,1-14.9,3.5-23.1,5.9s-15.9,4.7-23.3,5.1c-6.5,0.3-13-0.2-19.5-1.4c-5.5-1-9.8-2.2-12.8-2.9
		l-3.5-0.9l-0.9-0.2l-0.3-0.1c0.1,0,0.2,0,0.3,0l0.9,0.2l3.5,0.8c3,0.7,7.4,1.8,12.8,2.7c6.4,1.2,12.9,1.6,19.4,1.3
		c7.3-0.4,15.1-2.7,23.2-5.1s15.8-4.9,23.1-5.9c3.5-0.5,7-0.6,10.4-0.3c7.5,0.4,14.6,3.9,19.6,9.5c1.1,1.1,1.9,2,2.4,2.7l0.6,0.7
		L416.6,322.4z"/>
	<path d="M398.2,297.9c-0.1,0-0.1-0.1-0.2-0.2l-0.6-0.5c-0.5-0.5-1.3-1.1-2.3-2c-2.9-2.3-6-4.3-9.4-5.8c-5-2.3-10.3-3.8-15.7-4.5
		c-6.7-0.8-13.4-0.8-20.1,0c-6.7,0.9-13.3,2.1-19.8,3.7c-2.9,0.7-5.9,0.9-8.8,0.7c-2.6-0.2-5.1-1.1-7.2-2.6
		c-1.7-1.3-3.2-2.9-4.3-4.7c-0.9-1.4-1.6-2.8-2.2-4.3c-0.5-1.2-0.9-2.2-1.1-2.8l-0.2-0.8c0-0.1-0.1-0.2-0.1-0.3c0,0,0,0.1,0.1,0.2
		s0.2,0.4,0.3,0.7c0.3,0.6,0.6,1.6,1.2,2.8c0.7,1.4,1.4,2.8,2.3,4.2c1.1,1.8,2.6,3.3,4.3,4.6c2.1,1.5,4.5,2.3,7.1,2.5
		c2.9,0.2,5.8-0.1,8.7-0.7c6.6-1.6,13.2-2.9,19.9-3.7c6.7-0.9,13.5-0.9,20.2,0c5.5,0.7,10.8,2.3,15.8,4.7c3.4,1.6,6.5,3.6,9.4,6
		c0.8,0.7,1.5,1.3,2.2,2.1L398.2,297.9C398.2,297.8,398.2,297.9,398.2,297.9z"/>
	<path d="M392.3,297.4H392l-0.7-0.1l-2.9-0.5c-3.5-0.5-7-0.9-10.5-1.1c-5.2-0.3-10.5-0.1-15.7,0.5c-6.4,0.9-12.7,2.1-18.9,3.7
		c-6.6,1.6-13.1,3-19.1,2.9c-2.8,0-5.6-0.3-8.4-1c-2.4-0.7-4.6-1.9-6.5-3.5c-2.7-2.3-4.9-5.2-6.4-8.4c-0.6-1.2-1.1-2.4-1.4-3.6
		c0,0.1,0.1,0.1,0.1,0.2l0.3,0.7c0.3,0.6,0.6,1.5,1.2,2.6c1.6,3.2,3.8,6,6.5,8.3c1.8,1.6,4,2.7,6.4,3.4c2.7,0.7,5.5,1,8.3,1
		c5.9,0,12.3-1.3,19-2.9c6.3-1.6,12.6-2.9,19-3.7c5.2-0.6,10.5-0.7,15.8-0.4c3.5,0.2,7.1,0.6,10.6,1.2c1.2,0.2,2.2,0.4,2.8,0.6
		l0.7,0.2C392.3,297.4,392.3,297.4,392.3,297.4z"/>
	<path d="M393.3,252.5c-0.1,0.6-0.2,1.1-0.4,1.7c-0.2,0.7-0.3,1.3-0.6,1.9c-0.3,0.8-0.5,1.6-0.9,2.5s-0.8,1.9-1.3,3
		s-1.1,2.1-1.8,3.3c-2.9,4.9-6.7,9.3-11.2,12.8c-1,0.8-2,1.6-3,2.2s-1.9,1.2-2.8,1.7s-1.7,0.9-2.4,1.2c-0.6,0.3-1.2,0.6-1.9,0.8
		c-0.5,0.2-1.1,0.4-1.6,0.6c0.5-0.3,1-0.6,1.5-0.8c0.5-0.2,1.1-0.5,1.8-0.9s1.5-0.8,2.3-1.3s1.8-1.1,2.7-1.7s1.9-1.4,3-2.2
		c4.4-3.6,8.2-7.8,11.1-12.7c0.6-1.1,1.3-2.2,1.8-3.2s1-2,1.4-2.9s0.7-1.7,1-2.5c0.3-0.7,0.5-1.4,0.6-1.9
		C392.9,253.6,393,253.1,393.3,252.5z"/>
	<path d="M391.7,312.2c-0.3,0-0.5,0-0.8-0.1l-1-0.1c-0.4,0-0.8,0-1.3-0.1c-2.8-0.1-5.6,0.4-8.3,1.3c-1.8,0.6-3.6,1.4-5.4,2.3
		c-2,1-3.9,2.2-5.8,3.4c-3.9,2.6-8.1,5.9-12.5,9.1L334,344.8l-6.9,5l-1.9,1.3c-0.2,0.2-0.4,0.3-0.7,0.4c0.2-0.2,0.4-0.4,0.6-0.5
		l1.8-1.4l6.8-5.1l22.5-16.8c4.4-3.2,8.5-6.5,12.5-9.1c1.9-1.2,3.8-2.4,5.8-3.4c1.8-0.9,3.6-1.6,5.5-2.3c2.7-0.9,5.6-1.3,8.4-1.1
		c0.5,0,1,0,1.3,0.1l1,0.2C391.2,312,391.5,312.1,391.7,312.2z"/>
	<path d="M424,342.8c-0.2-0.5-0.3-0.9-0.4-1.4c-0.2-0.9-0.6-2.2-1.1-3.9c-0.5-1.9-1.2-3.8-2-5.5c-1-2.2-2.4-4.2-4-5.9
		c-1.7-1.7-3.8-3-6.1-3.7c-1.9-0.5-3.9-0.7-5.8-0.5c-1.8,0.2-3.6,0.5-5.4,0.9c0.1-0.1,0.2-0.1,0.4-0.2c0.2-0.1,0.6-0.2,1-0.3
		c1.3-0.4,2.6-0.6,4-0.8c2-0.2,4-0.1,6,0.4c2.4,0.7,4.6,2,6.3,3.8c1.7,1.8,3.1,3.8,4.1,6.1c0.8,1.8,1.5,3.7,2,5.6
		c0.4,1.6,0.7,3,0.9,3.9C423.9,341.8,424,342.3,424,342.8z"/>
	<path d="M364.1,186.9c0.6,0.7,1.2,1.5,1.7,2.3c0.7,0.9,1.3,1.8,1.8,2.8c0.7,1.1,1.5,2.4,2.2,3.9s1.6,3.1,2.4,4.9s1.5,3.7,2.2,5.8
		c3,9,4.3,18.6,3.9,28.3c-0.1,2.2-0.2,4.3-0.5,6.3s-0.6,3.8-0.9,5.5s-0.7,3.1-1,4.4c-0.3,1.1-0.6,2.2-1,3.3c-0.3,0.9-0.6,1.9-1,2.8
		c0.2-1,0.4-1.9,0.7-2.8c0.3-0.9,0.6-2,0.8-3.3c0.3-1.3,0.7-2.8,0.9-4.4c0.2-1.7,0.6-3.5,0.8-5.4s0.3-4,0.5-6.3
		c0.3-9.6-1-19.1-3.9-28c-0.7-2.1-1.4-4-2.1-5.8c-0.8-1.8-1.4-3.4-2.2-4.9c-0.8-1.5-1.4-2.7-2-3.9s-1.2-2.1-1.7-2.9
		C365,188.5,364.5,187.7,364.1,186.9z"/>
</g>
</svg>
