<svg width="1374" height="1278" xmlns="http://www.w3.org/2000/svg" xmlns:xlink="http://www.w3.org/1999/xlink" overflow="hidden"><defs><clipPath id="clip0"><rect x="1061" y="-115" width="1374" height="1278"/></clipPath><clipPath id="clip1"><rect x="1062" y="-114" width="1372" height="1276"/></clipPath><clipPath id="clip2"><rect x="1062" y="-114" width="1372" height="1276"/></clipPath><clipPath id="clip3"><rect x="1062" y="-114" width="1372" height="1276"/></clipPath><clipPath id="clip4"><rect x="1694" y="-114" width="740" height="700"/></clipPath><clipPath id="clip5"><rect x="1062" y="-109" width="1350" height="1271"/></clipPath></defs><g clip-path="url(#clip0)" transform="translate(-1061 115)"><g clip-path="url(#clip1)"><g clip-path="url(#clip2)"><g clip-path="url(#clip3)"><path d="M712.901 605.972C711.88 613.118 711.88 619.243 712.391 623.581 713.156 632.003 713.667 638.893 718.771 643.487 721.833 646.294 725.406 647.315 727.703 647.57L727.703 656.502C727.192 665.944 732.552 673.6 738.676 675.387 746.588 677.428 758.072 669.772 759.092 656.502 758.072 652.419 757.051 647.06 756.796 640.935 756.54 633.279 757.816 626.644 759.092 622.05 763.431 620.264 765.217 615.925 763.941 613.118 762.92 610.566 759.603 609.8 759.092 609.8 755.775 608.78 750.926 606.993 745.822 603.165 741.994 600.103 739.187 597.04 737.656 594.488 736.38 596.53 732.807 601.124 726.427 603.931 720.557 606.738 715.198 606.483 712.901 605.972ZM343.882 682.277 284.42 1011.74C290.8 1013.53 299.222 1015.31 308.92 1016.08 319.638 1016.84 328.57 1015.82 335.46 1014.55 345.668 973.971 355.621 931.608 364.808 887.203 375.016 837.439 383.693 789.461 390.839 743.525 395.177 832.335 399.26 920.889 403.599 1009.7 409.724 1011.23 416.869 1012.25 424.78 1013.02 436.775 1013.78 447.493 1012.76 455.66 1011.49 457.956 965.804 458.977 918.082 458.977 868.318 458.722 801.456 456.17 737.911 451.832 678.194 435.244 680.746 416.359 682.788 395.688 683.553 376.803 684.064 359.449 683.553 343.882 682.277ZM424.525 463.826C421.463 467.654 420.952 471.482 420.697 473.268 417.635 471.992 414.062 473.524 412.786 476.841 411.51 479.904 413.041 483.476 416.359 484.752 416.614 487.304 416.869 493.429 412.531 498.023 409.213 501.596 404.875 502.616 398.75 503.637 392.88 504.658 387.776 504.403 384.714 504.148L384.714 518.949C387.776 520.48 393.646 522.522 401.302 522.522 408.448 522.522 414.062 520.48 417.38 518.949L417.38 507.21C424.525 507.976 428.098 505.934 429.629 504.658 434.733 500.32 434.223 492.408 433.457 477.607 432.947 469.696 432.181 463.316 431.416 458.977 429.374 459.232 426.822 460.764 424.525 463.826ZM806.56 701.417 775.936 707.542 639.914 739.187 625.623 759.348 628.175 772.363 823.403 773.639 826.72 755.264ZM766.238 796.607 696.058 800.945C652.419 796.096 641.19 811.664 635.32 818.299 629.451 824.934 625.878 849.944 625.878 849.944L627.409 933.394 625.623 1009.95 670.538 1012 677.173 852.24 691.975 856.068 696.824 1012 742.249 1012 742.249 856.068 769.811 854.282 795.841 834.632 805.284 803.242ZM520.225 773.894 520.225 1027.82 528.902 1027.82 528.902 789.461 874.698 789.461 874.698 1027.82 963.252 1027.82 963.252 773.894ZM737.911 523.543 496.236 523.543 496.236 355.111 737.911 355.111ZM498.023 569.479C493.429 569.479 489.601 573.307 489.601 577.9L489.601 632.258C489.601 636.852 493.429 640.68 498.023 640.68L652.419 640.68C653.184 640.68 653.695 640.935 654.205 641.445L666.965 657.523 666.455 642.976C666.455 642.466 666.71 641.7 666.965 641.445 667.476 640.935 667.986 640.68 668.496 640.68 673.09 640.68 676.918 636.852 676.918 632.258L676.918 577.9C676.918 573.307 673.09 569.479 668.496 569.479L498.023 569.479" fill="#FFFFFF" transform="matrix(1.00302 0 0 1 1062.38 -114)"/><path d="M497.257 521.246 734.593 521.246 734.593 357.152 497.257 357.152ZM736.89 525.84 495.216 525.84C493.94 525.84 492.919 524.819 492.919 523.543L492.919 355.111C492.919 353.835 493.94 352.814 495.216 352.814L736.89 352.814C738.166 352.814 739.187 353.835 739.187 355.111L739.187 523.543C738.932 524.819 737.911 525.84 736.89 525.84ZM680.236 930.332 693.506 865.511 693.506 864.745 774.149 864.745 774.149 865.511 789.206 930.332ZM819.064 1027.05 781.295 865 801.456 865C804.263 863.98 806.304 861.683 806.56 859.131 807.07 855.303 803.497 850.964 797.883 850.454 791.758 849.433 785.633 848.668 779.764 847.647L684.319 847.647 673.6 852.751 676.918 865 686.871 865 670.283 945.899C670.028 947.685 671.048 949.472 672.835 949.727L673.6 949.727C675.132 949.727 676.408 948.706 676.918 947.175L678.96 937.222 791.248 937.222 812.684 1028.84C812.94 1030.37 814.471 1031.39 816.002 1031.39L816.768 1031.39C818.299 1030.63 819.32 1028.84 819.064 1027.05" fill="#0F0E0C" transform="matrix(1.00302 0 0 1 1062.38 -114)"/><g clip-path="url(#clip4)"><path d="M947.43 110.374C882.609 73.8778 822.637 58.5658 782.316 51.678 785.123 40.9622 787.675 30.2463 790.482 19.5177 772.363 12.3813 746.332 4.20672 714.432 1.14636 680.491-1.914 652.164 1.65482 632.768 5.742 635.32 85.1143 637.617 164.474 640.169 243.846 654.971 244.094 671.559 245.37 689.423 247.922 704.735 250.226 718.771 253.026 731.531 256.093 760.368 263.239 798.648 275.999 839.991 299.732 874.953 319.893 901.749 342.096 921.144 360.725 972.184 310.706 1023.22 260.687 1074.26 210.918 1047.72 182.09 1006.13 143.55 947.43 110.374ZM1366.21 698.1 1049.51 678.449C1050.79 641.19 1048.23 573.307 1015.57 497.768 986.731 430.905 946.92 385.735 920.889 360.98 995.918 287.483 1070.69 214.238 1145.72 140.738 1191.15 184.382 1267.96 269.874 1318.49 400.531 1366.98 525.579 1369.28 635.826 1366.21 698.095" fill="#F43300" transform="matrix(1.00302 0 0 1 1062.38 -114)"/></g><path d="M799.159 539.62 799.159 587.088 809.877 575.348 867.552 575.348 867.552 539.62ZM497.512 629.706 672.324 629.706C667.986 619.753 660.84 607.759 651.908 607.504 641.7 607.248 638.638 622.05 627.92 623.071 610.311 624.857 601.124 584.536 583.26 585.812 568.203 586.832 559.271 605.972 551.615 616.691 550.339 618.477 549.063 620.264 547.276 621.284 534.006 630.216 520.48 602.655 506.189 609.545 500.064 612.863 498.023 622.305 497.512 629.706ZM612.863 459.998 590.916 459.998 590.916 492.153 612.863 492.153ZM643.742 451.066 621.795 451.066 621.795 492.153 643.742 492.153ZM673.856 432.436 651.908 432.436 651.908 492.153 673.856 492.153ZM705.245 396.708 683.298 396.708 683.298 491.898 705.245 491.898ZM580.197 490.367 558.25 490.367 558.25 434.988 580.197 434.988 580.197 490.367" fill="#F43300" transform="matrix(1.00302 0 0 1 1062.38 -114)"/><path d="M552.125 436.52C563.864 420.187 570.244 412.276 571.52 413.041 572.541 413.552 569.734 420.697 562.844 433.968 564.12 434.223 576.624 436.52 577.135 441.879 577.39 443.41 576.369 444.941 571.01 450.556 567.182 454.639 563.864 457.956 561.312 460.253 559.526 458.722 557.484 457.191 554.677 455.66 552.636 454.128 550.339 453.363 548.297 452.597 548.042 450.045 547.787 446.472 547.276 441.879 546 430.395 544.724 425.036 545.745 424.78 546.256 424.525 547.787 426.567 552.125 436.52" fill="#FFFFFF" transform="matrix(1.00302 0 0 1 1062.38 -114)"/><g clip-path="url(#clip5)"><path d="M811.919 566.672 857.855 566.672 857.855 564.375 811.919 564.375ZM811.919 559.781 857.855 559.781 857.855 557.484 811.919 557.484ZM857.855 550.594 811.919 550.594 811.919 552.891 857.855 552.891ZM502.616 600.358C512.059 597.04 521.501 596.02 530.944 596.785 544.469 598.061 552.125 603.42 559.526 608.524 566.672 613.373 573.307 618.222 584.28 618.222L584.536 618.222C595.254 618.222 601.889 613.628 609.035 608.78 616.691 603.676 624.347 598.316 638.383 597.04 647.315 596.275 656.247 597.296 665.434 600.103 666.71 600.358 667.731 599.848 668.241 598.572 668.496 597.296 667.986 596.275 666.71 595.764 657.012 592.702 647.315 591.681 637.872 592.447 622.816 593.723 614.139 599.848 606.483 604.952 599.592 609.545 593.723 613.884 584.28 613.628 574.838 613.628 568.968 609.545 562.078 604.696 554.677 599.592 546 593.468 531.199 592.192 521.246 591.171 511.293 592.447 501.085 596.02 499.809 596.53 499.299 597.551 499.809 598.827 500.32 600.103 501.596 600.868 502.616 600.358ZM668.752 569.479 498.023 569.479C493.429 569.479 489.601 573.307 489.601 577.9L489.601 632.258C489.601 636.852 493.429 640.68 498.023 640.68L652.419 640.68C653.184 640.68 653.695 640.935 654.205 641.445L666.965 657.523 666.455 642.976C666.455 642.466 666.71 641.7 666.965 641.445 667.476 640.935 667.986 640.68 668.496 640.68 673.09 640.68 676.918 636.852 676.918 632.258L676.918 577.9C677.173 573.052 673.345 569.479 668.752 569.479ZM498.023 564.885 668.752 564.885C675.897 564.885 681.767 570.755 681.767 577.9L681.767 632.258C681.767 638.638 677.173 643.997 671.048 645.018L671.559 664.158C671.559 665.179 671.048 665.944 670.028 666.2 669.772 666.2 669.517 666.455 669.262 666.455 668.496 666.455 667.986 666.2 667.476 665.689L651.143 645.273 497.768 645.273C490.622 645.273 484.752 639.404 484.752 632.258L484.752 577.9C485.008 570.755 490.877 564.885 498.023 564.885ZM739.697 1010.21 739.697 1005.11 698.355 1005.11C698.355 1006.89 698.61 1008.42 698.61 1010.21ZM726.427 1000.51 739.442 1000.51 739.187 846.626C739.187 845.35 740.208 844.329 741.484 844.329 742.76 844.329 743.78 845.35 743.78 846.626L743.78 854.282C752.968 855.303 762.155 854.027 770.066 850.454 779.508 846.371 786.399 839.48 791.248 832.335L743.525 832.845C741.484 832.845 734.338 832.845 729.234 838.204 726.682 840.756 725.406 843.819 724.896 845.86ZM690.188 853.772C689.933 848.923 689.678 844.074 688.912 839.225L688.912 838.97C688.912 837.949 688.657 836.928 688.402 835.652 683.808 833.611 677.939 832.08 673.345 834.376 667.731 837.439 665.944 845.605 665.434 852.24 663.137 873.932 661.351 930.587 660.585 1000.77L668.752 1000.77 675.132 845.35C675.132 844.074 676.408 843.053 677.428 843.308 678.704 843.308 679.725 844.329 679.47 845.605L679.215 851.22ZM668.241 1010.21 668.496 1005.11 627.92 1005.11C627.92 1006.89 627.92 1008.42 627.664 1010.21ZM743.78 858.876 744.036 1002.81 744.036 1012.51C744.036 1013.02 743.78 1013.78 743.27 1014.04 742.76 1014.55 742.249 1014.8 741.739 1014.8L739.442 1014.8 739.442 1028.07 680.236 1028.07C681.001 1026.29 682.022 1023.73 684.319 1021.95 687.126 1019.65 689.933 1018.89 692.996 1018.12 695.292 1017.35 698.355 1016.33 701.672 1015.06L696.058 1015.06C694.782 1015.06 694.016 1014.04 693.761 1013.02 692.485 986.731 690.954 960.7 689.168 935.691 688.147 921.4 688.657 906.853 689.168 892.562 689.678 881.588 689.933 870.104 689.678 858.876L678.449 856.068 672.069 1013.02C672.069 1014.29 671.048 1015.06 669.772 1015.06L665.689 1015.06 665.689 1028.33 606.483 1028.33C607.248 1026.54 608.269 1023.99 610.566 1022.2 613.373 1019.91 616.18 1019.14 619.243 1018.38 621.54 1017.61 624.602 1016.59 627.92 1015.31L624.602 1015.31C624.092 1015.31 623.326 1015.06 623.071 1014.55 622.56 1014.04 622.305 1013.53 622.56 1013.02 624.602 966.825 624.857 921.91 623.836 879.547L623.836 876.484C623.071 849.178 622.305 825.7 639.148 810.898 650.632 800.435 668.752 796.607 690.954 799.924 692.23 800.18 692.996 801.2 692.74 802.476 692.485 803.752 691.464 804.518 690.188 804.263 675.642 802.221 655.226 801.966 641.956 814.216 626.899 827.741 627.409 850.454 628.175 876.484L628.175 879.547C629.196 918.337 628.94 959.424 627.409 1001.53L655.481 1001.53C656.247 931.352 658.033 874.443 660.33 852.496 660.84 847.392 662.116 835.652 670.793 831.314 675.387 829.017 681.001 829.017 687.636 831.569 687.381 825.189 688.402 817.278 693.761 810.643 699.12 803.752 708.308 799.669 720.302 798.648 721.578 798.648 722.599 799.414 722.599 800.69 722.599 801.966 721.833 802.987 720.557 802.987 709.839 803.752 701.672 807.325 697.079 813.195 692.23 819.575 691.72 827.486 692.23 833.356 692.996 834.121 692.996 834.887 692.74 835.908 692.74 835.908 692.74 836.163 692.485 836.163 692.485 837.184 692.74 837.949 692.74 838.715L692.74 839.225C695.037 857.089 694.272 875.208 693.761 892.817 693.251 906.853 692.74 921.4 693.761 935.436 695.292 956.872 696.568 978.82 697.589 1001.28L721.578 1001.28 719.792 846.371 719.792 845.86C720.812 842.032 722.854 838.715 725.406 835.908 732.041 829.272 740.463 829.272 743.015 829.272L793.544 828.762C800.435 816.768 801.966 804.773 802.221 804.008 802.476 802.732 803.497 801.966 804.773 801.966 806.049 802.221 806.815 803.242 806.815 804.518 806.815 805.539 805.028 818.299 797.372 831.569 797.372 831.824 797.117 832.08 796.862 832.335 791.503 841.267 783.592 849.944 771.852 855.048 764.962 858.11 757.561 859.641 749.905 859.641 747.864 859.131 745.822 858.876 743.78 858.876ZM961.211 776.191 522.522 776.191 522.522 1025.52 526.86 1025.52 526.86 789.461C526.86 788.185 527.881 787.164 529.157 787.164L874.953 787.164C876.229 787.164 877.25 788.185 877.25 789.461L877.25 1025.52 961.466 1025.52ZM630.216 771.852 651.653 771.852 641.19 743.27C638.383 746.332 635.831 749.65 633.279 752.968 628.685 758.837 628.175 760.368 627.92 761.9 627.154 765.472 628.685 769.045 630.216 771.852ZM809.622 703.204C812.94 711.625 815.747 718.005 817.023 721.068L818.299 723.875C826.976 744.546 829.783 751.692 828.762 761.644 828.507 764.962 827.741 768.28 826.465 771.597L963.508 771.597C964.784 771.597 965.804 772.618 965.804 773.894L965.804 1027.82C965.804 1029.09 964.784 1030.11 963.508 1030.11L874.953 1030.11C873.677 1030.11 872.656 1029.09 872.656 1027.82L872.656 791.758 531.199 791.758 531.199 1027.82C531.199 1029.09 530.178 1030.11 528.902 1030.11L520.225 1030.11C518.949 1030.11 517.928 1029.09 517.928 1027.82L517.928 773.894C517.928 772.618 518.949 771.597 520.225 771.597L625.112 771.597C623.326 767.769 622.816 764.196 623.581 760.624 624.092 758.327 625.112 756.285 629.706 749.905 632.513 746.077 635.576 742.504 638.638 738.932 638.893 738.676 639.148 738.421 639.659 738.421L621.029 686.616C652.674 686.36 684.064 686.36 715.708 686.105 724.385 713.667 733.062 741.484 741.739 769.045L797.628 769.556 797.628 771.342 822.127 771.342C823.403 768.024 824.168 764.452 824.679 760.879 825.444 751.947 822.637 745.312 814.471 725.406L813.195 722.599C811.919 719.281 809.112 712.901 805.794 704.735 805.284 703.714 805.794 702.183 807.07 701.928 807.836 701.672 809.112 702.183 809.622 703.204ZM779.508 612.352C777.722 608.78 773.384 603.931 762.41 601.379 759.092 588.874 749.905 579.432 738.932 577.9 729.489 576.369 722.088 581.218 720.047 582.494 708.052 590.66 707.287 604.952 707.287 606.483 708.052 609.545 709.073 612.352 709.839 615.415 709.839 618.222 709.839 621.029 710.094 623.836 710.86 632.513 711.37 639.914 717.24 645.273 719.536 647.315 722.344 648.846 725.406 649.612L725.406 656.757C725.406 658.033 726.427 659.054 727.703 659.054 728.979 659.054 730 658.033 730 656.757L730 647.825C730 646.804 729.234 645.784 728.213 645.528 725.151 645.018 722.344 643.742 720.302 641.956 715.708 637.872 715.453 631.748 714.688 623.326 714.177 618.477 714.432 613.373 714.943 608.269 718.26 608.524 722.854 608.014 727.448 605.972 732.041 603.931 735.614 600.868 737.656 598.316 739.697 600.868 741.994 602.91 744.546 604.952 748.629 608.269 753.478 610.566 758.582 611.842 758.582 611.842 761.134 612.352 761.644 613.884 762.41 615.67 761.134 618.732 758.072 620.008 757.561 620.264 757.051 620.774 756.796 621.54 755.009 627.92 754.244 634.555 754.499 641.19 754.754 646.549 755.52 651.908 756.796 657.268 757.051 658.288 758.072 658.799 758.837 658.799L759.348 658.799C760.368 658.544 760.879 657.778 760.879 657.012 767.004 657.778 778.488 660.33 789.461 669.262 794.31 673.345 798.138 677.684 800.945 682.022 807.325 679.98 808.856 677.939 809.112 676.408 809.622 673.09 803.497 671.814 800.18 665.434 796.352 658.288 801.2 653.95 797.628 648.08 793.544 641.19 786.144 644.508 781.55 637.872 776.446 630.216 784.357 621.54 779.508 612.352ZM714.177 376.548C699.886 372.72 686.105 372.464 673.6 376.037 656.757 380.631 648.08 390.073 640.169 398.495 633.024 406.151 626.899 412.786 615.925 414.062 604.441 415.593 596.53 410.234 587.088 404.109 577.135 397.474 565.906 390.073 548.808 390.839 536.813 391.349 525.074 395.943 513.59 404.109 512.569 404.875 512.314 406.151 513.08 407.172 513.845 408.192 515.121 408.448 516.142 407.682 526.86 400.026 537.834 395.943 549.063 395.432 564.63 394.667 574.838 401.557 584.791 407.937 593.468 413.552 601.634 418.911 612.352 418.911 613.628 418.911 615.16 418.911 616.691 418.656 629.196 417.124 636.086 409.724 643.487 401.557 651.143 393.136 659.309 384.714 674.876 380.376 686.616 377.058 699.631 377.313 713.156 380.886 714.432 381.141 715.453 380.376 715.964 379.355 715.964 378.079 715.198 376.803 714.177 376.548ZM608.014 490.877 586.067 490.877C584.791 490.877 583.77 491.898 583.77 493.174 583.77 494.45 584.791 495.471 586.067 495.471L608.014 495.471C609.29 495.471 610.311 494.45 610.311 493.174 610.311 491.898 609.29 490.877 608.014 490.877ZM638.638 490.877 616.691 490.877C615.415 490.877 614.394 491.898 614.394 493.174 614.394 494.45 615.415 495.471 616.691 495.471L638.638 495.471C639.914 495.471 640.935 494.45 640.935 493.174 640.935 491.898 639.914 490.877 638.638 490.877ZM669.007 490.877 647.06 490.877C645.784 490.877 644.763 491.898 644.763 493.174 644.763 494.45 645.784 495.471 647.06 495.471L669.007 495.471C670.283 495.471 671.304 494.45 671.304 493.174 671.304 491.898 670.028 490.877 669.007 490.877ZM678.449 495.216 700.396 495.216C701.672 495.216 702.693 494.195 702.693 492.919 702.693 491.643 701.672 490.622 700.396 490.622L678.449 490.622C677.173 490.622 676.152 491.643 676.152 492.919 676.152 494.195 677.173 495.216 678.449 495.216ZM605.717 455.915 588.364 455.915 588.364 483.732 605.717 483.732ZM610.311 485.773C610.311 487.049 609.29 488.07 608.014 488.07L586.067 488.07C584.791 488.07 583.77 487.049 583.77 485.773L583.77 453.618C583.77 452.342 584.791 451.321 586.067 451.321L608.014 451.321C609.29 451.321 610.311 452.342 610.311 453.618ZM636.596 446.983 619.243 446.983 619.243 483.476 636.596 483.476ZM640.935 485.773C640.935 487.049 639.914 488.07 638.638 488.07L616.691 488.07C615.415 488.07 614.394 487.049 614.394 485.773L614.394 444.686C614.394 443.41 615.415 442.389 616.691 442.389L638.638 442.389C639.914 442.389 640.935 443.41 640.935 444.686ZM666.71 428.353 649.356 428.353 649.356 483.476 666.71 483.476ZM671.048 485.773C671.048 487.049 670.028 488.07 668.752 488.07L646.804 488.07C645.528 488.07 644.508 487.049 644.508 485.773L644.508 426.056C644.508 424.78 645.528 423.76 646.804 423.76L668.752 423.76C670.028 423.76 671.048 424.78 671.048 426.056ZM680.746 483.476 698.1 483.476 698.1 392.625 680.746 392.625ZM676.152 485.773 676.152 390.584C676.152 389.308 677.173 388.287 678.449 388.287L700.396 388.287C701.672 388.287 702.693 389.308 702.693 390.584L702.693 485.773C702.693 487.049 701.672 488.07 700.396 488.07L678.449 488.07C677.173 488.07 676.152 487.049 676.152 485.773ZM344.137 679.98C342.861 679.725 341.84 680.491 341.585 681.767L282.124 1011.23C281.868 1012.25 282.634 1013.53 283.655 1013.78L292.842 1016.08C292.842 1018.38 292.842 1020.67 292.587 1022.97 295.649 1024.25 299.732 1025.78 304.326 1026.54 311.216 1027.82 317.341 1027.82 321.68 1027.56 322.445 1024.5 323.466 1021.18 324.232 1018.12 328.06 1017.87 331.888 1017.35 335.716 1016.59 336.481 1016.33 337.247 1015.82 337.502 1015.06 348.22 972.95 357.918 930.076 366.85 887.713 375.272 847.136 382.928 806.049 389.563 764.962L401.302 1009.7C401.302 1010.72 402.068 1011.49 403.088 1011.74 406.151 1012.51 409.468 1013.02 412.786 1013.53L412.786 1027.56C434.988 1027.56 457.446 1027.31 479.648 1027.31 479.138 1025.01 478.372 1021.69 475.565 1019.65 472.503 1017.1 468.675 1017.61 465.102 1017.61 461.274 1017.61 456.17 1016.84 449.79 1014.04 451.832 1013.78 454.128 1013.53 456.17 1013.02 457.191 1012.76 457.956 1012 457.956 1010.97 460.253 963.508 461.274 915.275 461.274 867.552 461.019 804.263 458.722 740.208 454.128 677.173 454.128 675.897 453.108 675.132 451.832 675.132 450.556 675.132 449.79 676.152 449.79 677.428 454.384 740.463 456.68 804.263 456.936 867.297 457.191 914.254 456.17 961.721 453.873 1008.68 444.431 1010.21 434.733 1010.72 425.291 1009.95 418.911 1009.44 412.276 1008.68 405.896 1007.15L393.136 742.76C393.136 741.739 392.115 740.718 391.094 740.718 389.818 740.718 389.052 741.484 388.797 742.504 381.396 790.482 372.464 838.715 362.767 886.182 354.09 928.035 344.392 970.398 333.929 1012 325.763 1013.27 317.596 1013.78 309.175 1013.27 301.774 1012.76 294.373 1011.49 286.972 1009.7L345.924 682.022C346.179 681.512 345.413 680.236 344.137 679.98ZM436.009 432.692C432.947 431.416 430.65 434.478 423.249 435.499 418.145 436.264 416.359 435.244 410.489 434.988 406.661 434.733 394.922 434.223 385.224 440.603 382.417 442.389 377.568 446.217 373.996 453.618 372.209 454.639 369.657 456.17 368.126 459.232 365.319 465.357 370.168 471.992 375.782 485.263 377.568 489.346 379.865 495.471 382.162 503.382L382.162 503.892 382.162 518.694C382.162 519.97 383.183 520.991 384.459 520.991 385.735 520.991 386.756 519.97 386.756 518.694L386.756 506.189C390.839 506.444 394.922 506.189 399.005 505.424 405.385 504.403 410.234 503.382 414.062 499.044 418.4 494.195 418.656 487.56 418.4 483.987 418.4 483.221 417.89 482.456 417.124 482.2 415.083 481.435 414.062 479.138 414.828 477.096 415.083 476.076 415.848 475.31 416.869 475.055 417.89 474.544 418.911 474.544 419.932 475.055 420.697 475.31 421.208 475.31 421.973 474.8 422.484 474.544 422.994 473.779 422.994 473.013 423.249 470.972 424.015 467.909 426.312 464.847 427.077 463.826 428.098 462.805 429.374 462.04 430.14 467.144 430.65 472.248 430.905 477.352 431.926 491.898 432.181 499.299 427.843 502.616 425.546 504.658 421.973 505.424 417.38 504.658 416.869 504.658 416.104 504.658 415.593 505.168 415.083 505.679 414.828 506.189 414.828 506.7L414.828 518.439C414.828 519.715 415.848 520.736 417.124 520.736 418.4 520.736 419.421 519.715 419.421 518.439L419.421 508.996C424.27 509.252 428.098 507.976 430.905 505.679 436.775 500.575 436.264 491.643 435.499 476.586 435.244 470.716 434.478 464.847 433.457 459.232 436.009 456.425 439.072 452.087 439.837 446.217 440.348 442.644 440.092 434.478 436.009 432.692ZM1289.4 410.489C1252.14 314.024 1193.19 225.214 1118.67 152.992L1016.33 253.286 896.9 370.168 898.942 372.209C900.218 373.485 901.494 374.761 902.77 375.782 903.791 376.803 904.556 377.824 905.577 378.589 907.108 380.12 908.64 381.907 910.171 383.438 910.936 384.204 911.447 384.969 912.212 385.735 913.999 387.521 915.785 389.563 917.316 391.604L918.848 393.136C920.889 395.432 922.676 397.474 924.717 399.771 924.972 400.026 925.228 400.281 925.483 400.792 929.821 405.896 934.16 411.255 938.243 416.614 938.498 416.869 938.498 417.124 938.753 417.38 940.54 419.676 942.326 422.228 944.112 424.525 944.623 425.036 945.133 425.801 945.388 426.312 946.92 428.353 948.451 430.65 949.982 432.692 950.492 433.457 950.748 433.968 951.258 434.733 952.789 437.03 954.32 439.072 955.596 441.368 955.852 441.879 956.362 442.389 956.617 442.9 958.148 445.452 959.935 448.004 961.466 450.556 961.466 450.811 961.721 451.066 961.721 451.066 1004.59 520.48 1027.05 601.634 1024.5 685.595L1336.87 704.99C1341.71 605.462 1325.38 503.637 1289.4 410.489ZM1043.9 220.37C1007.66 181.322 965.804 148.146 919.358 121.858 868.828 93.5257 814.216 73.8778 757.051 63.6698L745.312 109.866 707.032 264.004C711.115 265.025 715.198 266.301 719.281 267.322 720.812 267.832 722.088 268.088 723.62 268.598 725.916 269.364 728.468 270.129 730.765 270.895 732.807 271.405 734.848 272.171 736.89 272.936 737.911 273.192 738.676 273.447 739.697 273.957 744.546 275.744 749.395 277.275 754.244 279.316 755.52 279.827 756.54 280.337 757.816 280.592 760.368 281.613 762.665 282.634 765.217 283.655 766.238 283.91 767.004 284.42 768.024 284.931 772.363 286.717 776.701 288.759 781.04 290.545 782.316 291.311 783.847 291.821 785.123 292.587 787.164 293.608 789.461 294.628 791.503 295.649 793.289 296.67 795.076 297.436 796.862 298.456 799.669 299.988 802.476 301.264 805.284 302.795 807.325 304.071 809.622 305.092 811.664 306.368 812.429 306.878 813.45 307.388 814.216 307.644 814.981 308.154 816.002 308.664 816.768 309.175 818.299 310.196 819.83 310.961 821.361 311.982 822.892 313.003 824.424 313.768 825.955 314.789 829.017 316.576 831.824 318.617 834.887 320.404 835.908 320.914 836.673 321.68 837.694 322.19L844.584 326.784C845.605 327.549 846.626 328.315 847.647 328.825 849.944 330.356 852.24 332.143 854.282 333.674 855.048 334.184 856.068 334.95 856.834 335.46L866.021 342.351 866.276 342.606 874.698 349.496C875.719 350.262 876.484 351.028 877.505 351.793 879.547 353.58 881.333 355.111 883.375 356.897 884.396 357.918 885.416 358.684 886.437 359.704 888.479 361.491 890.265 363.277 892.307 365.064 893.072 365.829 893.838 366.34 894.348 367.105ZM753.223 60.61 760.879 30.2463C737.145 21.054 712.391 15.1824 687.126 12.8896 660.585 10.3376 634.044 11.8627 607.759 17.226L614.904 251.242C643.997 252.01 673.345 256.093 701.928 262.984L702.438 262.984ZM1341.46 707.797C1341.46 708.308 1341.2 708.818 1340.69 709.328 1340.18 709.584 1339.67 709.839 1339.16 709.839L1338.91 709.839 1205.69 701.672C1202.89 761.644 1190.89 820.851 1170.22 877.76 1115.35 1029.09 1004.85 1150.31 859.131 1218.71 777.722 1256.73 690.954 1275.87 603.676 1275.87 534.516 1275.87 465.102 1263.88 398.24 1239.63 246.916 1184.77 125.686 1074.26 57.2924 928.545-11.0961 782.826-18.502 618.988 36.3762 467.654 79.2422 348.731 156.57 248.442 259.921 176.981 360.98 107.054 479.138 69.8023 601.634 69.542 602.91 69.542 603.931 70.5577 603.931 71.8337 603.931 73.1097 602.91 74.1382 601.634 74.1382 351.283 74.646 125.941 233.378 40.7044 468.933-71.576 779.256 89.4501 1123.01 399.771 1235.3 550.084 1289.66 712.646 1282.26 857.344 1214.37 1002.04 1146.49 1111.78 1026.29 1166.14 875.977 1186.55 819.322 1198.55 760.626 1201.35 700.909L1024.5 689.936C1023.48 715.456 1019.91 741.486 1014.04 767.261 1013.78 768.537 1012.51 769.303 1011.49 768.793 1010.21 768.537 1009.44 767.261 1009.95 766.241 1016.08 739.955 1019.4 713.925 1020.42 687.894L1020.42 687.639C1022.46 626.136 1010.97 564.122 986.731 507.723 978.564 488.583 968.867 470.209 958.148 452.6 958.148 452.345 957.893 452.345 957.893 452.089 956.362 449.537 954.576 446.73 952.789 444.178 952.534 443.923 952.279 443.413 952.024 443.157 950.492 440.605 948.706 438.309 946.92 435.757 946.664 435.501 946.409 434.991 946.154 434.736 942.326 429.121 938.243 423.762 934.16 418.148 934.16 417.893 933.904 417.893 933.904 417.637 931.863 415.085 930.076 412.789 928.035 410.237 927.524 409.726 927.014 409.216 926.759 408.705 924.972 406.664 923.441 404.622 921.655 402.581 921.144 401.815 920.634 401.305 919.868 400.539 918.337 398.753 916.551 396.711 915.02 394.925 914.509 394.159 913.744 393.649 913.233 392.883 911.702 391.097 909.916 389.31 908.384 387.524L906.088 385.227 901.494 380.633C900.473 379.613 899.708 378.592 898.687 377.826L895.369 374.509C894.093 373.233 892.817 371.957 891.286 370.681 888.734 368.384 886.182 365.832 883.63 363.535 882.864 362.769 881.844 362.004 881.078 361.238L874.953 355.879C873.932 355.113 873.167 354.348 872.146 353.582 869.849 351.541 867.552 349.754 865.256 347.968 864.745 347.457 863.98 346.947 863.469 346.437 860.407 344.14 857.6 341.843 854.537 339.546 853.772 339.036 853.261 338.525 852.496 338.015 850.199 336.229 847.647 334.442 845.35 332.656 844.329 331.89 843.308 331.125 842.288 330.614 839.991 329.083 837.949 327.552 835.652 326.021 834.632 325.255 833.611 324.745 832.59 323.979 829.783 321.937 826.72 320.151 823.658 318.365 822.127 317.344 820.596 316.578 819.32 315.813 817.788 314.792 816.002 313.771 814.471 312.75 812.94 311.729 811.153 310.964 809.622 309.943 807.325 308.667 805.028 307.391 802.987 306.115 800.435 304.839 797.883 303.308 795.076 302.032 793.289 301.011 791.248 299.99 789.461 299.225L783.336 296.162C781.805 295.397 780.274 294.886 778.998 294.121 775.17 292.334 771.087 290.548 767.259 289.017 765.983 288.506 764.707 287.996 763.686 287.485 761.389 286.465 758.837 285.444 756.54 284.678L752.712 283.147C750.671 282.381 748.374 281.616 746.332 280.85 744.291 280.085 742.249 279.574 740.463 278.809 738.932 278.298 737.145 277.788 735.614 277.022 733.572 276.257 731.531 275.746 729.744 274.981 727.192 274.215 724.385 273.449 721.833 272.429 720.557 272.173 719.536 271.663 718.26 271.408 713.922 270.132 709.584 269.111 704.99 267.835 691.209 264.517 677.173 261.71 663.137 259.669 647.06 257.372 630.472 256.096 614.139 255.585L613.628 255.585C550.084 254.057 486.794 267.325 427.588 295.141 325.508 342.353 249.208 426.059 211.178 530.691 159.888 672.582 189.486 831.827 288.248 945.901 289.014 946.922 289.014 948.198 287.993 948.964 287.483 949.219 286.972 949.474 286.462 949.474 285.952 949.474 285.186 949.219 284.676 948.709 184.642 833.358 154.784 672.582 206.842 529.16 245.122 423.252 322.445 338.781 424.27 291.058 483.476 263.241 546.766 249.968 610.311 250.997L602.91 15.1844C602.91 14.1682 603.676 13.1413 604.696 12.8922 631.748 7.27984 659.564 5.74455 687.126 8.29655 713.412 10.8486 739.187 16.9693 763.941 26.6684 764.962 27.1762 765.472 28.2047 765.217 29.2204L758.072 59.3366C815.747 69.5445 870.615 89.1924 921.4 118.033 968.101 144.321 1010.46 177.744 1046.96 217.3L1117.14 148.657C1117.9 147.888 1119.43 147.888 1120.2 148.657 1195.74 221.389 1255.71 311.474 1293.48 409.216 1329.97 503.385 1346.56 606.485 1341.46 707.8ZM523.798 463.06C522.522 463.06 521.501 464.081 521.501 465.357L521.501 477.096C521.501 478.372 522.522 479.393 523.798 479.393 525.074 479.393 526.095 478.372 526.095 477.096L526.095 467.399 532.22 467.399C533.496 467.399 534.516 466.378 534.516 465.102 534.516 463.826 533.496 462.805 532.22 462.805ZM566.161 432.181C568.203 432.692 570.755 433.457 572.796 434.478L572.796 428.353 567.948 428.353C567.437 429.629 566.927 430.905 566.161 432.181ZM577.39 485.773C577.39 487.049 576.369 488.07 575.093 488.07L556.719 488.07C555.443 488.07 554.422 487.049 554.422 485.773 554.422 484.497 555.443 483.476 556.719 483.476L573.052 483.476 573.052 451.576C569.989 454.894 566.672 458.212 563.354 461.529 562.844 462.04 562.333 462.04 561.823 462.04 561.312 462.04 560.547 461.784 560.292 461.274 559.526 460.508 559.526 458.977 560.292 458.212 563.609 455.149 566.672 451.832 569.734 448.514 572.541 445.452 575.348 442.389 575.093 441.624 574.838 439.327 568.458 436.775 562.588 435.754 561.823 435.754 561.312 435.244 561.057 434.478 560.802 433.968 560.802 433.202 561.057 432.436 563.864 426.822 565.906 422.739 567.182 419.932 564.375 423.249 560.292 428.608 554.167 437.285 553.656 438.051 552.891 438.306 552.125 438.306 551.36 438.306 550.594 437.796 550.339 437.03 549.828 435.754 549.318 434.733 548.808 433.712 549.063 435.754 549.318 438.306 549.828 441.368 550.339 444.941 550.594 448.769 550.849 452.342 550.849 453.618 550.084 454.639 548.808 454.639 547.532 454.639 546.511 453.873 546.511 452.597 546.256 449.024 546 445.452 545.49 441.879 544.98 437.796 544.724 434.478 544.214 431.671 543.193 424.78 542.938 422.994 545.49 422.228 547.276 421.718 548.552 422.484 551.36 428.098L551.36 426.056C551.36 424.78 552.38 423.76 553.656 423.76L558.76 423.76C569.989 408.958 571.265 409.468 573.052 410.744 574.838 411.765 575.604 413.041 570.5 423.76L575.348 423.76C576.624 423.76 577.645 424.78 577.645 426.056L577.645 437.285C578.921 438.306 579.687 439.837 579.687 441.368 579.942 442.9 579.432 444.431 577.645 446.728ZM577.39 492.919C577.39 494.195 576.369 495.216 575.093 495.216L553.146 495.216C551.87 495.216 550.849 494.195 550.849 492.919 550.849 491.643 551.87 490.622 553.146 490.622L575.093 490.622C576.369 490.877 577.39 491.898 577.39 492.919" fill="#0F0E0C" transform="matrix(1.00302 0 0 1 1062.38 -114)"/></g><path d="M384.459 518.694C373.74 519.204 351.028 522.267 334.95 539.365 330.356 544.469 324.742 551.87 316.831 578.666 311.982 594.488 306.368 616.946 303.05 645.273 307.133 648.591 313.003 652.674 320.659 655.992 329.846 659.82 338.012 661.351 343.882 661.861L343.882 682.022C359.449 683.298 376.803 683.808 395.688 683.043 416.359 682.277 435.244 680.236 451.832 677.684 449.79 641.956 447.748 606.483 445.707 570.755 462.805 566.416 476.841 562.078 487.049 558.76 513.335 550.084 518.949 545.745 522.522 542.938 528.136 538.344 532.73 532.73 543.704 511.548 549.828 499.809 557.74 483.732 566.161 464.081 563.864 461.529 559.781 457.701 553.912 454.384 548.808 451.832 544.469 450.556 541.152 450.045 527.371 471.227 513.59 492.408 499.554 513.335 486.284 516.142 470.206 518.439 452.087 519.204 439.072 519.715 427.332 519.204 416.869 518.184 413.807 519.46 408.192 521.501 400.792 521.756 393.391 522.267 387.776 520.225 384.459 518.694ZM698.1 789.461C698.1 790.737 697.589 793.289 696.058 796.096 694.527 798.904 692.485 800.435 691.209 801.2 708.052 800.18 726.172 799.414 745.567 799.924 767.004 800.18 786.654 801.711 805.028 803.752L800.435 789.716C766.238 789.461 732.296 789.461 698.1 789.461ZM741.484 674.111C750.16 675.132 759.348 667.476 759.092 656.757 764.196 657.268 777.467 659.309 789.716 669.262 804.008 681.001 808.091 696.058 809.367 700.907L775.68 707.797 789.206 751.436 736.38 753.988 715.453 686.871 673.6 687.126C678.96 681.767 687.126 674.366 698.355 668.241 709.839 661.861 720.302 658.799 727.703 657.268 727.448 665.689 733.828 673.345 741.484 674.111" fill="#F43300" transform="matrix(1.00302 0 0 1 1062.38 -114)"/></g></g></g></g></svg>